<svg width="1440" height="470" viewBox="0 0 1440 470" xmlns="http://www.w3.org/2000/svg" xmlns:xlink="http://www.w3.org/1999/xlink">
    <defs>
        <path id="4w5svafc9a" d="M0 0h1440v470H0z"/>
        <path id="nyev9ms7jc" d="M0 .043h79.722V229.77H0z"/>
        <path d="M0 0c6.004 6.684 13.034 13.438 20.468 20.245 12.553 11.496 26.264 23.156 38.145 34.932 10.768 10.669 20.034 21.432 25.584 32.255 2.1 4.096 3.707 8.144 4.885 12.152 3.183 10.831 3.242 21.384 1.468 31.897-2.055 12.175-9.563 21.564-14.53 33.988-.72 1.803-1.45 3.612-2.182 5.427-2.51 6.217-3.09 12.783-2.058 19.243.009.063.01.115.029.184.827 4.916 5.474 10.943 10.16 13.845 3.653 2.26 8.027 3.774 12.42 4.32 3.277.407 6.482.567 9.58.447 6.785-.263 13.037-1.874 18.32-5.2 6.405-4.032 11.383-10.583 14.158-20.295.198-.694.385-1.402.56-2.13 2.74-11.359 1.456-22.35-1.735-33.15-2.481-8.396-6.116-16.678-9.903-24.928-.689-1.5-1.404-2.98-2.143-4.448-7.576-15.048-17.686-28.516-28.058-42.787a922.902 922.902 0 0 1-4.022-5.567C83.58 59.87 78.72 49.634 78.93 38.913c.143-7.354 2.67-14.938 8.342-23.009-11.301.223-20.81-.624-29.49-2.075-10.884-1.82-20.463-4.592-30.64-7.394C18.837 4.144 10.133 1.835 0 0z" id="otwivlb1fe"/>
        <path id="erwh7bu5zg" d="M0 0h64.434v157.088H0z"/>
        <path d="M15.402.141c-4.53.36-8.768 2.56-11.569 6.016A15.575 15.575 0 0 0 .718 12.6a15.361 15.361 0 0 0 .392 7.98 15.571 15.571 0 0 0 3.332 5.714 16.028 16.028 0 0 0 2.214 2.012c3.583 2.703 8.244 3.846 12.731 3.137a16.618 16.618 0 0 0 6.395-2.428 16.121 16.121 0 0 0 3.833-3.43 15.64 15.64 0 0 0 1.643-2.468 15.275 15.275 0 0 0 1.798-6.325c.161-2.69-.4-5.41-1.622-7.833a15.912 15.912 0 0 0-4.64-5.524 16.543 16.543 0 0 0-4.58-2.432 16.774 16.774 0 0 0-5.473-.916c-.443 0-.89.019-1.34.053" id="w1z3wjqusi"/>
        <path d="M38.01 5.29c-5.05 3.12-9.227 7.512-11.712 12.896-2.128 4.618-2.574 9.553-2.118 14.577.997 10.997 5.616 22.57.885 32.241-4.2 8.59-17.322 13.766-22.071 22.17-4.048 7.161-4.166 16.4.72 23.145 3.173 4.38 8.067 7.598 13.55 9.378 5.465 1.77 11.512 2.108 17.02.734a65.535 65.535 0 0 0 5.023-1.468c8.838-2.965 16.506-7.613 23.154-13.062 8.022-6.581 15.1-14.602 20.896-23.239a76.813 76.813 0 0 0 6.907-12.704c1.832-4.318 3.257-8.844 4.162-13.466 1.216-6.232 1.487-12.638.548-18.946C92.69 22.226 82.63 7.79 68.457 2.251 65.438 1.073 62.276.33 59.047.091A33.078 33.078 0 0 0 56.59 0c-6.518 0-13.066 1.887-18.58 5.29" id="mdwsgs1hjk"/>
        <path d="M93.337 9.533c-5.74 2-11.417 4.256-17.029 6.708-15.406 6.726-30.318 14.915-44.657 23.332-1.223.716-2.44 1.435-3.651 2.156-1.338 6.05-4.167 12.471-7.546 19.045C12.906 75.446 2.608 90.867 0 104.591c3.91-6.543 8.657-13.464 14.124-20.356C43.497 47.179 93.55 10.809 144.812 37.182a97.642 97.642 0 0 1 10.73 6.45c16.429 11.336 11.295 32.849 24.413 48.415a29.71 29.71 0 0 0 1.778 1.927c7.539 7.522 21.26 13.237 33.203 13.64 6.604.225 13.055-1.023 18.438-4.163a28.403 28.403 0 0 0 7.229-6.03c3.395-3.95 5.702-8.778 6.937-14.02 2.035-8.655 1.152-18.448-2.593-27.31a91.833 91.833 0 0 0-1.795-3.99c-3.5-7.294-7.599-13.219-12.442-18.327-6.702-7.066-14.825-12.568-24.77-17.966a137.338 137.338 0 0 0-15.424-7.202C175.147 2.576 160.009 0 145.169 0c-17.734 0-35.042 3.678-51.832 9.533" id="6k3k7g5a8m"/>
        <path d="M27.485.222c-1.35.256-2.686.716-3.893 1.376-3.61 1.983-5.723 5.898-7.847 9.446a93.45 93.45 0 0 0-2.41 4.295C7.088 27.207 2.912 41.228 1.07 54.733.122 61.71-.205 68.55.125 74.88c.146 2.826.46 5.847.928 8.99 1.782 11.955 5.816 25.701 11.525 37.366 4.077 8.328 9.007 15.593 14.584 20.392-6.892-12.85-13.474-27.244-16.671-41.636-1.11-5.002-1.812-10.004-1.975-14.94-.53-16 3.007-30.321 9.8-43.437 3.58-6.908 8.064-13.477 13.335-19.783.476-.565.952-1.143 1.419-1.727 1.3-1.633 2.528-3.333 3.464-5.08 1.5-2.8 2.245-5.728 1.343-8.728-.304-1.001-.792-2.014-1.499-3.029C34.745.917 32.285 0 29.728 0c-.747 0-1.498.077-2.243.222" id="6qovrdkmio"/>
        <path d="M17.758.352c-3.802.655-7.465 2.473-10.245 5.173-.428.414-.838.847-1.227 1.295-3.147 3.622-5.027 8.24-5.742 13.059a31.124 31.124 0 0 0-.222 7.114c.078.961.201 1.92.365 2.868.743 4.335 2.336 8.515 4.624 12.266 2.446 4.015 5.687 7.541 9.526 10.238 1.671 1.175 4.47 2.461 7.835 3.582 5.154 1.718 11.635 3.042 17.414 2.964 2.885-.04 5.596-.429 7.88-1.294 3.346-1.267 5.775-3.552 6.502-7.254.698-3.571-.533-7.128-2.054-10.312a76.61 76.61 0 0 0-1.478-2.897l-6.455-12.15c-1.711-3.22-3.422-6.44-5.13-9.658-2.321-4.369-4.817-8.922-8.64-11.93a16.808 16.808 0 0 0-1.783-1.22C26.482.745 23.708.077 20.896.077c-1.047 0-2.097.094-3.138.274" id="6zq7soyuqq"/>
        <path id="pyefolkvws" d="M0 .176h125.885v466.176H0z"/>
        <path d="M75.852.207c-.438 0-.875.004-1.314.013-12.11.228-24.168 3.33-35.057 9.285a75.923 75.923 0 0 0-18.224 13.928A75.775 75.775 0 0 0 8.18 41.779C2.506 52.96-.203 65.23.03 77.446c.244 12.831 3.732 25.601 10.438 36.98A75.921 75.921 0 0 0 23.29 130.62a76.178 76.178 0 0 0 9 7.42 75.545 75.545 0 0 0 25.12 11.493 76.36 76.36 0 0 0 20.003 2.273c12.244-.232 24.43-3.398 35.408-9.478a75.916 75.916 0 0 0 17.875-13.735c5.483-5.685 9.9-12 13.257-18.703 5.55-11.083 8.2-23.225 7.97-35.313a76.006 76.006 0 0 0-3.03-19.864 75.266 75.266 0 0 0-12.459-24.616 76.373 76.373 0 0 0-7.77-8.693A76.007 76.007 0 0 0 111.961 9.23C100.776 3.22 88.417.22 76.067.207h-.215z" id="wh8eju718u"/>
        <path d="M10.83.093C7.598.337 4.574 1.846 2.58 4.216a10.475 10.475 0 0 0-2.225 4.42 10.144 10.144 0 0 0 .279 5.468 10.545 10.545 0 0 0 2.377 3.918c.479.507 1.01.968 1.58 1.38 2.556 1.852 5.883 2.638 9.083 2.15a12.152 12.152 0 0 0 4.563-1.661 11.374 11.374 0 0 0 2.734-2.353c.447-.53.84-1.096 1.175-1.694a10.18 10.18 0 0 0 1.283-4.336 10.22 10.22 0 0 0-1.159-5.37 11.023 11.023 0 0 0-3.31-3.788A12.072 12.072 0 0 0 15.693.682a12.433 12.433 0 0 0-3.906-.626c-.317 0-.637.011-.957.037" id="mm16zeje0w"/>
        <path d="M49.889 3.384c-9.013 2.973-17.637 7.59-25.324 13.233a66.392 66.392 0 0 0-9.891 8.894 60.62 60.62 0 0 0-7.719 10.587C4.005 41.258 1.828 46.922.741 52.94c-2.634 14.622 1.802 31.303 12.537 41.49 2.287 2.168 4.83 3.998 7.584 5.4 6.237 3.17 13.398 4.214 19.992 3.044 5.364-.955 10.352-3.372 14.154-7.304 3.262-3.37 5.146-7.646 6.267-12.334 2.456-10.26 1.912-22.367 8.979-29.332 6.277-6.186 19.331-6.024 26.032-11.843 5.712-4.958 8.611-13.224 6.376-21.085-1.454-5.106-4.765-9.799-9.027-13.41-4.248-3.599-9.442-6.125-14.679-6.91A59.471 59.471 0 0 0 70.17 0v.001C63 0 56.21 1.298 49.89 3.384" id="rh5n5xlfiy"/>
        <path d="M22.369 27.86c.485 3.297.705 6.575.581 9.785-.401 10.407-3.35 19.539-8.35 27.739C11.967 69.7 8.765 73.76 5.065 77.61a54.98 54.98 0 0 0-.995 1.056c-.918 1.002-1.79 2.048-2.476 3.138-1.099 1.75-1.717 3.615-1.273 5.601.15.667.418 1.343.827 2.036 1.221 2.068 3.448 2.645 5.605 2.384a8.642 8.642 0 0 0 2.578-.717c2.427-1.12 3.973-3.565 5.508-5.77a59.202 59.202 0 0 0 1.759-2.675c4.588-7.414 7.938-16.322 9.753-25.004.939-4.484 1.47-8.905 1.55-13.03a61.62 61.62 0 0 0-.184-5.875c-.595-7.84-2.561-16.943-5.708-24.776-2.247-5.59-5.095-10.53-8.476-13.898 3.855 8.653 7.44 18.295 8.836 27.78" id="1lfm4imwgA"/>
        <path d="M57.966.108a83.217 83.217 0 0 0-7.804.802c-10.384 1.536-22.324 5.01-32.454 9.936C10.477 14.361 4.168 18.614 0 23.424c11.16-5.944 23.66-11.62 36.16-14.376 4.344-.957 8.688-1.563 12.975-1.703 13.895-.455 26.333 2.59 37.724 8.45 5.997 3.087 11.704 6.952 17.18 11.5.491.408.994.818 1.5 1.22 1.42 1.124 2.895 2.183 4.413 2.991 2.431 1.29 4.974 1.937 7.58 1.154.869-.26 1.748-.68 2.63-1.29 2.64-1.82 3.197-4.832 2.645-7.67a11.524 11.524 0 0 0-1.195-3.353c-1.722-3.117-5.122-4.937-8.204-6.768a79.465 79.465 0 0 0-3.73-2.08C99.372 6.111 87.195 2.51 75.466.926 70.937.313 66.476 0 62.216 0c-1.441 0-2.86.037-4.25.108" id="q2tjpcirwC"/>
        <path d="M13.47 6.457C7.48 9.937 2.503 15.116.763 21.937-2.969 36.577 7.875 54.701 14.11 69.861c.198.48.392.959.578 1.431 3.774 9.535 6.126 22.67 10.422 33.775 3.032 7.83 7.033 14.651 13.181 18.494a41.222 41.222 0 0 0 8.95 4.174c6.818 2.242 14.21 2.793 21.385 1.768a48.844 48.844 0 0 0 13.394-3.909c5.273-2.411 10.072-5.709 14.293-9.652 7.013-6.553 12.387-14.818 15.717-23.787 3.469-9.338 4.6-19.402 3.645-29.293-1.023-10.544-4.417-20.897-9.888-29.969-4.062-6.736-9.268-12.77-15.493-17.656C85.127 11.185 78.4 7.715 70.928 5.114 62.036 2.018 52.083.154 42.44.008 42.031.002 41.62 0 41.21 0 31 0 21.21 1.957 13.469 6.457" id="znnzm5ekiE"/>
        <path id="okzrnwalfG" d="M.128.149h38.559v161.79H.128z"/>
        <path d="M27.014 0c-3.45.025-6.434.792-9.019 2.003-4.176 1.957-7.307 5.076-9.656 8.09a50.91 50.91 0 0 0-2.82 4.044C3.1 17.939 1.504 22.603.684 27.113a40.626 40.626 0 0 0-.64 5.873c-.35 10.701 1.381 20.365 4.614 29.76C7.92 72.21 12.7 81.4 18.412 91.107l.378.641c3.646 6.164 8.901 13.608 12.066 20.969 1.806 4.194 2.666 8.098 2.693 11.78.028 3.573-.729 6.937-2.166 10.155 4.32-.363 8.643-.725 12.965-1.086l13.33-1.116 10.104-.847c-3.922-1.13-7.682-3.07-11.19-5.57-11.294-8.053-19.97-21.924-22.962-33.291-.521-1.975-.867-3.875-1.029-5.657-1-11.123 1.163-18.96 4.258-26.112 2.688-6.212 6.079-11.906 8.71-18.786 2.149-5.618 4.07-11.475 4.107-17.219.016-2.434-.437-6.172-1.54-8.856-1.462-3.563-2.583-6.317-5.796-9.623C39.86 3.936 37.616 2.605 32.9.95 31.105.318 29.168 0 27.14 0h-.127" id="9wrfw2dd4I"/>
    </defs>
    <g fill="none" fill-rule="evenodd">
        <mask id="swlcjepr6b" fill="#fff">
            <use xlink:href="#4w5svafc9a"/>
        </mask>
        <use fill="#4361EE" xlink:href="#4w5svafc9a"/>
        <g mask="url(#swlcjepr6b)">
            <path d="M706.21 139.234a.801.801 0 0 1-.367-.091c-9.186-4.815-15.902-11.455-19.964-19.733-3.619-7.378-4.933-15.854-3.804-24.514 1.84-14.086 9.189-27.944 16.299-41.346 1.16-2.19 2.36-4.452 3.52-6.688 8.047-15.499 15.102-31.999 12.275-47.653-3.965-21.962-24.946-40.41-47.158-59.943-10.122-8.902-20.59-18.106-29.465-27.774a.784.784 0 0 1 .049-1.11.795.795 0 0 1 1.114.049c8.82 9.608 19.257 18.784 29.349 27.66 22.422 19.717 43.602 38.34 47.664 60.842 2.911 16.114-4.252 32.905-12.426 48.65a789.996 789.996 0 0 1-3.46 6.57l-.067.128c-7.044 13.282-14.327 27.014-16.129 40.817-1.09 8.353.175 16.522 3.658 23.623 3.911 7.973 10.399 14.376 19.282 19.034a.773.773 0 0 1 .384.461c.063.2.044.413-.054.598a.79.79 0 0 1-.7.42" fill="#FFF"/>
            <g transform="translate(637 -90.201)">
                <mask id="6rf7hhxqid" fill="#fff">
                    <use xlink:href="#nyev9ms7jc"/>
                </mask>
                <path d="M1.128.716a.45.45 0 0 0-.305.118.446.446 0 0 0-.028.632c8.862 9.653 19.322 18.853 29.438 27.748 22.261 19.573 43.284 38.058 47.27 60.137 2.845 15.752-4.233 32.316-12.307 47.867a826.54 826.54 0 0 1-3.495 6.637c-7.123 13.429-14.46 27.26-16.29 41.285-1.121 8.595.183 17.006 3.772 24.325 4.029 8.212 10.697 14.8 19.818 19.582a.462.462 0 0 0 .608-.189.443.443 0 0 0-.186-.605c-8.95-4.69-15.486-11.144-19.43-19.182-3.512-7.161-4.787-15.395-3.688-23.816 1.808-13.86 9.107-27.62 16.163-40.925l.07-.133c1.163-2.193 2.333-4.398 3.459-6.568 8.145-15.691 15.284-32.42 12.392-48.436-4.042-22.386-25.179-40.97-47.556-60.649C20.732 19.662 10.29 10.479 1.458.859a.448.448 0 0 0-.33-.143m68.083 229.055a1.14 1.14 0 0 1-.525-.128c-9.251-4.85-16.018-11.54-20.11-19.884-3.65-7.437-4.975-15.98-3.836-24.706 1.846-14.145 9.21-28.03 16.332-41.46a775.4 775.4 0 0 0 3.52-6.685c8.02-15.445 15.053-31.884 12.244-47.437-3.946-21.848-24.882-40.258-47.048-59.75-10.131-8.91-20.606-18.12-29.493-27.8A1.119 1.119 0 0 1 .366.334a1.136 1.136 0 0 1 1.592.07c8.809 9.594 19.236 18.763 29.32 27.63C53.75 47.796 74.971 66.46 79.056 89.075c2.928 16.213-4.257 33.067-12.458 48.864a779.077 779.077 0 0 1-3.43 6.514l-.1.187c-7.03 13.257-14.298 26.96-16.09 40.703-1.083 8.287.17 16.39 3.625 23.433 3.877 7.907 10.315 14.259 19.134 18.881a1.114 1.114 0 0 1 .471 1.516 1.124 1.124 0 0 1-.997.598" fill="#FFF" mask="url(#6rf7hhxqid)"/>
            </g>
            <g transform="translate(646.95 -98)">
                <mask id="bbwbec211f" fill="#fff">
                    <use xlink:href="#otwivlb1fe"/>
                </mask>
                <path d="M0 0c6.004 6.684 13.034 13.438 20.468 20.245 12.553 11.496 26.264 23.156 38.145 34.932 10.768 10.669 20.034 21.432 25.584 32.255 2.1 4.096 3.707 8.144 4.885 12.152 3.183 10.831 3.242 21.384 1.468 31.897-2.055 12.175-9.563 21.564-14.53 33.988-.72 1.803-1.45 3.612-2.182 5.427-2.51 6.217-3.09 12.783-2.058 19.243.009.063.01.115.029.184.827 4.916 5.474 10.943 10.16 13.845 3.653 2.26 8.027 3.774 12.42 4.32 3.277.407 6.482.567 9.58.447 6.785-.263 13.037-1.874 18.32-5.2 6.405-4.032 11.383-10.583 14.158-20.295.198-.694.385-1.402.56-2.13 2.74-11.359 1.456-22.35-1.735-33.15-2.481-8.396-6.116-16.678-9.903-24.928-.689-1.5-1.404-2.98-2.143-4.448-7.576-15.048-17.686-28.516-28.058-42.787a922.902 922.902 0 0 1-4.022-5.567C83.58 59.87 78.72 49.634 78.93 38.913c.143-7.354 2.67-14.938 8.342-23.009-11.301.223-20.81-.624-29.49-2.075-10.884-1.82-20.463-4.592-30.64-7.394C18.837 4.144 10.133 1.835 0 0z" fill="#F297CD" mask="url(#bbwbec211f)"/>
            </g>
            <g>
                <path d="M799.905 79.578a.789.789 0 0 1-.776-.937c6.894-36.833-25.474-75.982-36.108-88.846-10.695-12.934-18.843-26.457-22.94-38.081-1.986-5.64-2.591-10.273-1.902-14.587.878-5.488 3.987-10.394 8.754-13.81a.781.781 0 0 1 .586-.137.784.784 0 0 1 .515.319.781.781 0 0 1 .138.59.782.782 0 0 1-.319.514c-4.422 3.17-7.305 7.706-8.115 12.773-.647 4.042-.065 8.43 1.831 13.81 4.038 11.451 12.088 24.804 22.667 37.6 10.753 13.006 43.476 52.584 36.445 90.148a.79.79 0 0 1-.776.644" fill="#FFF"/>
                <g transform="translate(737.566 -77.17)">
                    <mask id="1xk6ip9qdh" fill="#fff">
                        <use xlink:href="#erwh7bu5zg"/>
                    </mask>
                    <path d="M9.824.679a.44.44 0 0 0-.257.083C4.872 4.125 1.81 8.952.947 14.352c-.68 4.253-.08 8.835 1.887 14.418 4.087 11.589 12.212 25.076 22.88 37.978 10.662 12.895 43.105 52.135 36.183 89.126a.448.448 0 0 0 .36.526l.082.009a.449.449 0 0 0 .442-.368c7.002-37.406-25.643-76.89-36.369-89.867C15.805 53.347 7.736 39.958 3.685 28.47c-1.916-5.436-2.503-9.876-1.847-13.976.823-5.159 3.754-9.775 8.252-12.995a.45.45 0 0 0-.266-.82M62.34 157.088a1.12 1.12 0 0 1-.932-.492 1.133 1.133 0 0 1-.178-.847c6.867-36.678-25.424-75.733-36.035-88.569C14.475 54.22 6.307 40.657 2.196 28.996.19 23.303-.42 18.616.278 14.243 1.17 8.665 4.328 3.68 9.172.21c.24-.175.537-.245.835-.196a1.13 1.13 0 0 1 .476 2.035C6.135 5.166 3.302 9.623 2.507 14.6c-.637 3.985-.059 8.319 1.816 13.644C8.347 39.658 16.378 52.975 26.931 65.74c10.78 13.037 43.576 52.708 36.518 90.426a1.131 1.131 0 0 1-1.11.922" fill="#FFF" mask="url(#1xk6ip9qdh)"/>
                </g>
                <path d="M754.273 103.892c3.99-8.671-2.11-14.083-7.665-15.724-4.637-.892-16.52.922-16.762 11.143-5.03-3.934-7.15-10.971-4.38-20.647 3.018-10.811 15.333-18.948 25.907-16.695 10.027 1.706 17.863 11.916 17.12 21.361.453 9.303-4.661 17.274-14.22 20.562" fill="#FFF"/>
                <path d="M728.31 97.914s4.387 5.404 12.53 6.79c9.01 1.535 14.597-1.194 14.597-1.194s3.013-5.534 2.792-10.351c-.183-3.991-3.546-12.4-12.573-13.95-10.024-1.723-14.57 5.28-16.093 9.33-1.7 4.515-1.254 9.375-1.254 9.375" fill="#000"/>
            </g>
        </g>
        <g mask="url(#swlcjepr6b)">
            <g transform="translate(26.138 123.976)">
                <mask id="an4nk6hfej" fill="#fff">
                    <use xlink:href="#w1z3wjqusi"/>
                </mask>
                <path d="M15.402.141c-4.53.36-8.768 2.56-11.569 6.016A15.575 15.575 0 0 0 .718 12.6a15.361 15.361 0 0 0 .392 7.98 15.571 15.571 0 0 0 3.332 5.714 16.028 16.028 0 0 0 2.214 2.012c3.583 2.703 8.244 3.846 12.731 3.137a16.618 16.618 0 0 0 6.395-2.428 16.121 16.121 0 0 0 3.833-3.43 15.64 15.64 0 0 0 1.643-2.468 15.275 15.275 0 0 0 1.798-6.325c.161-2.69-.4-5.41-1.622-7.833a15.912 15.912 0 0 0-4.64-5.524 16.543 16.543 0 0 0-4.58-2.432 16.774 16.774 0 0 0-5.473-.916c-.443 0-.89.019-1.34.053" fill="#FFF" mask="url(#an4nk6hfej)"/>
            </g>
            <g fill="#F297CD">
                <path d="M55.972 440.892h-.026a.943.943 0 0 1-.942-.91c-1.135-30.16 8.6-58.739 28.147-82.642 3.935-4.813 8.101-9.68 12.13-14.388l.02-.026c16.873-19.717 34.32-40.104 40.65-62.917 10.01-36.083-8.911-70.163-27.207-103.12l-1.375-2.477c-19.485-35.13-35.127-72.578-17.812-108.4a.943.943 0 1 1 1.695.824c-16.94 35.044-1.474 71.972 17.761 106.657l1.375 2.476c18.482 33.291 37.595 67.715 27.377 104.547-6.44 23.216-24.028 43.767-41.033 63.643-4.035 4.713-8.197 9.58-12.125 14.381-19.252 23.541-28.838 51.678-27.719 81.372a.944.944 0 0 1-.251.677.929.929 0 0 1-.656.303h-.01z"/>
                <path d="M214.586 308.198h-.005a.95.95 0 0 1-.937-.96c.4-26.682-12.551-54.635-38.497-83.076-7.485-8.21-15.578-16.125-23.404-23.78l-.017-.02c-14.17-13.86-28.823-28.193-40.455-44.81-9.616-13.732-16.408-28.858-19.641-43.742-3.69-16.981-2.64-32.649 3.117-46.563a.942.942 0 1 1 1.74.724c-5.608 13.552-6.622 28.84-3.017 45.438 3.18 14.64 9.869 29.528 19.34 43.055 11.535 16.475 26.123 30.745 40.23 44.547 7.85 7.68 15.968 15.62 23.497 23.875 26.28 28.809 39.398 57.2 38.99 84.38a.949.949 0 0 1-.941.932"/>
            </g>
            <g transform="translate(27.498 206.185)">
                <mask id="sayyvryo0l" fill="#fff">
                    <use xlink:href="#mdwsgs1hjk"/>
                </mask>
                <path d="M38.01 5.29c-5.05 3.12-9.227 7.512-11.712 12.896-2.128 4.618-2.574 9.553-2.118 14.577.997 10.997 5.616 22.57.885 32.241-4.2 8.59-17.322 13.766-22.071 22.17-4.048 7.161-4.166 16.4.72 23.145 3.173 4.38 8.067 7.598 13.55 9.378 5.465 1.77 11.512 2.108 17.02.734a65.535 65.535 0 0 0 5.023-1.468c8.838-2.965 16.506-7.613 23.154-13.062 8.022-6.581 15.1-14.602 20.896-23.239a76.813 76.813 0 0 0 6.907-12.704c1.832-4.318 3.257-8.844 4.162-13.466 1.216-6.232 1.487-12.638.548-18.946C92.69 22.226 82.63 7.79 68.457 2.251 65.438 1.073 62.276.33 59.047.091A33.078 33.078 0 0 0 56.59 0c-6.518 0-13.066 1.887-18.58 5.29" fill="#FA6A00" mask="url(#sayyvryo0l)"/>
            </g>
            <g transform="translate(-46 40)">
                <mask id="20z31upp4n" fill="#fff">
                    <use xlink:href="#6k3k7g5a8m"/>
                </mask>
                <path d="M76.308 16.24C60.902 22.968 45.99 31.157 31.651 39.574c-1.223.716-2.44 1.435-3.651 2.156-1.338 6.05-4.167 12.471-7.546 19.045C12.906 75.446 2.608 90.867 0 104.591c3.91-6.543 8.657-13.464 14.124-20.356C43.497 47.179 93.55 10.809 144.812 37.182a97.642 97.642 0 0 1 10.73 6.45c16.429 11.336 11.295 32.849 24.413 48.415a29.71 29.71 0 0 0 1.778 1.927c7.539 7.522 21.26 13.237 33.203 13.64 6.604.225 13.055-1.023 18.438-4.163a28.403 28.403 0 0 0 7.229-6.03c3.395-3.95 5.702-8.778 6.937-14.02 2.035-8.655 1.152-18.448-2.593-27.31a91.833 91.833 0 0 0-1.795-3.99c-3.5-7.294-7.599-13.219-12.442-18.327-6.702-7.066-14.825-12.568-24.77-17.966a137.338 137.338 0 0 0-15.424-7.202C175.147 2.576 160.009 0 145.169 0c-17.734 0-35.042 3.678-51.832 9.533-5.74 2-11.417 4.256-17.029 6.708z" fill="#F297CD" mask="url(#20z31upp4n)"/>
            </g>
            <g transform="translate(70.468 368.372)">
                <mask id="6qaayuaejp" fill="#fff">
                    <use xlink:href="#6qovrdkmio"/>
                </mask>
                <path d="M27.485.222c-1.35.256-2.686.716-3.893 1.376-3.61 1.983-5.723 5.898-7.847 9.446a93.45 93.45 0 0 0-2.41 4.295C7.088 27.207 2.912 41.228 1.07 54.733.122 61.71-.205 68.55.125 74.88c.146 2.826.46 5.847.928 8.99 1.782 11.955 5.816 25.701 11.525 37.366 4.077 8.328 9.007 15.593 14.584 20.392-6.892-12.85-13.474-27.244-16.671-41.636-1.11-5.002-1.812-10.004-1.975-14.94-.53-16 3.007-30.321 9.8-43.437 3.58-6.908 8.064-13.477 13.335-19.783.476-.565.952-1.143 1.419-1.727 1.3-1.633 2.528-3.333 3.464-5.08 1.5-2.8 2.245-5.728 1.343-8.728-.304-1.001-.792-2.014-1.499-3.029C34.745.917 32.285 0 29.728 0c-.747 0-1.498.077-2.243.222" fill="#F297CD" mask="url(#6qaayuaejp)"/>
            </g>
            <path d="M193.484 125.012c-5.686-9.954-14.285-10.381-19.814-6.175-4.147 3.847-7.45 14.036 2.4 21.465-6.378.697-19.643-.777-25.641-8.598-7.352-6.713-8.75-27.286.92-35.902 8.749-8.48 24.29-8.856 33.024-1.49 9.441 6.109 12.632 19.16 9.111 30.7" fill="#FFF"/>
            <path d="M170.857 140.44s11.007 1.075 17.042-5.027c6.937-7.011 6.659-15.236 6.659-15.236s-3.323-6.358-7.758-9.292c-3.671-2.432-13.338-4.868-20.563 2.253-8.022 7.912-4.73 16.56-2.111 20.566 2.921 4.464 6.731 6.736 6.731 6.736" fill="#000"/>
        </g>
        <g mask="url(#swlcjepr6b)">
            <g transform="translate(1360 341)">
                <mask id="qzow9wwkbr" fill="#fff">
                    <use xlink:href="#6zq7soyuqq"/>
                </mask>
                <path d="M17.758.352c-3.802.655-7.465 2.473-10.245 5.173-.428.414-.838.847-1.227 1.295-3.147 3.622-5.027 8.24-5.742 13.059a31.124 31.124 0 0 0-.222 7.114c.078.961.201 1.92.365 2.868.743 4.335 2.336 8.515 4.624 12.266 2.446 4.015 5.687 7.541 9.526 10.238 1.671 1.175 4.47 2.461 7.835 3.582 5.154 1.718 11.635 3.042 17.414 2.964 2.885-.04 5.596-.429 7.88-1.294 3.346-1.267 5.775-3.552 6.502-7.254.698-3.571-.533-7.128-2.054-10.312a76.61 76.61 0 0 0-1.478-2.897l-6.455-12.15c-1.711-3.22-3.422-6.44-5.13-9.658-2.321-4.369-4.817-8.922-8.64-11.93a16.808 16.808 0 0 0-1.783-1.22C26.482.745 23.708.077 20.896.077c-1.047 0-2.097.094-3.138.274" fill="#FF7D00" mask="url(#qzow9wwkbr)"/>
            </g>
            <path d="M1310.615 527.053a.7.7 0 0 1-.574-.288c-7.947-11.374-14.374-22.687-19.106-33.624-4.49-10.38-7.594-20.75-9.226-30.821-1.534-9.478-1.814-19.005-.83-28.318.914-8.658 2.955-17.44 6.065-26.1 5.371-14.961 14.128-30.253 26.771-46.754 11.17-14.573 23.921-28.292 36.255-41.557l.01-.01c14.026-15.087 27.274-29.336 37.388-43.814 18.003-25.772 21.894-68.776 10.152-112.234-5.846-21.636-15.272-42.072-27.26-59.096-13.138-18.659-28.77-32.712-46.462-41.767a.645.645 0 0 1-.328-.381.595.595 0 0 1 .058-.485.673.673 0 0 1 .411-.303.736.736 0 0 1 .52.054c17.891 9.156 33.687 23.349 46.949 42.185 12.071 17.143 21.56 37.712 27.443 59.484 11.83 43.788 7.872 87.178-10.332 113.235-10.167 14.554-23.447 28.838-37.508 43.961-25.052 26.946-50.955 54.806-62.842 87.958-13.513 37.682-5.982 76.18 23.021 117.692a.613.613 0 0 1-.2.881.741.741 0 0 1-.375.102" fill="#FFF"/>
            <g transform="translate(1280 61)">
                <mask id="don76x2srt" fill="#fff">
                    <use xlink:href="#pyefolkvws"/>
                </mask>
                <path d="M44.13.774c-.036 0-.075 0-.111.015a.37.37 0 0 0-.227.166.3.3 0 0 0-.03.247.347.347 0 0 0 .176.203c17.737 9.077 33.405 23.162 46.572 41.86 12.008 17.056 21.45 37.523 27.305 59.192 11.762 43.538 7.855 86.638-10.196 112.479-10.125 14.496-23.381 28.752-37.414 43.846-12.341 13.274-25.089 26.985-36.247 41.547C21.334 316.802 12.591 332.069 7.231 347c-3.102 8.641-5.137 17.4-6.05 26.034-.98 9.282-.7 18.784.83 28.238 1.626 10.049 4.723 20.394 9.204 30.752 4.723 10.919 11.142 22.215 19.076 33.571.112.157.36.207.54.099a.331.331 0 0 0 .158-.214.308.308 0 0 0-.05-.242C1.876 423.642-5.665 385.057 7.881 347.28c11.909-33.212 37.834-61.096 62.904-88.06 14.055-15.116 27.327-29.392 37.482-43.93 18.154-25.987 22.096-69.283 10.288-112.99-5.872-21.738-15.347-42.274-27.399-59.39C77.923 24.116 62.165 9.955 44.32.82a.41.41 0 0 0-.19-.046M30.616 466.352c-.332 0-.641-.156-.825-.417-7.96-11.392-14.396-22.722-19.137-33.678-4.5-10.402-7.61-20.794-9.245-30.891-1.54-9.507-1.82-19.06-.833-28.394.916-8.68 2.962-17.485 6.08-26.17 5.383-14.99 14.153-30.31 26.817-46.833 11.175-14.584 23.933-28.306 36.269-41.576 14.032-15.092 27.274-29.334 37.374-43.795 17.956-25.702 21.828-68.612 10.11-111.987-5.837-21.603-15.248-42.006-27.216-59.004-13.11-18.62-28.705-32.64-46.353-41.673a.941.941 0 0 1-.478-.558.895.895 0 0 1 .087-.723.976.976 0 0 1 .593-.44c.25-.068.515-.037.743.077 17.933 9.179 33.765 23.404 47.056 42.28 12.091 17.172 21.597 37.774 27.487 59.577 11.852 43.87 7.877 87.355-10.374 113.48-10.18 14.573-23.468 28.864-37.534 43.993-25.03 26.923-50.914 54.762-62.781 87.858-13.477 37.585-5.959 75.995 22.986 117.422.145.211.195.46.142.706a.927.927 0 0 1-.436.6 1.039 1.039 0 0 1-.532.146" fill="#FFF" mask="url(#don76x2srt)"/>
            </g>
            <g transform="translate(1329 -60)">
                <mask id="7o5xtede3v" fill="#fff">
                    <use xlink:href="#wh8eju718u"/>
                </mask>
                <path d="M75.852.207c-.438 0-.875.004-1.314.013-12.11.228-24.168 3.33-35.057 9.285a75.923 75.923 0 0 0-18.224 13.928A75.775 75.775 0 0 0 8.18 41.779C2.506 52.96-.203 65.23.03 77.446c.244 12.831 3.732 25.601 10.438 36.98A75.921 75.921 0 0 0 23.29 130.62a76.178 76.178 0 0 0 9 7.42 75.545 75.545 0 0 0 25.12 11.493 76.36 76.36 0 0 0 20.003 2.273c12.244-.232 24.43-3.398 35.408-9.478a75.916 75.916 0 0 0 17.875-13.735c5.483-5.685 9.9-12 13.257-18.703 5.55-11.083 8.2-23.225 7.97-35.313a76.006 76.006 0 0 0-3.03-19.864 75.266 75.266 0 0 0-12.459-24.616 76.373 76.373 0 0 0-7.77-8.693A76.007 76.007 0 0 0 111.961 9.23C100.776 3.22 88.417.22 76.067.207h-.215z" fill="#F297CD" mask="url(#7o5xtede3v)"/>
            </g>
            <g transform="translate(1323 371)">
                <mask id="1y3z7chugx" fill="#fff">
                    <use xlink:href="#mm16zeje0w"/>
                </mask>
                <path d="M10.83.093C7.598.337 4.574 1.846 2.58 4.216a10.475 10.475 0 0 0-2.225 4.42 10.144 10.144 0 0 0 .279 5.468 10.545 10.545 0 0 0 2.377 3.918c.479.507 1.01.968 1.58 1.38 2.556 1.852 5.883 2.638 9.083 2.15a12.152 12.152 0 0 0 4.563-1.661 11.374 11.374 0 0 0 2.734-2.353c.447-.53.84-1.096 1.175-1.694a10.18 10.18 0 0 0 1.283-4.336 10.22 10.22 0 0 0-1.159-5.37 11.023 11.023 0 0 0-3.31-3.788A12.072 12.072 0 0 0 15.693.682a12.433 12.433 0 0 0-3.906-.626c-.317 0-.637.011-.957.037" fill="#FF7D00" mask="url(#1y3z7chugx)"/>
            </g>
            <g transform="translate(1304.153 403.195)">
                <mask id="3076j2y3hz" fill="#fff">
                    <use xlink:href="#rh5n5xlfiy"/>
                </mask>
                <path d="M49.889 3.384c-9.013 2.973-17.637 7.59-25.324 13.233a66.392 66.392 0 0 0-9.891 8.894 60.62 60.62 0 0 0-7.719 10.587C4.005 41.258 1.828 46.922.741 52.94c-2.634 14.622 1.802 31.303 12.537 41.49 2.287 2.168 4.83 3.998 7.584 5.4 6.237 3.17 13.398 4.214 19.992 3.044 5.364-.955 10.352-3.372 14.154-7.304 3.262-3.37 5.146-7.646 6.267-12.334 2.456-10.26 1.912-22.367 8.979-29.332 6.277-6.186 19.331-6.024 26.032-11.843 5.712-4.958 8.611-13.224 6.376-21.085-1.454-5.106-4.765-9.799-9.027-13.41-4.248-3.599-9.442-6.125-14.679-6.91A59.471 59.471 0 0 0 70.17 0v.001C63 0 56.21 1.298 49.89 3.384" fill="#F297CD" mask="url(#3076j2y3hz)"/>
            </g>
            <g transform="translate(1360 171)">
                <mask id="pm95ezsehB" fill="#fff">
                    <use xlink:href="#1lfm4imwgA"/>
                </mask>
                <path d="M22.369 27.86c.485 3.297.705 6.575.581 9.785-.401 10.407-3.35 19.539-8.35 27.739C11.967 69.7 8.765 73.76 5.065 77.61a54.98 54.98 0 0 0-.995 1.056c-.918 1.002-1.79 2.048-2.476 3.138-1.099 1.75-1.717 3.615-1.273 5.601.15.667.418 1.343.827 2.036 1.221 2.068 3.448 2.645 5.605 2.384a8.642 8.642 0 0 0 2.578-.717c2.427-1.12 3.973-3.565 5.508-5.77a59.202 59.202 0 0 0 1.759-2.675c4.588-7.414 7.938-16.322 9.753-25.004.939-4.484 1.47-8.905 1.55-13.03a61.62 61.62 0 0 0-.184-5.875c-.595-7.84-2.561-16.943-5.708-24.776-2.247-5.59-5.095-10.53-8.476-13.898 3.855 8.653 7.44 18.295 8.836 27.78" fill="#FFF" mask="url(#pm95ezsehB)"/>
            </g>
        </g>
        <g mask="url(#swlcjepr6b)">
            <g transform="translate(140 361)">
                <mask id="g6g5vnmo2D" fill="#fff">
                    <use xlink:href="#q2tjpcirwC"/>
                </mask>
                <path d="M57.966.108a83.217 83.217 0 0 0-7.804.802c-10.384 1.536-22.324 5.01-32.454 9.936C10.477 14.361 4.168 18.614 0 23.424c11.16-5.944 23.66-11.62 36.16-14.376 4.344-.957 8.688-1.563 12.975-1.703 13.895-.455 26.333 2.59 37.724 8.45 5.997 3.087 11.704 6.952 17.18 11.5.491.408.994.818 1.5 1.22 1.42 1.124 2.895 2.183 4.413 2.991 2.431 1.29 4.974 1.937 7.58 1.154.869-.26 1.748-.68 2.63-1.29 2.64-1.82 3.197-4.832 2.645-7.67a11.524 11.524 0 0 0-1.195-3.353c-1.722-3.117-5.122-4.937-8.204-6.768a79.465 79.465 0 0 0-3.73-2.08C99.372 6.111 87.195 2.51 75.466.926 70.937.313 66.476 0 62.216 0c-1.441 0-2.86.037-4.25.108" fill="#FF7D00" mask="url(#g6g5vnmo2D)"/>
            </g>
            <path d="m255.766 521.462-1.211-.64 12.968-22.954c6.815-12.954 13.865-26.352 17.345-42.234 4.618-21.07 4.477-42.004-.394-58.944-5.13-17.826-14.925-29.914-28.33-34.958a.685.685 0 1 1 .485-1.281c13.821 5.199 23.905 17.599 29.158 35.86 4.936 17.156 5.084 38.33.416 59.62-3.52 16.063-10.612 29.543-17.472 42.578l-12.965 22.953z" fill="#F297CD"/>
            <g transform="translate(148 384)">
                <mask id="e4xwbf6ixF" fill="#fff">
                    <use xlink:href="#znnzm5ekiE"/>
                </mask>
                <path d="M13.47 6.457C7.48 9.937 2.503 15.116.763 21.937-2.969 36.577 7.875 54.701 14.11 69.861c.198.48.392.959.578 1.431 3.774 9.535 6.126 22.67 10.422 33.775 3.032 7.83 7.033 14.651 13.181 18.494a41.222 41.222 0 0 0 8.95 4.174c6.818 2.242 14.21 2.793 21.385 1.768a48.844 48.844 0 0 0 13.394-3.909c5.273-2.411 10.072-5.709 14.293-9.652 7.013-6.553 12.387-14.818 15.717-23.787 3.469-9.338 4.6-19.402 3.645-29.293-1.023-10.544-4.417-20.897-9.888-29.969-4.062-6.736-9.268-12.77-15.493-17.656C85.127 11.185 78.4 7.715 70.928 5.114 62.036 2.018 52.083.154 42.44.008 42.031.002 41.62 0 41.21 0 31 0 21.21 1.957 13.469 6.457" fill="#FF7D00" mask="url(#e4xwbf6ixF)"/>
            </g>
        </g>
        <g mask="url(#swlcjepr6b)">
            <path d="M1151.013 481.663c.21 0 .387-.151.421-.361 1.185-7.156 6.214-12.731 11.539-18.633 3.017-3.346 6.137-6.803 8.467-10.563 7.396-11.929 6.322-26.168 4.12-36.012-1.7-7.598-4.477-15.06-7.163-22.274l-.004-.008c-1.56-4.192-3.174-8.526-4.556-12.836-4.662-14.527-5.458-25.927-2.509-35.871 1.745-5.878 5.23-11.45 9.813-15.695 4.94-4.572 10.846-7.382 17.081-8.124a.434.434 0 0 0-.1-.86c-6.414.764-12.486 3.65-17.558 8.345-4.697 4.349-8.268 10.06-10.055 16.085-3.003 10.122-2.205 21.685 2.514 36.387 1.39 4.336 3.007 8.679 4.57 12.88 2.679 7.189 5.446 14.622 7.133 22.162 2.167 9.686 3.23 23.682-4.01 35.36-2.29 3.694-5.383 7.123-8.374 10.438-5.175 5.738-10.526 11.668-11.752 19.077a.435.435 0 0 0 .352.498.29.29 0 0 0 .07.005z" fill="#FFF"/>
            <g transform="matrix(-1 0 0 1 1189 320)">
                <mask id="wshndtgrzH" fill="#fff">
                    <use xlink:href="#okzrnwalfG"/>
                </mask>
                <path d="m20.954 73.659.296.1c1.532-4.114 3.108-8.358 4.47-12.6C30.42 46.51 31.216 35 28.23 24.935c-1.773-5.978-5.317-11.645-9.977-15.96C13.223 4.317 7.203 1.455.845.698a.157.157 0 0 0-.171.139c-.011.087.05.165.135.174 6.293.75 12.25 3.584 17.232 8.196 4.621 4.277 8.133 9.895 9.89 15.818 2.968 10 2.17 21.451-2.508 36.035-1.36 4.239-2.938 8.486-4.469 12.598zm-.106.285c-2.682 7.203-5.45 14.642-7.143 22.21-2.191 9.795-3.26 23.957 4.085 35.806 2.316 3.737 5.426 7.184 8.433 10.517 5.358 5.94 10.414 11.544 11.61 18.78a.156.156 0 0 0 .154.132l.025-.001a.16.16 0 0 0 .129-.183c-1.212-7.328-6.536-13.23-11.684-18.935-3-3.328-6.1-6.765-8.402-10.478-7.29-11.758-6.223-25.832-4.045-35.568 1.67-7.469 4.395-14.823 7.045-21.94l-.238-.09.031-.25zm17.14 87.995a.7.7 0 0 1-.69-.59c-1.17-7.078-6.175-12.625-11.471-18.495-3.029-3.358-6.154-6.823-8.498-10.603-7.443-12.008-6.367-26.323-4.155-36.218 1.705-7.618 4.487-15.087 7.176-22.311 1.56-4.192 3.172-8.518 4.555-12.83 4.643-14.473 5.44-25.82 2.506-35.708-1.73-5.83-5.188-11.36-9.737-15.57C12.78 5.078 6.924 2.293.746 1.558A.708.708 0 0 1 .133.773a.7.7 0 0 1 .774-.62C7.38.926 13.506 3.835 18.62 8.57c4.732 4.38 8.33 10.137 10.13 16.208 3.02 10.178 2.222 21.792-2.513 36.55-1.395 4.348-3.014 8.692-4.576 12.892-2.676 7.182-5.44 14.605-7.121 22.126-2.157 9.635-3.215 23.556 3.975 35.155 2.276 3.67 5.36 7.09 8.342 10.396 5.204 5.77 10.581 11.73 11.82 19.219a.712.712 0 0 1-.573.814.76.76 0 0 1-.117.01z" fill="#FFF" mask="url(#wshndtgrzH)"/>
            </g>
            <g transform="matrix(-1 0 0 1 1226.943 340.01)">
                <mask id="pjzosqvv2J" fill="#fff">
                    <use xlink:href="#9wrfw2dd4I"/>
                </mask>
                <path d="M27.014 0c-3.45.025-6.434.792-9.019 2.003-4.176 1.957-7.307 5.076-9.656 8.09a50.91 50.91 0 0 0-2.82 4.044C3.1 17.939 1.504 22.603.684 27.113a40.626 40.626 0 0 0-.64 5.873c-.35 10.701 1.381 20.365 4.614 29.76C7.92 72.21 12.7 81.4 18.412 91.107l.378.641c3.646 6.164 8.901 13.608 12.066 20.969 1.806 4.194 2.666 8.098 2.693 11.78.028 3.573-.729 6.937-2.166 10.155 4.32-.363 8.643-.725 12.965-1.086l13.33-1.116 10.104-.847c-3.922-1.13-7.682-3.07-11.19-5.57-11.294-8.053-19.97-21.924-22.962-33.291-.521-1.975-.867-3.875-1.029-5.657-1-11.123 1.163-18.96 4.258-26.112 2.688-6.212 6.079-11.906 8.71-18.786 2.149-5.618 4.07-11.475 4.107-17.219.016-2.434-.437-6.172-1.54-8.856-1.462-3.563-2.583-6.317-5.796-9.623C39.86 3.936 37.616 2.605 32.9.95 31.105.318 29.168 0 27.14 0h-.127" fill="#FA6A00" mask="url(#pjzosqvv2J)"/>
            </g>
            <g>
                <path d="M1209.268 476.485a.507.507 0 0 0 .384-.834c-5.144-6.011-5.773-15.054-1.684-24.19 2.482-5.542 6.295-10.636 9.98-15.564l.024-.03c1.607-2.148 3.268-4.368 4.803-6.604.677-.986 1.409-2.023 2.182-3.123 5.034-7.146 11.929-16.932 14.752-27.957a.504.504 0 0 0-.745-.561.507.507 0 0 0-.235.31c-2.777 10.845-9.61 20.543-14.599 27.625l-.008.012c-.776 1.102-1.509 2.143-2.182 3.122-1.53 2.229-3.192 4.45-4.8 6.599-3.723 4.975-7.569 10.114-10.096 15.758-4.253 9.502-3.565 18.945 1.84 25.26a.509.509 0 0 0 .384.177" fill="#FFF"/>
                <path d="M1239.219 397.826a.234.234 0 0 1 .226.29c-2.811 10.976-9.69 20.738-14.711 27.867a328.81 328.81 0 0 0-2.185 3.125c-1.531 2.23-3.191 4.45-4.796 6.594-3.719 4.97-7.54 10.076-10.035 15.648-4.133 9.234-3.488 18.386 1.726 24.48a.232.232 0 0 1-.025.327.24.24 0 0 1-.327-.026c-5.335-6.234-6.006-15.568-1.797-24.97 2.515-5.617 6.353-10.747 10.065-15.707 1.609-2.15 3.271-4.372 4.806-6.609.667-.97 1.393-1.998 2.16-3.09 5.03-7.139 11.879-16.86 14.67-27.755a.22.22 0 0 1 .108-.141.22.22 0 0 1 .115-.033m-29.95 78.933a.781.781 0 0 0 .777-.719.773.773 0 0 0-.185-.567c-5.074-5.929-5.687-14.863-1.642-23.899 2.47-5.517 6.272-10.597 9.95-15.512 1.632-2.181 3.294-4.405 4.832-6.644.668-.972 1.387-1.994 2.15-3.075 5.076-7.208 11.988-17.019 14.824-28.091a.78.78 0 0 0-1.51-.388c-2.766 10.798-9.582 20.471-14.558 27.536-.798 1.133-1.525 2.164-2.193 3.136-1.528 2.228-3.188 4.445-4.793 6.59-3.73 4.984-7.587 10.138-10.126 15.812-4.299 9.6-3.594 19.15 1.88 25.549.15.172.365.272.594.272M1197.222 343.6c6.931 5.057 4.499 11.981.846 15.71-3.257 2.734-11.667 5.41-16.327-2.507-2.239 5.296-.73 13.48 4.575 18.583 4.355 6.011 19.626 8.81 26.959 2.398 7.144-5.74 8.844-17.196 4.128-24.284-3.712-7.504-11.222-11.514-20.181-9.9" fill="#FFF"/>
                <path d="M1180.882 359.87s.773-6.87 6.573-11.532c6.42-5.161 12.24-5.021 12.24-5.021s4.56 2.57 6.494 6.45c1.601 3.214 2.632 11.291-3.793 16.472-7.134 5.75-13.773 2.248-16.744-.263-3.31-2.797-4.77-6.107-4.77-6.107" fill="#000"/>
            </g>
        </g>
    </g>
</svg>
