<svg width="60" height="25" viewBox="0 0 60 25" xmlns="http://www.w3.org/2000/svg">
    <g fill="#4361EE" fill-rule="evenodd">
        <path d="M42.086 21.194c.038.478.22.952.545 1.42.325.469.488.827.488 1.075v.115c0 .363-.23.545-.688.545h-5.735c-.46 0-.688-.182-.688-.545v-.115c0-.23.181-.583.544-1.06.363-.479.526-.957.488-1.435l-.287-5.132c-.077-1.415-.263-2.418-.559-3.01-.297-.593-.77-.89-1.42-.89-.611 0-1.075.249-1.39.746-.315.497-.473 1.175-.473 2.035v6.251c0 .478.21.956.63 1.434.42.478.632.832.632 1.061v.115c0 .363-.23.545-.689.545h-6.193c-.46 0-.689-.182-.689-.545v-.115c0-.23.21-.583.631-1.06.42-.479.631-.957.631-1.435v-5.648c0-.402-.124-.741-.373-1.018a5.911 5.911 0 0 0-.76-.717c-.257-.2-.387-.416-.387-.645v-.086c0-.248.23-.488.688-.717l4.015-1.979c.363-.152.635-.157.817-.014.182.143.273.378.273.702v1.348c.802-1.433 2.169-2.15 4.1-2.15 1.434 0 2.667.468 3.699 1.405s1.625 2.456 1.778 4.559l.372 4.96zM52.024 23.202c.516.019.95-.191 1.304-.631.354-.44.53-1.032.53-1.778V15.26c0-.918-.262-1.744-.788-2.48s-1.123-1.104-1.792-1.104c-1.415 0-2.17 1.175-2.265 3.527-.039.898.043 1.94.243 3.125.201 1.185.545 2.29 1.033 3.312.487 1.023 1.065 1.544 1.735 1.563zm6.71-2.008c0 .478.19.952.573 1.42.382.468.573.817.573 1.046v.115c0 .364-.22.545-.66.545h-4.1c-.497 0-.745-.239-.745-.717v-.258c-.899.841-2.065 1.262-3.498 1.262-1.855 0-3.446-.636-4.775-1.907-1.328-1.271-1.992-3.025-1.992-5.262 0-2.083.668-3.799 2.007-5.147 1.338-1.347 2.934-2.021 4.788-2.021 1.166 0 2.151.268 2.954.802V7.26c0-.382-.125-.712-.373-.99a5.912 5.912 0 0 0-.76-.716c-.258-.2-.387-.416-.387-.645v-.086c0-.363.22-.612.66-.746l4.473-1.347c.84-.268 1.261-.039 1.261.688v17.777zM12.044 0c2.44 0 5.504 2.47 7.04 3.164 1.773.8 2.762 2.176 2.866 3.547.082 1.086-.219 1.88-.758 2.663-.438.636-1.322 1.209-2.837 1.209-.962 0-1.63-.3-2.152-.666-.52-.366-1.265-1.323-1.589-2.567-.187-.72-.73-3.25-.89-3.807-.149-.517-.478-1.095-.867-1.395a2.418 2.418 0 0 0-1.479-.485c-1.087 0-1.869.622-2.345 1.864-.478 1.242-.616 2.717-.416 4.424v.4h3.66c.221 0 .404.072.548.216a.745.745 0 0 1 .217.549v.732a.743.743 0 0 1-.217.549.743.743 0 0 1-.548.216h-3.66V20.66c0 .577.3 1.137.898 1.68.599.544.898.949.898 1.215v.133c0 .421-.255.632-.765.632H2.362c-.51 0-.765-.21-.765-.632v-.133c0-.266.221-.67.665-1.215.444-.543.666-1.103.666-1.68V10.613H.765A.741.741 0 0 1 0 9.848v-.732c0-.222.072-.405.216-.55a.744.744 0 0 1 .55-.215h2.162V7.02c0-2.063.826-3.748 2.478-5.057C7.058.655 9.271 0 12.044 0zm7.792 4.675c-1.055-.68-2.744-.423-3.58.622-.935 1.073-.497 3.293.399 3.921.762.768 2.112.824 2.89.494-1.177-.672-.934-1.742-.535-2.218.545-.535 1.381-.73 2.14.275.223-1.305-.2-2.56-1.314-3.094z"/>
        <path d="M23.455 21.166c0 .478.215.956.645 1.434.43.477.645.831.645 1.06v.115c0 .364-.23.545-.688.545h-6.223c-.458 0-.688-.181-.688-.545v-.115c0-.229.191-.583.574-1.06.382-.478.573-.956.573-1.434v-5.448c0-.497-.191-.98-.573-1.448-.383-.468-.574-.789-.574-.96v-.116c0-.229.22-.448.66-.659l4.358-2.122c.402-.172.717-.19.947-.057.229.134.344.354.344.66v10.15zM19.004 9.885s.923-.113 1.543-.903c.686-.876.66-1.664.66-1.664s-.351-.615-.876-.873c-.434-.213-1.522-.344-2.21.532-.766.973-.286 1.869.055 2.268.38.445.828.64.828.64"/>
    </g>
</svg>
