<svg width="462" height="51" viewBox="0 0 462 51" xmlns="http://www.w3.org/2000/svg">
    <g fill="none" fill-rule="evenodd">
        <path d="M30.822 35.733c0 .762.358 1.435 1.074 2.024.716.588 1.075 1.037 1.075 1.348v.208c0 .52-.385.778-1.153.778h-8.124c-.734 0-1.1-.259-1.1-.778v-.208c0-.31.321-.76.97-1.348.644-.589.969-1.262.969-2.024V22.139c0-.795-.325-1.539-.97-2.23-.648-.693-.97-1.142-.97-1.35v-.155c0-.277.314-.588.944-.934l5.399-2.595c.592-.241 1.056-.267 1.388-.078.331.19.498.512.498.96v19.976zM18.086 3.928c-1.678 0-3.119.796-4.324 2.387-1.206 1.59-1.809 3.65-1.809 6.173v2.699h6.867a.86.86 0 0 1 .628.26c.174.173.262.38.262.621v.83c0 .555-.297.831-.89.831h-6.867v18.004c0 .762.42 1.444 1.258 2.05.84.605 1.259 1.063 1.259 1.374v.207c0 .485-.297.727-.891.727H4.878c-.628 0-.942-.242-.942-.727v-.207c0-.31.34-.77 1.02-1.375.682-.605 1.024-1.287 1.024-2.05V17.73H1.944c-.63 0-.944-.276-.944-.83v-.831a.81.81 0 0 1 .288-.622.95.95 0 0 1 .656-.259H5.98V13.06c0-3.458 1.213-6.175 3.642-8.147 2.428-1.97 5.564-2.957 9.408-2.957 3.214 0 5.799.735 7.757 2.205 1.956 1.47 2.934 2.983 2.934 4.54 0 .692-.228 1.254-.68 1.686-.455.433-1.032.649-1.73.649-1.085 0-1.993-.372-2.726-1.116-.734-.743-1.285-1.557-1.651-2.438-.367-.882-.961-1.695-1.782-2.438-.822-.744-1.844-1.116-3.066-1.116z" fill="#FFF"/>
        <path d="M30.822 35.733c0 .762.358 1.435 1.074 2.024.716.588 1.075 1.037 1.075 1.348v.208c0 .52-.385.778-1.153.778h-8.124c-.734 0-1.1-.259-1.1-.778v-.208c0-.31.321-.76.97-1.348.644-.589.969-1.262.969-2.024V22.139c0-.795-.325-1.539-.97-2.23-.648-.693-.97-1.142-.97-1.35v-.155c0-.277.314-.588.944-.934l5.399-2.595c.592-.241 1.056-.267 1.388-.078.331.19.498.512.498.96v19.976zM18.086 3.928c-1.678 0-3.119.796-4.324 2.387-1.206 1.59-1.809 3.65-1.809 6.173v2.699h6.867a.86.86 0 0 1 .628.26c.174.173.262.38.262.621v.83c0 .555-.297.831-.89.831h-6.867v18.004c0 .762.42 1.444 1.258 2.05.84.605 1.259 1.063 1.259 1.374v.207c0 .485-.297.727-.891.727H4.878c-.628 0-.942-.242-.942-.727v-.207c0-.31.34-.77 1.02-1.375.682-.605 1.024-1.287 1.024-2.05V17.73H1.944c-.63 0-.944-.276-.944-.83v-.831a.81.81 0 0 1 .288-.622.95.95 0 0 1 .656-.259H5.98V13.06c0-3.458 1.213-6.175 3.642-8.147 2.428-1.97 5.564-2.957 9.408-2.957 3.214 0 5.799.735 7.757 2.205 1.956 1.47 2.934 2.983 2.934 4.54 0 .692-.228 1.254-.68 1.686-.455.433-1.032.649-1.73.649-1.085 0-1.993-.372-2.726-1.116-.734-.743-1.285-1.557-1.651-2.438-.367-.882-.961-1.695-1.782-2.438-.822-.744-1.844-1.116-3.066-1.116z" stroke="#FFF" stroke-width=".25"/>
        <path d="M62.373 35.733c.034.762.357 1.444.97 2.05.611.605.916 1.063.916 1.374v.207c0 .52-.385.78-1.152.78h-7.652c-.77 0-1.153-.26-1.153-.78v-.207c0-.31.322-.77.97-1.375.645-.605.951-1.287.916-2.05l-.524-10.013c-.244-5.707-2.08-8.561-5.503-8.561-1.642 0-2.97.597-3.984 1.79-1.013 1.193-1.52 2.742-1.52 4.644v12.193c0 .761.36 1.435 1.075 2.023.716.589 1.075 1.038 1.075 1.35v.206c0 .52-.385.78-1.153.78H37.53c-.734 0-1.1-.26-1.1-.78v-.207c0-.31.348-.76 1.048-1.349.699-.588 1.048-1.262 1.048-2.023V21.88c0-.657-.201-1.194-.603-1.609a7.585 7.585 0 0 0-1.18-1.012c-.384-.259-.575-.544-.575-.855v-.157c0-.344.314-.655.943-.934l5.084-2.438c.558-.241.97-.267 1.231-.078.263.19.393.529.393 1.012v3.372a7.967 7.967 0 0 1 3.197-3.32c1.398-.796 2.988-1.194 4.77-1.194 2.69 0 4.96.918 6.814 2.751 1.85 1.833 2.899 4.67 3.145 8.508l.628 9.807z" fill="#FFF"/>
        <path d="M62.373 35.733c.034.762.357 1.444.97 2.05.611.605.916 1.063.916 1.374v.207c0 .52-.385.78-1.152.78h-7.652c-.77 0-1.153-.26-1.153-.78v-.207c0-.31.322-.77.97-1.375.645-.605.951-1.287.916-2.05l-.524-10.013c-.244-5.707-2.08-8.561-5.503-8.561-1.642 0-2.97.597-3.984 1.79-1.013 1.193-1.52 2.742-1.52 4.644v12.193c0 .761.36 1.435 1.075 2.023.716.589 1.075 1.038 1.075 1.35v.206c0 .52-.385.78-1.153.78H37.53c-.734 0-1.1-.26-1.1-.78v-.207c0-.31.348-.76 1.048-1.349.699-.588 1.048-1.262 1.048-2.023V21.88c0-.657-.201-1.194-.603-1.609a7.585 7.585 0 0 0-1.18-1.012c-.384-.259-.575-.544-.575-.855v-.157c0-.344.314-.655.943-.934l5.084-2.438c.558-.241.97-.267 1.231-.078.263.19.393.529.393 1.012v3.372a7.967 7.967 0 0 1 3.197-3.32c1.398-.796 2.988-1.194 4.77-1.194 2.69 0 4.96.918 6.814 2.751 1.85 1.833 2.899 4.67 3.145 8.508l.628 9.807z" stroke="#FFF" stroke-width=".25"/>
        <path d="M80.507 38.638c1.433 0 2.717-.588 3.853-1.763 1.134-1.177 1.702-2.82 1.702-4.93v-8.3c0-1.73-.663-3.33-1.991-4.801-1.329-1.47-2.882-2.204-4.665-2.204-1.957 0-3.53.786-4.717 2.36-1.188 1.575-1.8 3.728-1.835 6.46-.069 3.632.604 6.727 2.019 9.287 1.414 2.56 3.292 3.858 5.634 3.891zm11.479-2.853c0 .76.331 1.453.995 2.075.663.623.996 1.072.996 1.35v.155c0 .485-.297.726-.892.726h-5.45c-.629 0-.978-.328-1.048-.985l-.158-1.817c-1.747 2.215-4.192 3.321-7.337 3.321-3.354 0-6.228-1.193-8.62-3.58-2.396-2.386-3.592-5.533-3.592-9.443 0-3.77 1.18-6.866 3.539-9.287 2.357-2.42 5.283-3.632 8.778-3.632 2.726 0 5.014.882 6.865 2.646V7.559c0-.655-.201-1.193-.602-1.608a6.989 6.989 0 0 0-1.205-1.012c-.403-.259-.603-.544-.603-.856v-.104c0-.448.315-.795.943-1.037l5.556-1.764c1.222-.416 1.835-.103 1.835.934v33.673z" fill="#FFF"/>
        <path d="M80.507 38.638c1.433 0 2.717-.588 3.853-1.763 1.134-1.177 1.702-2.82 1.702-4.93v-8.3c0-1.73-.663-3.33-1.991-4.801-1.329-1.47-2.882-2.204-4.665-2.204-1.957 0-3.53.786-4.717 2.36-1.188 1.575-1.8 3.728-1.835 6.46-.069 3.632.604 6.727 2.019 9.287 1.414 2.56 3.292 3.858 5.634 3.891zm11.479-2.853c0 .76.331 1.453.995 2.075.663.623.996 1.072.996 1.35v.155c0 .485-.297.726-.892.726h-5.45c-.629 0-.978-.328-1.048-.985l-.158-1.817c-1.747 2.215-4.192 3.321-7.337 3.321-3.354 0-6.228-1.193-8.62-3.58-2.396-2.386-3.592-5.533-3.592-9.443 0-3.77 1.18-6.866 3.539-9.287 2.357-2.42 5.283-3.632 8.778-3.632 2.726 0 5.014.882 6.865 2.646V7.559c0-.655-.201-1.193-.602-1.608a6.989 6.989 0 0 0-1.205-1.012c-.403-.259-.603-.544-.603-.856v-.104c0-.448.315-.795.943-1.037l5.556-1.764c1.222-.416 1.835-.103 1.835.934v33.673z" stroke="#FFF" stroke-width=".25"/>
        <g>
            <path d="M137.095 14.653c.599 0 .898.242.898.728v.207c0 .382-.335.891-1.004 1.532-.67.641-1.181 1.343-1.532 2.105l-9.99 21.508c-.635 1.42-1.172 2.546-1.611 3.377-.442.832-1.076 1.836-1.903 3.014-.83 1.177-1.77 2.06-2.829 2.65a6.944 6.944 0 0 1-3.435.883c-2.079 0-3.788-.528-5.126-1.584-1.339-1.058-2.009-2.227-2.009-3.508 0-.762.23-1.385.688-1.87.456-.485 1.091-.728 1.901-.728.775 0 1.41.286 1.904.858.492.57.836 1.212 1.03 1.923.194.708.502 1.35.926 1.92.422.573.968.858 1.637.858 1.832 0 3.805-2.58 5.92-7.74l-10.307-21.561c-.388-.762-.933-1.464-1.638-2.105-.706-.64-1.057-1.15-1.057-1.532v-.207c0-.486.317-.728.952-.728h8.35c.6 0 .9.26.9.78v.155c0 .278-.16.59-.477.936-.317.346-.538.674-.66.986-.124.312-.027.901.29 1.767l6.977 15.742 6.554-15.17c.316-1.04.316-1.758 0-2.156-.317-.399-.76-.78-1.321-1.143-.565-.365-.846-.684-.846-.962v-.155c0-.52.316-.78.951-.78h5.867z" fill="#FFF"/>
            <path d="M137.095 14.653c.599 0 .898.242.898.728v.207c0 .382-.335.891-1.004 1.532-.67.641-1.181 1.343-1.532 2.105l-9.99 21.508c-.635 1.42-1.172 2.546-1.611 3.377-.442.832-1.076 1.836-1.903 3.014-.83 1.177-1.77 2.06-2.829 2.65a6.944 6.944 0 0 1-3.435.883c-2.079 0-3.788-.528-5.126-1.584-1.339-1.058-2.009-2.227-2.009-3.508 0-.762.23-1.385.688-1.87.456-.485 1.091-.728 1.901-.728.775 0 1.41.286 1.904.858.492.57.836 1.212 1.03 1.923.194.708.502 1.35.926 1.92.422.573.968.858 1.637.858 1.832 0 3.805-2.58 5.92-7.74l-10.307-21.561c-.388-.762-.933-1.464-1.638-2.105-.706-.64-1.057-1.15-1.057-1.532v-.207c0-.486.317-.728.952-.728h8.35c.6 0 .9.26.9.78v.155c0 .278-.16.59-.477.936-.317.346-.538.674-.66.986-.124.312-.027.901.29 1.767l6.977 15.742 6.554-15.17c.316-1.04.316-1.758 0-2.156-.317-.399-.76-.78-1.321-1.143-.565-.365-.846-.684-.846-.962v-.155c0-.52.316-.78.951-.78h5.867z" stroke="#FFF" stroke-width=".25"/>
            <path d="M153.69 38.136c1.69 0 3.066-.77 4.123-2.312 1.057-1.541 1.585-3.68 1.585-6.417 0-3.67-.8-6.806-2.404-9.403-1.604-2.598-3.603-3.897-5.999-3.897-1.903 0-3.409.754-4.519 2.26-1.11 1.507-1.665 3.664-1.665 6.468 0 3.396.836 6.461 2.51 9.196 1.673 2.737 3.797 4.105 6.37 4.105m-.794 1.974c-4.333 0-7.805-1.298-10.412-3.897-2.608-2.597-3.91-5.715-3.91-9.351 0-3.637 1.268-6.667 3.805-9.092 2.538-2.423 5.636-3.636 9.303-3.636 4.086 0 7.433 1.272 10.04 3.818 2.609 2.545 3.911 5.655 3.911 9.325 0 3.638-1.18 6.685-3.54 9.144-2.36 2.46-5.426 3.69-9.197 3.69" fill="#FFF"/>
            <path d="M153.69 38.136c1.69 0 3.066-.77 4.123-2.312 1.057-1.541 1.585-3.68 1.585-6.417 0-3.67-.8-6.806-2.404-9.403-1.604-2.598-3.603-3.897-5.999-3.897-1.903 0-3.409.754-4.519 2.26-1.11 1.507-1.665 3.664-1.665 6.468 0 3.396.836 6.461 2.51 9.196 1.673 2.737 3.797 4.105 6.37 4.105zm-.793 1.974c-4.333 0-7.805-1.298-10.412-3.897-2.608-2.597-3.91-5.715-3.91-9.351 0-3.637 1.268-6.667 3.805-9.092 2.538-2.423 5.636-3.636 9.303-3.636 4.086 0 7.433 1.272 10.04 3.818 2.609 2.545 3.911 5.655 3.911 9.325 0 3.638-1.18 6.685-3.54 9.144-2.36 2.46-5.426 3.69-9.197 3.69z" stroke="#FFF" stroke-width=".25"/>
            <path d="M193.858 34.707c0 .902.14 1.576.423 2.026.28.45.59.702.925.754.334.05.643.156.925.311.281.156.422.425.422.806 0 .865-1.32 1.299-3.963 1.299-1.48 0-2.574-.295-3.277-.884-.706-.589-1.04-1.576-1.004-2.962-1.551 2.703-4.193 4.053-7.928 4.053-2.96 0-5.339-.969-7.135-2.91-1.798-1.94-2.697-4.744-2.697-8.415v-8.988c0-.797-.335-1.516-1.003-2.157-.67-.64-1.004-1.082-1.004-1.324v-.156c0-.52.317-.832.952-.935l5.548-.884c1.197-.172 1.798.087 1.798.78l-.106 14.234c0 5.508 1.76 8.262 5.284 8.262 1.621 0 2.969-.65 4.044-1.949 1.075-1.298 1.612-2.988 1.612-5.066V19.797c0-.797-.343-1.516-1.031-2.157-.686-.64-1.03-1.082-1.03-1.324v-.156c0-.52.299-.832.898-.935l5.655-.884c1.128-.172 1.692.087 1.692.78v19.586z" fill="#FFF"/>
            <path d="M193.858 34.707c0 .902.14 1.576.423 2.026.28.45.59.702.925.754.334.05.643.156.925.311.281.156.422.425.422.806 0 .865-1.32 1.299-3.963 1.299-1.48 0-2.574-.295-3.277-.884-.706-.589-1.04-1.576-1.004-2.962-1.551 2.703-4.193 4.053-7.928 4.053-2.96 0-5.339-.969-7.135-2.91-1.798-1.94-2.697-4.744-2.697-8.415v-8.988c0-.797-.335-1.516-1.003-2.157-.67-.64-1.004-1.082-1.004-1.324v-.156c0-.52.317-.832.952-.935l5.548-.884c1.197-.172 1.798.087 1.798.78l-.106 14.234c0 5.508 1.76 8.262 5.284 8.262 1.621 0 2.969-.65 4.044-1.949 1.075-1.298 1.612-2.988 1.612-5.066V19.797c0-.797-.343-1.516-1.031-2.157-.686-.64-1.03-1.082-1.03-1.324v-.156c0-.52.299-.832.898-.935l5.655-.884c1.128-.172 1.692.087 1.692.78v19.586z" stroke="#FFF" stroke-width=".25"/>
            <path d="M214.1 14.133c1.515 0 2.704.416 3.568 1.247.863.832 1.295 1.87 1.295 3.118 0 2.182-.916 3.273-2.748 3.273-.776 0-1.374-.208-1.798-.624-.422-.415-.686-.884-.791-1.403a2.86 2.86 0 0 0-.74-1.402c-.389-.416-.918-.624-1.587-.624-1.162 0-2.062.624-2.695 1.87-.635 1.247-.952 2.772-.952 4.573v11.118c0 .761.405 1.437 1.216 2.026.81.59 1.217 1.038 1.217 1.35v.208c0 .486-.371.728-1.112.728h-8.192c-.739 0-1.11-.242-1.11-.728v-.207c0-.313.336-.762 1.005-1.35.669-.59 1.004-1.266 1.004-2.027V21.302c0-.796-.379-1.48-1.136-2.052-.76-.57-1.137-1.012-1.137-1.324v-.156c0-.38.317-.745.952-1.091l5.179-2.338c1.023-.485 1.533-.19 1.533.883v4.053c1.198-3.43 3.541-5.144 7.03-5.144" fill="#FFF"/>
            <path d="M214.1 14.133c1.515 0 2.704.416 3.568 1.247.863.832 1.295 1.87 1.295 3.118 0 2.182-.916 3.273-2.748 3.273-.776 0-1.374-.208-1.798-.624-.422-.415-.686-.884-.791-1.403a2.86 2.86 0 0 0-.74-1.402c-.389-.416-.918-.624-1.587-.624-1.162 0-2.062.624-2.695 1.87-.635 1.247-.952 2.772-.952 4.573v11.118c0 .761.405 1.437 1.216 2.026.81.59 1.217 1.038 1.217 1.35v.208c0 .486-.371.728-1.112.728h-8.192c-.739 0-1.11-.242-1.11-.728v-.207c0-.313.336-.762 1.005-1.35.669-.59 1.004-1.266 1.004-2.027V21.302c0-.796-.379-1.48-1.136-2.052-.76-.57-1.137-1.012-1.137-1.324v-.156c0-.38.317-.745.952-1.091l5.179-2.338c1.023-.485 1.533-.19 1.533.883v4.053c1.198-3.43 3.541-5.144 7.03-5.144z" stroke="#FFF" stroke-width=".25"/>
        </g>
        <g>
            <path d="M242.614 41.082c-2.185 0-3.908-.688-5.168-2.061-1.26-1.374-1.89-3.368-1.89-5.985V19.18h-2.872c-.572 0-.857-.28-.857-.844v-.695c0-.597.285-.894.857-.894h1.562c1.277 0 2.311-.43 3.1-1.292.789-.86 1.285-2.036 1.488-3.526.101-.728.436-1.093 1.007-1.093h.756c.638 0 .958.365.958 1.093l.05 4.818h6.352c.268 0 .486.083.654.248.168.166.252.38.252.646v.695c0 .563-.302.844-.906.844h-6.351v13.906c0 1.16.268 2.06.807 2.706.536.646 1.225.969 2.065.969 2.017 0 3.21-.86 3.58-2.583a.897.897 0 0 1 .604-.497.936.936 0 0 1 .73.1c.219.133.328.348.328.646 0 1.787-.646 3.345-1.94 4.669-1.293 1.324-3.017 1.986-5.166 1.986" fill="#FFF"/>
            <path d="M242.614 41.082c-2.185 0-3.908-.688-5.168-2.061-1.26-1.374-1.89-3.368-1.89-5.985V19.18h-2.872c-.572 0-.857-.28-.857-.844v-.695c0-.597.285-.894.857-.894h1.562c1.277 0 2.311-.43 3.1-1.292.789-.86 1.285-2.036 1.488-3.526.101-.728.436-1.093 1.007-1.093h.756c.638 0 .958.365.958 1.093l.05 4.818h6.352c.268 0 .486.083.654.248.168.166.252.38.252.646v.695c0 .563-.302.844-.906.844h-6.351v13.906c0 1.16.268 2.06.807 2.706.536.646 1.225.969 2.065.969 2.017 0 3.21-.86 3.58-2.583a.897.897 0 0 1 .604-.497.936.936 0 0 1 .73.1c.219.133.328.348.328.646 0 1.787-.646 3.345-1.94 4.669-1.293 1.324-3.017 1.986-5.166 1.986z" stroke="#FFF" stroke-width=".25"/>
            <path d="M262.524 18.137c-1.58 0-2.84.745-3.78 2.234-.942 1.49-1.412 3.445-1.412 5.862 0 1.126.101 2.185.302 3.178l8.368-3.576c.873-.397 1.31-1.092 1.31-2.086 0-1.191-.462-2.425-1.387-3.7-.923-1.274-2.058-1.912-3.401-1.912m9.526 15.147c.268-.364.612-.496 1.034-.396.42.098.611.396.58.893-.271 1.755-1.312 3.411-3.126 4.967-1.814 1.556-4.183 2.334-7.108 2.334-3.426 0-6.274-1.159-8.543-3.477-2.268-2.317-3.402-5.363-3.402-9.138 0-3.51 1.167-6.423 3.503-8.74 2.336-2.317 5.183-3.477 8.544-3.477 3.024 0 5.35.738 6.981 2.21 1.63 1.474 2.444 3.171 2.444 5.09 0 1.722-.857 2.881-2.57 3.476l-12.199 4.421c.639 1.722 1.597 3.063 2.874 4.023 1.277.96 2.789 1.44 4.536 1.44 1.512 0 2.831-.34 3.957-1.018 1.125-.678 1.957-1.548 2.495-2.608" fill="#FFF"/>
            <path d="M262.524 18.137c-1.58 0-2.84.745-3.78 2.234-.942 1.49-1.412 3.445-1.412 5.862 0 1.126.101 2.185.302 3.178l8.368-3.576c.873-.397 1.31-1.092 1.31-2.086 0-1.191-.462-2.425-1.387-3.7-.923-1.274-2.058-1.912-3.401-1.912zm9.526 15.147c.268-.364.612-.496 1.034-.396.42.098.611.396.58.893-.271 1.755-1.312 3.411-3.126 4.967-1.814 1.556-4.183 2.334-7.108 2.334-3.426 0-6.274-1.159-8.543-3.477-2.268-2.317-3.402-5.363-3.402-9.138 0-3.51 1.167-6.423 3.503-8.74 2.336-2.317 5.183-3.477 8.544-3.477 3.024 0 5.35.738 6.981 2.21 1.63 1.474 2.444 3.171 2.444 5.09 0 1.722-.857 2.881-2.57 3.476l-12.199 4.421c.639 1.722 1.597 3.063 2.874 4.023 1.277.96 2.789 1.44 4.536 1.44 1.512 0 2.831-.34 3.957-1.018 1.125-.678 1.957-1.548 2.495-2.608z" stroke="#FFF" stroke-width=".25"/>
            <path d="M287.575 39.195c1.377 0 2.495-.498 3.352-1.49.858-.993 1.252-2.169 1.185-3.527l-.151-1.539c-.101-1.424-.589-2.55-1.461-3.377-.875-.827-1.984-1.241-3.33-1.241-1.41 0-2.552.438-3.426 1.315-.873.877-1.31 2.062-1.31 3.55 0 1.756.479 3.246 1.436 4.47.958 1.226 2.193 1.839 3.705 1.839zm10.685-3.08c.069.729.26 1.3.58 1.714.319.414.638.67.959.77.318.098.604.232.856.396.253.167.377.382.377.646 0 .829-1.36 1.242-4.081 1.242-1.346 0-2.329-.208-2.949-.62-.622-.415-.982-1.2-1.084-2.36-1.345 2.12-3.68 3.179-7.007 3.179-2.822 0-5.1-.654-6.83-1.963-1.73-1.307-2.594-3.153-2.594-5.536-.034-2.35.822-4.18 2.57-5.489 1.747-1.307 3.948-1.96 6.603-1.96 2.418 0 4.367.562 5.846 1.687l-.1-.993c-.303-3.046-.84-5.264-1.613-6.655-.774-1.39-2-2.085-3.68-2.085-1.042 0-1.908.315-2.596.942-.688.63-1.159 1.317-1.411 2.063a7.34 7.34 0 0 1-1.084 2.06c-.47.63-1.058.944-1.764.944-.739 0-1.335-.207-1.788-.621-.455-.413-.682-.969-.682-1.664 0-1.59.883-2.912 2.647-3.973 1.763-1.06 3.989-1.59 6.678-1.59 3.158 0 5.712.92 7.662 2.757 1.948 1.838 3.107 4.362 3.478 7.574l1.007 9.535z" fill="#FFF"/>
            <path d="M287.575 39.195c1.377 0 2.495-.498 3.352-1.49.858-.993 1.252-2.169 1.185-3.527l-.151-1.539c-.101-1.424-.589-2.55-1.461-3.377-.875-.827-1.984-1.241-3.33-1.241-1.41 0-2.552.438-3.426 1.315-.873.877-1.31 2.062-1.31 3.55 0 1.756.479 3.246 1.436 4.47.958 1.226 2.193 1.839 3.705 1.839zm10.685-3.08c.069.729.26 1.3.58 1.714.319.414.638.67.959.77.318.098.604.232.856.396.253.167.377.382.377.646 0 .829-1.36 1.242-4.081 1.242-1.346 0-2.329-.208-2.949-.62-.622-.415-.982-1.2-1.084-2.36-1.345 2.12-3.68 3.179-7.007 3.179-2.822 0-5.1-.654-6.83-1.963-1.73-1.307-2.594-3.153-2.594-5.536-.034-2.35.822-4.18 2.57-5.489 1.747-1.307 3.948-1.96 6.603-1.96 2.418 0 4.367.562 5.846 1.687l-.1-.993c-.303-3.046-.84-5.264-1.613-6.655-.774-1.39-2-2.085-3.68-2.085-1.042 0-1.908.315-2.596.942-.688.63-1.159 1.317-1.411 2.063a7.34 7.34 0 0 1-1.084 2.06c-.47.63-1.058.944-1.764.944-.739 0-1.335-.207-1.788-.621-.455-.413-.682-.969-.682-1.664 0-1.59.883-2.912 2.647-3.973 1.763-1.06 3.989-1.59 6.678-1.59 3.158 0 5.712.92 7.662 2.757 1.948 1.838 3.107 4.362 3.478 7.574l1.007 9.535z" stroke="#FFF" stroke-width=".25"/>
            <path d="M343.978 36.413c.033.729.344 1.39.931 1.987.589.596.883 1.044.883 1.341v.198c0 .465-.352.696-1.057.696h-7.41c-.706 0-1.059-.23-1.059-.696v-.198c0-.297.302-.736.908-1.316.604-.579.89-1.234.856-1.961l-.504-9.388c-.134-2.98-.646-5.131-1.537-6.455-.891-1.325-2.16-1.987-3.806-1.987-1.378 0-2.545.555-3.503 1.664-.958 1.11-1.47 2.508-1.537 4.196.134.662.201 1.457.201 2.384v9.586c0 .727.294 1.382.883 1.96.587.58.881 1.02.881 1.317v.198c0 .465-.352.696-1.058.696h-7.31c-.739 0-1.107-.23-1.107-.696v-.198c0-.297.293-.736.882-1.316.587-.579.883-1.234.883-1.961V26.53c0-2.483-.497-4.42-1.487-5.811-.992-1.39-2.262-2.085-3.807-2.085-1.512 0-2.756.555-3.73 1.664-.974 1.11-1.494 2.524-1.563 4.246l.051 11.92c0 .727.335 1.382 1.008 1.96.671.58 1.01 1.02 1.01 1.317v.198c0 .465-.354.696-1.061.696h-7.812c-.74 0-1.109-.23-1.109-.696v-.198c0-.297.335-.736 1.01-1.316.67-.579 1.007-1.234 1.007-1.961v-13.31c0-.597-.185-1.093-.555-1.491a7.723 7.723 0 0 0-1.108-.993c-.37-.264-.555-.547-.555-.844v-.15c0-.33.302-.628.907-.894l5.142-2.334c.536-.231.94-.256 1.209-.073.269.18.403.504.403.968v2.93a8.283 8.283 0 0 1 3-2.93c1.26-.729 2.662-1.093 4.207-1.093 1.849 0 3.52.43 5.015 1.291 1.497.86 2.665 2.07 3.504 3.626.639-1.556 1.663-2.765 3.074-3.626 1.411-.86 3.008-1.29 4.79-1.29 2.62 0 4.779.868 6.476 2.606 1.696 1.739 2.68 4.529 2.95 8.37l.604 9.186z" fill="#FFF"/>
            <path d="M343.978 36.413c.033.729.344 1.39.931 1.987.589.596.883 1.044.883 1.341v.198c0 .465-.352.696-1.057.696h-7.41c-.706 0-1.059-.23-1.059-.696v-.198c0-.297.302-.736.908-1.316.604-.579.89-1.234.856-1.961l-.504-9.388c-.134-2.98-.646-5.131-1.537-6.455-.891-1.325-2.16-1.987-3.806-1.987-1.378 0-2.545.555-3.503 1.664-.958 1.11-1.47 2.508-1.537 4.196.134.662.201 1.457.201 2.384v9.586c0 .727.294 1.382.883 1.96.587.58.881 1.02.881 1.317v.198c0 .465-.352.696-1.058.696h-7.31c-.739 0-1.107-.23-1.107-.696v-.198c0-.297.293-.736.882-1.316.587-.579.883-1.234.883-1.961V26.53c0-2.483-.497-4.42-1.487-5.811-.992-1.39-2.262-2.085-3.807-2.085-1.512 0-2.756.555-3.73 1.664-.974 1.11-1.494 2.524-1.563 4.246l.051 11.92c0 .727.335 1.382 1.008 1.96.671.58 1.01 1.02 1.01 1.317v.198c0 .465-.354.696-1.061.696h-7.812c-.74 0-1.109-.23-1.109-.696v-.198c0-.297.335-.736 1.01-1.316.67-.579 1.007-1.234 1.007-1.961v-13.31c0-.597-.185-1.093-.555-1.491a7.723 7.723 0 0 0-1.108-.993c-.37-.264-.555-.547-.555-.844v-.15c0-.33.302-.628.907-.894l5.142-2.334c.536-.231.94-.256 1.209-.073.269.18.403.504.403.968v2.93a8.283 8.283 0 0 1 3-2.93c1.26-.729 2.662-1.093 4.207-1.093 1.849 0 3.52.43 5.015 1.291 1.497.86 2.665 2.07 3.504 3.626.639-1.556 1.663-2.765 3.074-3.626 1.411-.86 3.008-1.29 4.79-1.29 2.62 0 4.779.868 6.476 2.606 1.696 1.739 2.68 4.529 2.95 8.37l.604 9.186z" stroke="#FFF" stroke-width=".25"/>
            <path d="M389.695 36.413c.033.729.344 1.39.932 1.987.588.596.882 1.044.882 1.341v.198c0 .465-.352.696-1.058.696h-7.41c-.705 0-1.058-.23-1.058-.696v-.198c0-.297.302-.736.908-1.316.604-.579.89-1.234.856-1.961l-.504-9.388c-.134-2.98-.647-5.131-1.538-6.455-.89-1.325-2.158-1.987-3.806-1.987-1.378 0-2.544.555-3.502 1.664-.958 1.11-1.47 2.508-1.537 4.196.134.662.202 1.457.202 2.384v9.586c0 .727.293 1.382.882 1.96.587.58.882 1.02.882 1.317v.198c0 .465-.353.696-1.06.696h-7.307c-.741 0-1.109-.23-1.109-.696v-.198c0-.297.293-.736.882-1.316.587-.579.882-1.234.882-1.961V26.53c0-2.483-.496-4.42-1.487-5.811-.992-1.39-2.26-2.085-3.806-2.085-1.512 0-2.755.555-3.73 1.664-.975 1.11-1.495 2.524-1.562 4.246l.05 11.92c0 .727.335 1.382 1.008 1.96.672.58 1.009 1.02 1.009 1.317v.198c0 .465-.354.696-1.06.696h-7.811c-.74 0-1.11-.23-1.11-.696v-.198c0-.297.335-.736 1.009-1.316.671-.579 1.008-1.234 1.008-1.961v-13.31c0-.597-.186-1.093-.555-1.491a7.653 7.653 0 0 0-1.109-.993c-.37-.264-.554-.547-.554-.844v-.15c0-.33.302-.628.908-.894l5.14-2.334c.538-.231.94-.256 1.21-.073.269.18.403.504.403.968v2.93a8.283 8.283 0 0 1 2.999-2.93c1.26-.729 2.663-1.093 4.21-1.093 1.847 0 3.518.43 5.014 1.291 1.495.86 2.663 2.07 3.503 3.626.638-1.556 1.663-2.765 3.075-3.626 1.411-.86 3.006-1.29 4.79-1.29 2.619 0 4.777.868 6.475 2.606 1.696 1.739 2.68 4.529 2.95 8.37l.604 9.186z" fill="#FFF"/>
            <path d="M389.695 36.413c.033.729.344 1.39.932 1.987.588.596.882 1.044.882 1.341v.198c0 .465-.352.696-1.058.696h-7.41c-.705 0-1.058-.23-1.058-.696v-.198c0-.297.302-.736.908-1.316.604-.579.89-1.234.856-1.961l-.504-9.388c-.134-2.98-.647-5.131-1.538-6.455-.89-1.325-2.158-1.987-3.806-1.987-1.378 0-2.544.555-3.502 1.664-.958 1.11-1.47 2.508-1.537 4.196.134.662.202 1.457.202 2.384v9.586c0 .727.293 1.382.882 1.96.587.58.882 1.02.882 1.317v.198c0 .465-.353.696-1.06.696h-7.307c-.741 0-1.109-.23-1.109-.696v-.198c0-.297.293-.736.882-1.316.587-.579.882-1.234.882-1.961V26.53c0-2.483-.496-4.42-1.487-5.811-.992-1.39-2.26-2.085-3.806-2.085-1.512 0-2.755.555-3.73 1.664-.975 1.11-1.495 2.524-1.562 4.246l.05 11.92c0 .727.335 1.382 1.008 1.96.672.58 1.009 1.02 1.009 1.317v.198c0 .465-.354.696-1.06.696h-7.811c-.74 0-1.11-.23-1.11-.696v-.198c0-.297.335-.736 1.009-1.316.671-.579 1.008-1.234 1.008-1.961v-13.31c0-.597-.186-1.093-.555-1.491a7.653 7.653 0 0 0-1.109-.993c-.37-.264-.554-.547-.554-.844v-.15c0-.33.302-.628.908-.894l5.14-2.334c.538-.231.94-.256 1.21-.073.269.18.403.504.403.968v2.93a8.283 8.283 0 0 1 2.999-2.93c1.26-.729 2.663-1.093 4.21-1.093 1.847 0 3.518.43 5.014 1.291 1.495.86 2.663 2.07 3.503 3.626.638-1.556 1.663-2.765 3.075-3.626 1.411-.86 3.006-1.29 4.79-1.29 2.619 0 4.777.868 6.475 2.606 1.696 1.739 2.68 4.529 2.95 8.37l.604 9.186z" stroke="#FFF" stroke-width=".25"/>
            <path d="M405.27 39.195c1.377 0 2.495-.498 3.351-1.49.858-.993 1.252-2.169 1.185-3.527l-.15-1.539c-.102-1.424-.59-2.55-1.462-3.377-.875-.827-1.984-1.241-3.328-1.241-1.41 0-2.552.438-3.427 1.315-.874.877-1.311 2.062-1.311 3.55 0 1.756.479 3.246 1.437 4.47.959 1.226 2.193 1.839 3.705 1.839zm10.686-3.08c.067.729.26 1.3.58 1.714.319.414.637.67.957.77.318.098.605.232.857.396.252.167.378.382.378.646 0 .829-1.36 1.242-4.083 1.242-1.344 0-2.327-.208-2.948-.62-.623-.415-.983-1.2-1.084-2.36-1.344 2.12-3.679 3.179-7.007 3.179-2.823 0-5.1-.654-6.829-1.963-1.731-1.307-2.596-3.153-2.596-5.536-.034-2.35.823-4.18 2.571-5.489 1.746-1.307 3.947-1.96 6.602-1.96 2.42 0 4.369.562 5.848 1.687l-.101-.993c-.302-3.046-.841-5.264-1.614-6.655-.772-1.39-1.998-2.085-3.678-2.085-1.043 0-1.908.315-2.596.942-.69.63-1.16 1.317-1.413 2.063a7.305 7.305 0 0 1-1.084 2.06c-.47.63-1.057.944-1.764.944-.738 0-1.335-.207-1.788-.621-.455-.413-.68-.969-.68-1.664 0-1.59.881-2.912 2.645-3.973 1.764-1.06 3.99-1.59 6.68-1.59 3.157 0 5.71.92 7.66 2.757 1.949 1.838 3.108 4.362 3.478 7.574l1.01 9.535z" fill="#FFF"/>
            <path d="M405.27 39.195c1.377 0 2.495-.498 3.351-1.49.858-.993 1.252-2.169 1.185-3.527l-.15-1.539c-.102-1.424-.59-2.55-1.462-3.377-.875-.827-1.984-1.241-3.328-1.241-1.41 0-2.552.438-3.427 1.315-.874.877-1.311 2.062-1.311 3.55 0 1.756.479 3.246 1.437 4.47.959 1.226 2.193 1.839 3.705 1.839zm10.686-3.08c.067.729.26 1.3.58 1.714.319.414.637.67.957.77.318.098.605.232.857.396.252.167.378.382.378.646 0 .829-1.36 1.242-4.083 1.242-1.344 0-2.327-.208-2.948-.62-.623-.415-.983-1.2-1.084-2.36-1.344 2.12-3.679 3.179-7.007 3.179-2.823 0-5.1-.654-6.829-1.963-1.731-1.307-2.596-3.153-2.596-5.536-.034-2.35.823-4.18 2.571-5.489 1.746-1.307 3.947-1.96 6.602-1.96 2.42 0 4.369.562 5.848 1.687l-.101-.993c-.302-3.046-.841-5.264-1.614-6.655-.772-1.39-1.998-2.085-3.678-2.085-1.043 0-1.908.315-2.596.942-.69.63-1.16 1.317-1.413 2.063a7.305 7.305 0 0 1-1.084 2.06c-.47.63-1.057.944-1.764.944-.738 0-1.335-.207-1.788-.621-.455-.413-.68-.969-.68-1.664 0-1.59.881-2.912 2.645-3.973 1.764-1.06 3.99-1.59 6.68-1.59 3.157 0 5.71.92 7.66 2.757 1.949 1.838 3.108 4.362 3.478 7.574l1.01 9.535z" stroke="#FFF" stroke-width=".25"/>
            <path d="M429.766 41.082c-2.185 0-3.907-.688-5.167-2.061-1.26-1.374-1.89-3.368-1.89-5.985V19.18h-2.873c-.571 0-.856-.28-.856-.844v-.695c0-.597.285-.894.856-.894h1.563c1.277 0 2.31-.43 3.1-1.292.788-.86 1.285-2.036 1.487-3.526.101-.728.436-1.093 1.008-1.093h.755c.639 0 .958.365.958 1.093l.051 4.818h6.351c.268 0 .486.083.655.248.168.166.252.38.252.646v.695c0 .563-.302.844-.907.844h-6.35v13.906c0 1.16.269 2.06.806 2.706.536.646 1.226.969 2.065.969 2.018 0 3.21-.86 3.58-2.583a.897.897 0 0 1 .605-.497.936.936 0 0 1 .73.1c.218.133.329.348.329.646 0 1.787-.648 3.345-1.94 4.669-1.295 1.324-3.019 1.986-5.168 1.986" fill="#FFF"/>
            <path d="M429.766 41.082c-2.185 0-3.907-.688-5.167-2.061-1.26-1.374-1.89-3.368-1.89-5.985V19.18h-2.873c-.571 0-.856-.28-.856-.844v-.695c0-.597.285-.894.856-.894h1.563c1.277 0 2.31-.43 3.1-1.292.788-.86 1.285-2.036 1.487-3.526.101-.728.436-1.093 1.008-1.093h.755c.639 0 .958.365.958 1.093l.051 4.818h6.351c.268 0 .486.083.655.248.168.166.252.38.252.646v.695c0 .563-.302.844-.907.844h-6.35v13.906c0 1.16.269 2.06.806 2.706.536.646 1.226.969 2.065.969 2.018 0 3.21-.86 3.58-2.583a.897.897 0 0 1 .605-.497.936.936 0 0 1 .73.1c.218.133.329.348.329.646 0 1.787-.648 3.345-1.94 4.669-1.295 1.324-3.019 1.986-5.168 1.986z" stroke="#FFF" stroke-width=".25"/>
            <path d="M449.676 18.137c-1.58 0-2.84.745-3.78 2.234-.941 1.49-1.412 3.445-1.412 5.862 0 1.126.101 2.185.304 3.178l8.366-3.576c.874-.397 1.311-1.092 1.311-2.086 0-1.191-.462-2.425-1.387-3.7-.924-1.274-2.059-1.912-3.402-1.912m9.527 15.147c.268-.364.612-.496 1.034-.396.419.098.61.396.58.893-.272 1.755-1.312 3.411-3.126 4.967-1.815 1.556-4.184 2.334-7.108 2.334-3.426 0-6.275-1.159-8.542-3.477-2.27-2.317-3.403-5.363-3.403-9.138 0-3.51 1.167-6.423 3.502-8.74 2.336-2.317 5.183-3.477 8.544-3.477 3.024 0 5.351.738 6.982 2.21 1.629 1.474 2.443 3.171 2.443 5.09 0 1.722-.856 2.881-2.57 3.476l-12.198 4.421c.638 1.722 1.596 3.063 2.873 4.023 1.277.96 2.79 1.44 4.537 1.44 1.512 0 2.83-.34 3.957-1.018 1.124-.678 1.956-1.548 2.495-2.608" fill="#FFF"/>
            <path d="M449.676 18.137c-1.58 0-2.84.745-3.78 2.234-.941 1.49-1.412 3.445-1.412 5.862 0 1.126.101 2.185.304 3.178l8.366-3.576c.874-.397 1.311-1.092 1.311-2.086 0-1.191-.462-2.425-1.387-3.7-.924-1.274-2.059-1.912-3.402-1.912zm9.527 15.147c.268-.364.612-.496 1.034-.396.419.098.61.396.58.893-.272 1.755-1.312 3.411-3.126 4.967-1.815 1.556-4.184 2.334-7.108 2.334-3.426 0-6.275-1.159-8.542-3.477-2.27-2.317-3.403-5.363-3.403-9.138 0-3.51 1.167-6.423 3.502-8.74 2.336-2.317 5.183-3.477 8.544-3.477 3.024 0 5.351.738 6.982 2.21 1.629 1.474 2.443 3.171 2.443 5.09 0 1.722-.856 2.881-2.57 3.476l-12.198 4.421c.638 1.722 1.596 3.063 2.873 4.023 1.277.96 2.79 1.44 4.537 1.44 1.512 0 2.83-.34 3.957-1.018 1.124-.678 1.956-1.548 2.495-2.608z" stroke="#FFF" stroke-width=".25"/>
        </g>
    </g>
</svg>
