<svg width="706" height="96" viewBox="0 0 706 96" xmlns="http://www.w3.org/2000/svg">
    <g fill="none" fill-rule="evenodd">
        <path d="M132.674 65.624c.12 1.48.692 2.945 1.718 4.395 1.023 1.45 1.537 2.56 1.537 3.33v.354c0 1.125-.724 1.687-2.17 1.687h-18.078c-1.446 0-2.17-.562-2.17-1.687v-.355c0-.71.572-1.805 1.717-3.285 1.145-1.479 1.657-2.959 1.537-4.44l-.904-15.891c-.24-4.38-.829-7.486-1.762-9.322-.936-1.834-2.427-2.753-4.475-2.753-1.93 0-3.39.771-4.384 2.309-.994 1.54-1.491 3.64-1.491 6.304v19.354c0 1.48.662 2.96 1.988 4.439 1.325 1.48 1.99 2.575 1.99 3.285v.355c0 1.125-.724 1.687-2.17 1.687H86.031c-1.446 0-2.17-.562-2.17-1.687v-.355c0-.71.663-1.805 1.989-3.285 1.325-1.479 1.989-2.959 1.989-4.44V48.135c0-1.243-.393-2.293-1.176-3.152a18.447 18.447 0 0 0-2.395-2.22c-.813-.621-1.22-1.287-1.22-1.997v-.266c0-.77.723-1.51 2.17-2.22l12.654-6.126c1.144-.473 2.003-.488 2.576-.044.572.443.86 1.17.86 2.175v4.173c2.53-4.44 6.838-6.66 12.926-6.66 4.52 0 8.406 1.452 11.66 4.351 3.254 2.901 5.121 7.607 5.605 14.117l1.174 15.359zM164 71.839c1.628.06 2.998-.591 4.113-1.953 1.115-1.361 1.672-3.196 1.672-5.505V47.246c0-2.841-.829-5.4-2.485-7.68-1.658-2.277-3.541-3.418-5.65-3.418-4.46 0-6.84 3.64-7.14 10.92-.122 2.783.135 6.008.767 9.677.634 3.671 1.718 7.09 3.255 10.256 1.536 3.167 3.358 4.78 5.469 4.838zm21.152-6.215c0 1.48.602 2.945 1.808 4.395 1.205 1.45 1.808 2.53 1.808 3.24v.356c0 1.124-.694 1.686-2.08 1.686h-12.925c-1.567 0-2.35-.74-2.35-2.22v-.798c-2.834 2.604-6.508 3.906-11.028 3.906-5.846 0-10.863-1.967-15.05-5.904-4.19-3.935-6.283-9.366-6.283-16.292 0-6.45 2.109-11.763 6.327-15.936s9.25-6.259 15.096-6.259c3.675 0 6.78.83 9.31 2.486V22.476c0-1.184-.392-2.204-1.174-3.063a18.41 18.41 0 0 0-2.396-2.22c-.813-.621-1.22-1.287-1.22-1.997v-.266c0-1.124.692-1.894 2.079-2.31l14.101-4.172c2.651-.828 3.977-.117 3.977 2.131v55.045zM38.7 25.856c.699 0 1.275.224 1.73.67.455.447.683 1.013.683 1.7v2.265c0 .688-.228 1.254-.682 1.7-.456.448-1.032.67-1.73.67H27.164v31.11c0 1.786.944 3.519 2.832 5.202 1.887 1.682 2.831 2.935 2.831 3.759v.412c0 1.305-.804 1.957-2.412 1.957H7.447c-1.61 0-2.412-.652-2.412-1.957v-.412c0-.824.697-2.077 2.097-3.76 1.398-1.682 2.097-3.415 2.097-5.202V32.86H2.412c-.7 0-1.276-.221-1.73-.669-.456-.446-.682-1.012-.682-1.7v-2.265c0-.687.226-1.253.681-1.7.455-.446 1.031-.67 1.73-.67H9.23v-4.12c0-6.387 2.605-11.605 7.814-15.659C22.25 2.027 29.225 0 37.967 0c7.69 0 17.353 7.65 22.196 9.796 5.587 2.476 8.706 6.739 9.032 10.985.258 3.361-.689 5.82-2.39 8.245-1.379 1.966-4.165 3.743-8.944 3.743-3.032 0-5.139-.929-6.781-2.062-1.643-1.134-3.988-4.097-5.01-7.949-.591-2.23-2.302-10.06-2.807-11.787-.468-1.601-1.506-3.392-2.732-4.318-1.333-1.008-2.984-1.502-4.662-1.502-3.427 0-5.892 1.923-7.394 5.769-1.504 3.846-1.94 8.413-1.311 13.7v1.236h11.537z" fill="#FFF"/>
        <path d="M66.672 24.055c-2.39-3.11-5.027-2.508-6.744-.852-1.257 1.476-2.023 4.788 1.689 6.867-2.455 1.022-6.71.849-9.115-1.528-2.822-1.945-4.204-8.819-1.257-12.14 2.636-3.235 7.962-4.032 11.287-1.925 3.514 1.651 4.845 5.536 4.14 9.578" fill="#4361EE"/>
        <path d="M73.939 65.535c0 1.48.678 2.96 2.034 4.44 1.355 1.48 2.034 2.574 2.034 3.285v.354c0 1.125-.724 1.687-2.17 1.687H56.222c-1.446 0-2.17-.562-2.17-1.687v-.354c0-.711.602-1.806 1.808-3.286 1.205-1.48 1.808-2.959 1.808-4.439V48.667c0-1.54-.603-3.033-1.808-4.484-1.206-1.45-1.808-2.442-1.808-2.974v-.355c0-.71.693-1.39 2.08-2.042l13.739-6.57c1.266-.533 2.26-.591 2.983-.178.724.415 1.085 1.096 1.085 2.043v31.428z" fill="#FFF"/>
        <path d="M59.907 30.606s2.91-.348 4.865-2.796c2.165-2.712 2.082-5.152 2.082-5.152s-1.108-1.903-2.76-2.7c-1.37-.663-4.8-1.066-6.971 1.646-2.412 3.012-.9 5.785.176 7.022 1.199 1.379 2.608 1.98 2.608 1.98" fill="#000"/>
        <path d="M220.196 72.99c2.9 0 5.543-1.142 7.932-3.427 2.386-2.284 3.58-5.416 3.58-9.393h.09l-.09-4.54v-8.904c0-3.027-1.314-5.86-3.943-8.502-2.629-2.64-5.727-3.962-9.292-3.962-3.928 0-7.114 1.528-9.562 4.585-2.448 3.058-3.702 7.078-3.762 12.063-.121 6.175 1.238 11.382 4.079 15.626 2.84 4.244 6.495 6.395 10.968 6.454zm19.217-4.184c0 1.188.557 2.226 1.676 3.116 1.118.89 1.678 1.514 1.678 1.87v.266c0 .654-.454.98-1.36.98h-7.614c-.906 0-1.42-.474-1.541-1.425l-.181-4.451c-1.511 2.196-3.49 3.872-5.938 5.03-2.447 1.158-5.062 1.736-7.84 1.736-5.743 0-10.667-2.077-14.776-6.232-4.11-4.153-6.164-9.526-6.164-16.115 0-6.468 2.024-11.78 6.074-15.936 4.048-4.154 9.094-6.232 15.138-6.232 5.316 0 9.698 1.93 13.143 5.787V17.79c0-1.068-.317-1.928-.952-2.581-.634-.653-1.268-1.158-1.904-1.514-.633-.356-.95-.741-.95-1.158v-.177c0-.593.452-1.098 1.359-1.514l7.342-2.404c1.873-.712 2.81-.267 2.81 1.335v59.028z" fill="#FFF"/>
        <path d="M218.474 34.64c-3.786 0-6.9 1.495-9.26 4.442-2.383 2.977-3.622 6.959-3.68 11.832-.119 6.07 1.232 11.255 4.017 15.414 2.751 4.112 6.334 6.227 10.649 6.283 2.78 0 5.357-1.117 7.66-3.32 2.296-2.2 3.462-5.268 3.462-9.121v-.38h.083l-.083-4.154v-8.91c0-2.91-1.29-5.682-3.833-8.238-2.542-2.552-5.575-3.847-9.015-3.847m1.723 38.728h-.006c-4.587-.06-8.384-2.29-11.285-6.626-2.871-4.288-4.265-9.617-4.143-15.84.06-5.042 1.353-9.178 3.845-12.29 2.513-3.139 5.832-4.73 9.866-4.73 3.655 0 6.874 1.371 9.567 4.076 2.69 2.702 4.053 5.652 4.053 8.767v8.904l.098 4.919h-.102c-.076 3.889-1.317 7.01-3.693 9.285-2.452 2.346-5.21 3.535-8.2 3.535m-1.633-41.577c-5.904 0-10.903 2.057-14.858 6.115-3.96 4.063-5.967 9.337-5.967 15.674 0 6.458 2.037 11.792 6.054 15.851 4.015 4.06 8.894 6.117 14.5 6.117 2.708 0 5.29-.571 7.673-1.698 2.373-1.123 4.319-2.771 5.785-4.901l.657-.957.23 5.606c.094.733.44 1.06 1.155 1.06h7.614c.975 0 .975-.39.975-.6v-.267c-.003-.038-.065-.405-1.535-1.576-1.208-.96-1.82-2.107-1.82-3.41V9.778c0-.583-.133-.968-.396-1.145-.345-.232-1-.175-1.889.163l-7.36 2.41c-.713.33-1.095.724-1.095 1.154v.177c0 .334.412.635.757.83.665.372 1.335.904 1.991 1.58.703.724 1.059 1.68 1.059 2.843v20.415l-.676-.756c-3.352-3.755-7.677-5.658-12.854-5.658m-.272 44.515c-5.823 0-10.886-2.136-15.052-6.346-4.162-4.207-6.272-9.718-6.272-16.38 0-6.539 2.079-11.989 6.18-16.199 4.107-4.212 9.293-6.348 15.416-6.348 5.068 0 9.355 1.747 12.758 5.196V17.791c0-.975-.276-1.734-.845-2.32-.605-.623-1.216-1.11-1.815-1.445-.76-.428-1.146-.928-1.146-1.488v-.177c0-.75.532-1.376 1.582-1.857l7.383-2.42c1.154-.44 2.006-.465 2.586-.075.486.327.732.923.732 1.77v59.026c0 1.078.502 2.002 1.533 2.822 1.605 1.278 1.82 1.811 1.82 2.165v.266c0 .507-.226 1.359-1.745 1.359h-7.614c-1.097 0-1.78-.624-1.924-1.757l-.139-3.396c-1.45 1.816-3.272 3.25-5.43 4.27-2.487 1.176-5.182 1.773-8.008 1.773" fill="#FFF"/>
        <path d="M218.474 34.546c-3.817 0-6.957 1.507-9.336 4.476-2.397 2.996-3.642 6.996-3.7 11.891-.12 6.09 1.237 11.292 4.032 15.467 2.77 4.14 6.38 6.27 10.729 6.326 2.807-.001 5.406-1.126 7.727-3.347 2.318-2.217 3.493-5.31 3.493-9.19v-.283h.084l-.084-4.25v-8.91c0-2.936-1.299-5.73-3.861-8.304-2.561-2.572-5.617-3.876-9.084-3.876m1.723 38.728h-.004c-4.554-.059-8.324-2.274-11.207-6.582-2.86-4.273-4.248-9.583-4.126-15.787.06-5.022 1.346-9.138 3.823-12.233 2.494-3.115 5.789-4.694 9.791-4.694 3.627 0 6.824 1.361 9.498 4.046 2.67 2.685 4.025 5.612 4.025 8.702v8.903l.097 4.825h-.1c-.056 3.907-1.288 7.038-3.665 9.312-2.432 2.329-5.168 3.508-8.132 3.508m-1.633-41.577c-5.93 0-10.954 2.067-14.928 6.145-3.977 4.081-5.994 9.377-5.994 15.739 0 6.483 2.047 11.838 6.082 15.917 4.033 4.078 8.935 6.146 14.568 6.146 2.724 0 5.32-.574 7.716-1.708 2.389-1.129 4.348-2.79 5.823-4.934l.493-.717.217 5.317c.101.788.488 1.151 1.252 1.151h7.614c1.07 0 1.07-.487 1.07-.695v-.266c0-.067-.075-.459-1.57-1.65-1.184-.94-1.783-2.064-1.783-3.337V9.78c0-.616-.148-1.027-.439-1.223-.37-.25-1.055-.198-1.978.152l-7.354 2.408c-.76.351-1.162.774-1.162 1.245v.178c0 .304.27.61.805.911.657.367 1.319.894 1.97 1.563.684.706 1.031 1.64 1.031 2.778v20.163l-.507-.567c-3.37-3.776-7.72-5.69-12.926-5.69m-.272 44.516c-5.796 0-10.837-2.126-14.982-6.318-4.145-4.19-6.247-9.678-6.247-16.314 0-6.513 2.071-11.94 6.155-16.132 4.087-4.194 9.25-6.32 15.346-6.32 5.123 0 9.444 1.794 12.855 5.338V17.79c0-1-.285-1.781-.872-2.386-.612-.629-1.23-1.122-1.837-1.462-.729-.409-1.098-.881-1.098-1.404v-.178c0-.71.514-1.307 1.527-1.772l7.372-2.415c1.124-.43 1.948-.458 2.501-.088.459.309.69.878.69 1.693v59.026c0 1.109.513 2.056 1.57 2.896 1.582 1.26 1.785 1.78 1.785 2.091v.266c0 .472-.215 1.263-1.65 1.263h-7.614c-1.058 0-1.69-.578-1.828-1.673l-.15-3.648c-1.467 1.902-3.333 3.397-5.556 4.448-2.475 1.172-5.155 1.765-7.967 1.765" fill="#FFF"/>
        <path d="M218.474 34.925c-3.692 0-6.731 1.458-9.033 4.333-2.343 2.926-3.56 6.85-3.617 11.66-.119 6.013 1.216 11.144 3.968 15.254 2.696 4.029 6.2 6.1 10.412 6.155 2.698 0 5.207-1.09 7.452-3.24 2.24-2.143 3.377-5.143 3.377-8.917v-.663h.077l-.077-3.865v-8.916c0-2.834-1.262-5.538-3.75-8.04-2.486-2.495-5.45-3.761-8.809-3.761m1.723 38.728h-.004c-4.694-.06-8.571-2.333-11.53-6.753-2.904-4.337-4.313-9.72-4.19-16.003.062-5.105 1.376-9.298 3.907-12.46 2.57-3.21 5.966-4.838 10.094-4.838 3.736 0 7.024 1.4 9.774 4.16 2.744 2.76 4.135 5.776 4.135 8.967v8.903l.104 5.204h-.116c-.13 3.836-1.398 6.932-3.773 9.204-2.506 2.4-5.333 3.616-8.401 3.616m-1.633-41.577c-5.822 0-10.751 2.028-14.65 6.028-3.906 4.009-5.886 9.216-5.886 15.477 0 6.38 2.01 11.648 5.973 15.653 3.958 4.002 8.766 6.032 14.291 6.032 2.666 0 5.205-.563 7.548-1.671 2.327-1.1 4.235-2.716 5.671-4.804l1.152-1.674.264 6.47c.074.573.302.788.866.788h7.614c.685 0 .685-.183.685-.317v-.265c.003.006-.124-.318-1.428-1.356-1.278-1.017-1.925-2.238-1.925-3.632V9.78c0-.47-.097-.793-.272-.911-.093-.061-.488-.236-1.62.194l-7.372 2.413c-.31.146-.899.479-.899.886v.177c0 .116.161.33.612.583.688.385 1.379.934 2.057 1.63.755.78 1.138 1.803 1.138 3.04v21.17l-1.183-1.324c-3.295-3.69-7.546-5.561-12.636-5.561m-.272 44.515c-5.904 0-11.038-2.163-15.259-6.432-4.216-4.262-6.355-9.84-6.355-16.578 0-6.614 2.107-12.13 6.261-16.394 4.164-4.271 9.42-6.437 15.625-6.437 4.902 0 9.092 1.612 12.469 4.797V17.79c0-.9-.25-1.594-.765-2.124-.585-.603-1.174-1.072-1.75-1.396-.857-.48-1.292-1.063-1.292-1.733v-.177c0-.87.589-1.582 1.749-2.115l7.415-2.432c1.235-.472 2.17-.488 2.84-.04.57.382.859 1.057.859 2.005v59.026c0 .988.466 1.838 1.425 2.602 1.694 1.349 1.928 1.943 1.928 2.385v.266c0 .385-.147 1.643-2.035 1.643h-7.614c-1.262 0-2.047-.713-2.211-2.006l-.11-2.677a15.507 15.507 0 0 1-5.046 3.771c-2.526 1.196-5.264 1.802-8.134 1.802M267.06 34.262c-3.626 0-6.558 1.544-8.793 4.63-2.237 3.087-3.354 6.944-3.354 11.573 0 1.781.12 3.295.363 4.541l20.214-7.123c1.45-.592 2.175-1.631 2.175-3.116 0-2.254-1.042-4.57-3.127-6.944-2.085-2.373-4.578-3.561-7.479-3.561m16.77 28.223c.422-.652.997-.905 1.722-.757.725.149 1.027.638.906 1.469-.665 3.147-2.598 6.054-5.8 8.725-3.205 2.671-7.404 4.006-12.6 4.006-5.983 0-10.984-2.077-15.003-6.232-4.019-4.153-6.028-9.616-6.028-16.38 0-6.233 2.054-11.442 6.165-15.626 4.109-4.184 9.184-6.277 15.228-6.277 5.136 0 9.23 1.35 12.283 4.05 3.05 2.703 4.577 5.743 4.577 9.127 0 2.553-1.42 4.303-4.26 5.252l-25.11 8.103c1.028 3.858 2.856 6.87 5.485 9.035 2.628 2.168 5.786 3.25 9.472 3.25 6.224 0 10.545-2.581 12.963-7.745" fill="#FFF"/>
        <path d="M267.06 34.64c-3.478 0-6.33 1.505-8.48 4.472-2.176 3.005-3.281 6.825-3.281 11.353 0 1.547.094 2.9.278 4.033l19.782-6.971c1.287-.526 1.92-1.43 1.92-2.76 0-2.15-1.02-4.404-3.033-6.697-2-2.275-4.418-3.43-7.187-3.43zm-12.08 20.872-.083-.435c-.245-1.262-.37-2.814-.37-4.612 0-4.688 1.154-8.656 3.426-11.794 2.301-3.176 5.366-4.788 9.106-4.788 3.004 0 5.617 1.243 7.77 3.692 2.138 2.435 3.222 4.854 3.222 7.193 0 1.645-.812 2.812-2.413 3.465l-20.657 7.28zm13.44-23.72c-5.908 0-10.937 2.073-14.952 6.16-4.018 4.092-6.056 9.26-6.056 15.363 0 6.636 1.992 12.06 5.923 16.12 3.922 4.058 8.877 6.114 14.722 6.114 5.077 0 9.233-1.318 12.35-3.916 3.12-2.602 5.028-5.467 5.673-8.513.11-.762-.227-.943-.608-1.021-.556-.114-.972.066-1.304.568-2.478 5.27-6.953 7.943-13.302 7.943-3.763 0-7.033-1.123-9.72-3.34-2.68-2.208-4.567-5.313-5.609-9.23l-.091-.345 25.452-8.212c2.688-.899 3.996-2.5 3.996-4.894 0-3.252-1.497-6.229-4.45-8.844-2.966-2.623-7.012-3.953-12.025-3.953zm-.363 44.515c-6.066 0-11.207-2.136-15.281-6.35-4.071-4.206-6.135-9.806-6.135-16.642 0-6.306 2.11-11.651 6.272-15.887 4.166-4.243 9.383-6.394 15.506-6.394 5.21 0 9.43 1.396 12.541 4.149 3.123 2.765 4.706 5.93 4.706 9.406 0 2.72-1.522 4.61-4.523 5.612l-24.765 7.991c1.017 3.6 2.787 6.458 5.264 8.498 2.545 2.097 5.648 3.162 9.224 3.162 6.115 0 10.242-2.462 12.612-7.526l.026-.046c.507-.785 1.241-1.107 2.125-.923.539.11 1.412.503 1.21 1.893-.684 3.239-2.678 6.246-5.933 8.96-3.261 2.72-7.583 4.097-12.849 4.097z" fill="#FFF"/>
        <path d="M267.06 34.546c-3.51 0-6.389 1.517-8.557 4.51-2.19 3.022-3.3 6.862-3.3 11.41 0 1.605.1 3.002.297 4.159l19.892-7.01c1.33-.543 1.983-1.476 1.983-2.847 0-2.175-1.028-4.45-3.057-6.759-2.019-2.298-4.46-3.463-7.259-3.463zm-12.005 20.84-.063-.326c-.244-1.254-.368-2.8-.368-4.595 0-4.668 1.146-8.618 3.407-11.739 2.283-3.15 5.321-4.748 9.028-4.748 2.974 0 5.564 1.23 7.698 3.66 2.12 2.416 3.197 4.815 3.197 7.13 0 1.603-.792 2.74-2.353 3.378l-20.546 7.24zm13.364-23.689c-5.933 0-10.987 2.083-15.02 6.19-4.037 4.108-6.083 9.3-6.083 15.428 0 6.661 2 12.106 5.948 16.185 3.943 4.077 8.92 6.144 14.793 6.144 5.1 0 9.277-1.325 12.412-3.939 3.137-2.617 5.056-5.499 5.705-8.566.124-.853-.3-1.055-.682-1.133-.605-.124-1.052.071-1.409.615-2.46 5.238-6.906 7.894-13.217 7.894-3.74 0-6.99-1.116-9.658-3.317-2.664-2.195-4.541-5.285-5.578-9.182l-.069-.259 25.367-8.184c2.733-.913 4.063-2.544 4.063-4.983 0-3.281-1.509-6.28-4.482-8.916-2.984-2.639-7.052-3.977-12.09-3.977zm-.362 44.516c-6.038 0-11.157-2.127-15.212-6.32-4.053-4.189-6.108-9.767-6.108-16.578 0-6.28 2.1-11.604 6.246-15.823 4.146-4.222 9.34-6.363 15.436-6.363 5.185 0 9.383 1.387 12.476 4.124 3.102 2.747 4.674 5.888 4.674 9.337 0 2.675-1.5 4.532-4.457 5.522L256.26 58.13c1.02 3.66 2.809 6.563 5.32 8.633 2.562 2.112 5.687 3.184 9.286 3.184 6.072 0 10.344-2.55 12.7-7.581l.02-.035c.482-.746 1.182-1.054 2.024-.88.872.177 1.275.812 1.134 1.786-.679 3.212-2.663 6.201-5.9 8.902-3.244 2.702-7.545 4.074-12.787 4.074z" fill="#FFF"/>
        <path d="M267.06 34.925c-3.378 0-6.151 1.465-8.243 4.351-2.142 2.956-3.229 6.721-3.229 11.19 0 1.378.075 2.602.222 3.647l19.451-6.854c1.174-.48 1.729-1.273 1.729-2.491 0-2.082-.997-4.273-2.964-6.512-1.942-2.21-4.286-3.331-6.967-3.331zm-12.3 20.966-.147-.76c-.249-1.275-.374-2.846-.374-4.666 0-4.748 1.17-8.771 3.478-11.959 2.36-3.256 5.502-4.907 9.342-4.907 3.091 0 5.779 1.276 7.99 3.79 2.183 2.488 3.29 4.97 3.29 7.379 0 1.746-.895 3.035-2.59 3.728L254.76 55.89zm13.66-23.815c-5.825 0-10.786 2.043-14.743 6.074-3.965 4.036-5.976 9.138-5.976 15.165 0 6.56 1.967 11.918 5.843 15.924 3.867 4 8.75 6.027 14.513 6.027 5.007 0 9.1-1.295 12.163-3.849 3.07-2.561 4.945-5.372 5.577-8.355.084-.59-.154-.638-.384-.685-.447-.09-.736.04-1.006.45-2.502 5.336-7.067 8.067-13.54 8.067-3.834 0-7.167-1.147-9.907-3.406-2.727-2.247-4.646-5.401-5.703-9.377l-.161-.602 25.712-8.296c2.59-.866 3.797-2.335 3.797-4.624 0-3.169-1.465-6.073-4.355-8.634-2.91-2.574-6.891-3.88-11.83-3.88zm-.363 44.515c-6.148 0-11.36-2.166-15.49-6.438-4.125-4.26-6.216-9.926-6.216-16.838 0-6.383 2.138-11.794 6.355-16.086 4.221-4.3 9.508-6.48 15.713-6.48 5.284 0 9.568 1.422 12.735 4.222 3.186 2.823 4.8 6.058 4.8 9.618 0 2.856-1.586 4.834-4.717 5.882l-24.505 7.906c1.012 3.42 2.726 6.143 5.096 8.095 2.49 2.055 5.531 3.096 9.038 3.096 5.908 0 10.063-2.477 12.35-7.361l.044-.079c.568-.88 1.428-1.258 2.429-1.05 1.07.22 1.606 1.047 1.436 2.212-.699 3.314-2.726 6.38-6.032 9.137-3.315 2.763-7.701 4.164-13.036 4.164zM331.78 32.304c.907 0 1.36.326 1.36.979v.267c0 .535-.665 1.246-1.994 2.137-1.33.89-2.207 1.84-2.628 2.849l-14.323 34.722c-.484 1.188-1.269 1.78-2.357 1.78h-2.81c-1.088 0-1.903-.592-2.447-1.78l-16.226-34.722c-.484-1.01-1.255-1.959-2.311-2.85-1.058-.89-1.587-1.601-1.587-2.136v-.267c0-.653.454-.98 1.36-.98h12.6c.845 0 1.27.356 1.27 1.069v.266c0 .239-.515.846-1.542 1.826-1.029.978-1.33 2.034-.906 3.161l12.78 30.804 12.42-30.003c.361-.949.407-1.75.135-2.404-.272-.653-.65-1.127-1.133-1.424a38.735 38.735 0 0 1-1.45-.935c-.484-.326-.725-.668-.725-1.025v-.266c0-.713.453-1.068 1.36-1.068h9.154z" fill="#FFF"/>
        <path d="M287.817 32.682c-.974 0-.974.391-.974.601v.267c0 .234.189.786 1.452 1.849 1.092.92 1.903 1.921 2.41 2.975l16.227 34.725c.48 1.05 1.165 1.56 2.097 1.56h2.81c.921 0 1.575-.505 1.999-1.542l14.321-34.724c.45-1.075 1.382-2.09 2.77-3.02 1.648-1.104 1.825-1.643 1.825-1.823v-.267c0-.21 0-.6-.974-.6h-9.155c-.974 0-.974.448-.974.688v.268c0 .279.303.54.558.71.478.325.957.634 1.436.927.551.34.983.879 1.286 1.602.308.743.264 1.644-.133 2.681L312.02 70.434l-13.138-31.667c-.484-1.288-.147-2.487.996-3.576 1.272-1.212 1.412-1.535 1.427-1.587l-.004-.233c0-.333-.068-.689-.882-.689h-12.601zm24.022 42.735h-2.81c-1.25 0-2.191-.675-2.8-2.004l-16.224-34.719c-.458-.953-1.203-1.87-2.212-2.72-1.175-.987-1.722-1.758-1.722-2.424v-.267c0-.507.227-1.358 1.746-1.358h12.6c1.052 0 1.654.527 1.654 1.446v.268c0 .261-.128.638-1.657 2.096-.917.873-1.183 1.775-.814 2.759l12.418 29.93 12.063-29.14c.321-.844.37-1.56.136-2.119-.239-.573-.57-.993-.981-1.246-.49-.3-.977-.614-1.465-.944-.59-.397-.89-.847-.89-1.336v-.268c0-.54.226-1.446 1.744-1.446h9.155c1.519 0 1.746.85 1.746 1.358v.267c0 .683-.687 1.461-2.162 2.45-1.262.845-2.1 1.745-2.49 2.68L314.553 73.4c-.545 1.337-1.459 2.017-2.714 2.017z" fill="#FFF"/>
        <path d="M287.817 32.587c-1.07 0-1.07.488-1.07.696v.267c0 .306.257.889 1.485 1.92 1.082.913 1.884 1.903 2.385 2.944l16.227 34.725c.497 1.086 1.212 1.615 2.185 1.615h2.81c.965 0 1.648-.524 2.088-1.602l14.322-34.723c.442-1.058 1.362-2.058 2.734-2.977 1.625-1.089 1.868-1.66 1.868-1.902v-.267c0-.208 0-.696-1.07-.696h-9.156c-.943 0-1.07.397-1.07.784v.268c0 .256.201.523.599.789.48.325.959.634 1.44.928.534.33.954.853 1.248 1.558.3.719.255 1.598-.133 2.612l-12.69 30.657-13.049-31.451c-.468-1.247-.139-2.412.974-3.472 1.324-1.263 1.444-1.583 1.453-1.634v-.255c0-.387-.116-.784-.98-.784h-12.6zm24.022 42.734h-2.81c-1.208 0-2.12-.655-2.711-1.947l-16.225-34.72c-.465-.966-1.219-1.893-2.238-2.752-1.135-.955-1.687-1.725-1.687-2.352v-.267c0-.472.214-1.264 1.649-1.264h12.6c1.356 0 1.558.848 1.558 1.352v.268c0 .23-.126.596-1.628 2.029-.948.9-1.221 1.836-.837 2.858l12.509 30.148 12.151-29.356c.331-.867.379-1.607.137-2.19-.248-.59-.59-1.026-1.02-1.29a36.57 36.57 0 0 1-1.46-.942c-.564-.378-.85-.801-.85-1.257v-.268c0-.504.213-1.352 1.648-1.352h9.155c1.435 0 1.65.792 1.65 1.264v.267c0 .648-.674 1.402-2.121 2.37-1.277.856-2.127 1.772-2.524 2.723l-14.322 34.72c-.529 1.3-1.412 1.958-2.624 1.958z" fill="#FFF"/>
        <path d="M287.817 32.967c-.685 0-.685.182-.685.316v.267c0 .082.065.552 1.351 1.633 1.124.947 1.959 1.98 2.483 3.07l16.228 34.728c.437.952 1.019 1.394 1.835 1.394h2.81c.8 0 1.35-.434 1.73-1.364l14.322-34.724c.472-1.128 1.439-2.187 2.875-3.148 1.674-1.122 1.699-1.585 1.699-1.59v-.266c0-.134 0-.316-.685-.316h-9.155c-.684 0-.684.196-.684.404v.268c0 .09.113.264.43.476.477.322.951.629 1.427.92.604.372 1.074.956 1.4 1.734.338.812.295 1.784-.128 2.89l-13.05 31.528-13.407-32.312c-.523-1.39-.153-2.73 1.063-3.888 1.002-.955 1.27-1.333 1.336-1.44l-.001-.174c0-.237 0-.406-.593-.406h-12.601zM311.839 75.7h-2.81c-1.354 0-2.413-.752-3.064-2.172l-16.222-34.716c-.441-.915-1.16-1.799-2.14-2.624-1.242-1.045-1.82-1.884-1.82-2.64v-.266c0-.386.146-1.642 2.034-1.642h12.6c1.218 0 1.944.646 1.944 1.73v.268c0 .36-.129.76-1.745 2.3-.838.798-1.074 1.578-.745 2.456l12.147 29.275 11.795-28.494c.293-.77.34-1.413.137-1.904-.217-.517-.508-.893-.868-1.113-.491-.3-.983-.618-1.475-.952-.673-.452-1.016-.98-1.016-1.568v-.268c0-.406.147-1.73 2.034-1.73h9.155c1.888 0 2.035 1.256 2.035 1.642v.267c0 .796-.706 1.623-2.289 2.684-1.214.813-2.016 1.672-2.384 2.553l-14.321 34.72c-.585 1.434-1.617 2.194-2.982 2.194zM352.81 34.262c-3.627 0-6.558 1.544-8.793 4.63-2.237 3.087-3.354 6.944-3.354 11.573 0 1.781.12 3.295.363 4.541l20.213-7.123c1.45-.592 2.176-1.631 2.176-3.116 0-2.254-1.042-4.57-3.127-6.944-2.085-2.373-4.578-3.561-7.479-3.561m16.77 28.223c.421-.652.997-.905 1.722-.757.725.149 1.027.638.906 1.469-.665 3.147-2.599 6.054-5.801 8.725-3.204 2.671-7.403 4.006-12.6 4.006-5.982 0-10.983-2.077-15.002-6.232-4.019-4.153-6.028-9.616-6.028-16.38 0-6.233 2.054-11.442 6.165-15.626 4.109-4.184 9.184-6.277 15.228-6.277 5.136 0 9.23 1.35 12.283 4.05 3.05 2.703 4.577 5.743 4.577 9.127 0 2.553-1.42 4.303-4.26 5.252l-25.11 8.103c1.028 3.858 2.856 6.87 5.485 9.035 2.628 2.168 5.786 3.25 9.472 3.25 6.224 0 10.545-2.581 12.963-7.745" fill="#FFF"/>
        <path d="M352.81 34.64c-3.478 0-6.33 1.505-8.479 4.472-2.178 3.005-3.282 6.825-3.282 11.353 0 1.55.093 2.903.278 4.033l19.783-6.971c1.285-.526 1.92-1.43 1.92-2.76 0-2.15-1.022-4.404-3.035-6.697-1.999-2.275-4.417-3.43-7.185-3.43zm-12.078 20.872-.085-.435c-.245-1.259-.37-2.81-.37-4.612 0-4.688 1.153-8.656 3.426-11.794 2.3-3.176 5.365-4.788 9.107-4.788 3.002 0 5.616 1.243 7.77 3.692 2.137 2.435 3.22 4.854 3.22 7.193 0 1.645-.81 2.811-2.411 3.465l-20.657 7.28zm13.437-23.72c-5.906 0-10.936 2.073-14.95 6.16-4.019 4.091-6.057 9.26-6.057 15.363 0 6.636 1.993 12.06 5.922 16.12 3.924 4.058 8.877 6.114 14.723 6.114 5.077 0 9.232-1.318 12.35-3.916 3.119-2.601 5.028-5.467 5.673-8.513.11-.762-.227-.943-.608-1.021-.556-.114-.972.066-1.304.568-2.477 5.27-6.953 7.943-13.302 7.943-3.763 0-7.033-1.123-9.72-3.34-2.68-2.208-4.567-5.313-5.609-9.23l-.092-.345 25.453-8.212c2.687-.898 3.995-2.5 3.995-4.894 0-3.253-1.497-6.23-4.45-8.844-2.965-2.623-7.01-3.953-12.024-3.953zm-.362 44.515c-6.066 0-11.207-2.136-15.281-6.35-4.072-4.206-6.135-9.806-6.135-16.642 0-6.307 2.11-11.652 6.273-15.888 4.164-4.242 9.382-6.393 15.505-6.393 5.21 0 9.43 1.396 12.542 4.149 3.121 2.764 4.704 5.93 4.704 9.406 0 2.72-1.522 4.61-4.522 5.612l-24.765 7.991c1.018 3.6 2.788 6.458 5.264 8.498 2.545 2.097 5.648 3.162 9.224 3.162 6.116 0 10.241-2.462 12.612-7.526l.026-.046c.506-.785 1.239-1.107 2.126-.923.538.11 1.41.503 1.21 1.893-.685 3.24-2.68 6.247-5.935 8.96-3.26 2.72-7.582 4.097-12.848 4.097z" fill="#FFF"/>
        <path d="M352.81 34.546c-3.511 0-6.39 1.517-8.557 4.51-2.19 3.022-3.3 6.862-3.3 11.41 0 1.605.1 3.002.297 4.159l19.892-7.01c1.33-.543 1.983-1.476 1.983-2.847 0-2.175-1.028-4.45-3.056-6.759-2.02-2.298-4.461-3.463-7.26-3.463zm-12.005 20.84-.063-.326c-.245-1.254-.368-2.8-.368-4.595 0-4.668 1.147-8.618 3.407-11.739 2.282-3.15 5.32-4.748 9.029-4.748 2.973 0 5.563 1.23 7.697 3.66 2.121 2.416 3.197 4.815 3.197 7.13 0 1.603-.792 2.74-2.353 3.378l-20.546 7.24zm13.364-23.689c-5.934 0-10.986 2.083-15.02 6.19-4.037 4.108-6.084 9.299-6.084 15.428 0 6.661 2.002 12.106 5.95 16.185 3.942 4.077 8.919 6.144 14.792 6.144 5.1 0 9.277-1.325 12.412-3.939 3.136-2.615 5.056-5.498 5.705-8.566.124-.853-.3-1.055-.682-1.133-.605-.124-1.052.071-1.408.615-2.46 5.238-6.908 7.894-13.218 7.894-3.739 0-6.99-1.116-9.658-3.317-2.664-2.195-4.541-5.285-5.579-9.182l-.067-.259 25.366-8.184c2.732-.913 4.062-2.544 4.062-4.983 0-3.281-1.508-6.28-4.482-8.916-2.984-2.639-7.052-3.977-12.089-3.977zm-.362 44.516c-6.038 0-11.156-2.127-15.211-6.32-4.054-4.189-6.11-9.767-6.11-16.578 0-6.28 2.102-11.604 6.247-15.823 4.146-4.222 9.34-6.363 15.436-6.363 5.186 0 9.383 1.387 12.477 4.124 3.1 2.746 4.672 5.888 4.672 9.337 0 2.675-1.5 4.533-4.457 5.522l-24.85 8.018c1.019 3.66 2.807 6.563 5.319 8.633 2.562 2.112 5.687 3.184 9.286 3.184 6.072 0 10.344-2.55 12.7-7.581l.019-.035c.484-.746 1.184-1.054 2.025-.88.872.177 1.275.812 1.133 1.786-.679 3.212-2.663 6.202-5.9 8.902-3.242 2.702-7.544 4.074-12.786 4.074z" fill="#FFF"/>
        <path d="M352.81 34.925c-3.379 0-6.152 1.465-8.243 4.351-2.142 2.956-3.229 6.721-3.229 11.19 0 1.378.075 2.602.222 3.647l19.452-6.854c1.174-.48 1.728-1.273 1.728-2.491 0-2.082-.997-4.273-2.963-6.512-1.943-2.21-4.287-3.331-6.967-3.331zm-12.3 20.966-.148-.76c-.248-1.275-.374-2.846-.374-4.666 0-4.748 1.171-8.771 3.479-11.959 2.358-3.256 5.502-4.907 9.343-4.907 3.09 0 5.778 1.276 7.99 3.79 2.183 2.488 3.29 4.97 3.29 7.379 0 1.746-.896 3.035-2.591 3.728L340.51 55.89zm13.66-23.815c-5.825 0-10.785 2.043-14.744 6.074-3.964 4.036-5.975 9.138-5.975 15.165 0 6.56 1.966 11.918 5.843 15.924 3.867 4 8.75 6.027 14.513 6.027 5.007 0 9.099-1.295 12.163-3.849 3.069-2.56 4.944-5.371 5.576-8.355.085-.59-.153-.638-.383-.685-.443-.09-.737.039-1.006.449-2.502 5.337-7.067 8.068-13.541 8.068-3.833 0-7.166-1.147-9.905-3.406-2.728-2.247-4.646-5.401-5.704-9.377l-.16-.602 25.71-8.296c2.59-.866 3.797-2.335 3.797-4.624 0-3.169-1.465-6.073-4.354-8.634-2.91-2.574-6.892-3.88-11.83-3.88zm-.363 44.515c-6.149 0-11.36-2.166-15.49-6.438-4.124-4.26-6.216-9.926-6.216-16.838 0-6.383 2.138-11.794 6.354-16.086 4.222-4.3 9.509-6.48 15.714-6.48 5.284 0 9.568 1.422 12.735 4.222 3.185 2.822 4.8 6.058 4.8 9.618 0 2.856-1.587 4.834-4.718 5.882l-24.504 7.906c1.012 3.42 2.726 6.143 5.096 8.095 2.491 2.055 5.531 3.096 9.038 3.096 5.907 0 10.062-2.477 12.35-7.361l.043-.079c.569-.88 1.43-1.258 2.43-1.05 1.069.22 1.606 1.047 1.437 2.212-.701 3.315-2.73 6.381-6.033 9.137-3.314 2.763-7.7 4.164-13.036 4.164zM377.918 75.038c-1.149 0-1.723-.386-1.723-1.158v-.267c0-.474.529-1.113 1.587-1.913 1.056-.801 1.586-1.766 1.586-2.894V18.77c0-1.008-.258-1.853-.77-2.537-.514-.681-1.043-1.23-1.587-1.647-.543-.415-.816-.801-.816-1.157v-.178c0-.475.423-.948 1.269-1.424l7.071-3.384c.907-.356 1.6-.4 2.085-.133.482.267.725.727.725 1.38v59.116c0 1.128.59 2.093 1.767 2.894 1.179.8 1.768 1.44 1.768 1.913v.267c0 .772-.605 1.158-1.813 1.158h-11.15z" fill="#FFF"/>
        <path d="M385.88 8.516c-.327 0-.729.093-1.202.279l-7.045 3.371c-.67.379-1.052.768-1.052 1.085v.178c0 .225.236.53.667.858.57.436 1.127 1.014 1.66 1.722.56.747.846 1.676.846 2.761v50.035c0 1.246-.585 2.32-1.737 3.193-1.296.983-1.436 1.458-1.436 1.615v.267c0 .233 0 .78 1.336.78h11.15c1.428 0 1.428-.547 1.428-.78v-.267c0-.12-.116-.592-1.601-1.602-1.284-.873-1.935-1.951-1.935-3.206V9.69c0-.679-.302-.924-.529-1.05a1.127 1.127 0 0 0-.55-.124m3.187 66.901h-11.15c-1.834 0-2.107-.963-2.107-1.537v-.267c0-.612.551-1.316 1.736-2.213.966-.734 1.437-1.582 1.437-2.595V18.77c0-.92-.235-1.697-.696-2.312-.49-.65-1-1.18-1.512-1.573-.65-.495-.965-.972-.965-1.456v-.178c0-.626.477-1.2 1.462-1.754l7.094-3.394c1.058-.417 1.848-.452 2.442-.123.422.233.923.718.923 1.71v59.115c0 1.005.524 1.85 1.601 2.583 1.319.897 1.934 1.604 1.934 2.225v.267c0 .574-.285 1.537-2.199 1.537" fill="#FFF"/>
        <path d="M385.88 8.422c-.34 0-.753.095-1.237.286l-7.052 3.373c-.718.405-1.106.813-1.106 1.17v.178c0 .258.243.581.704.933.56.428 1.113 1.001 1.641 1.702.55.732.827 1.642.827 2.706v50.035c0 1.215-.571 2.264-1.698 3.12-1.283.97-1.474 1.474-1.474 1.688v.268c0 .238 0 .873 1.432.873h11.15c1.524 0 1.524-.635 1.524-.873v-.268c0-.169-.16-.672-1.643-1.68-1.256-.854-1.892-1.906-1.892-3.128V9.69c0-.547-.19-.918-.578-1.132a1.217 1.217 0 0 0-.598-.136m3.187 66.9h-11.15c-1.662 0-2.011-.784-2.011-1.441v-.268c0-.58.54-1.261 1.699-2.139.992-.752 1.474-1.625 1.474-2.669V18.77c0-.94-.24-1.737-.714-2.368-.497-.66-1.013-1.195-1.532-1.591-.624-.478-.927-.93-.927-1.382v-.178c0-.589.462-1.136 1.415-1.672l7.087-3.391c1.022-.402 1.786-.44 2.353-.126.58.32.873.868.873 1.628v59.115c0 1.039.538 1.909 1.644 2.66 1.29.879 1.892 1.56 1.892 2.148v.268c0 .657-.365 1.44-2.103 1.44" fill="#FFF"/>
        <path d="M385.88 8.8c-.29 0-.658.088-1.094.259l-7.026 3.362c-.697.395-.89.709-.89.83v.178c0 .073.116.298.556.634.587.45 1.164 1.047 1.714 1.775.6.8.903 1.785.903 2.933v50.034c0 1.338-.622 2.489-1.848 3.42-1.302.984-1.324 1.385-1.324 1.388v.268c0 .16 0 .494 1.046.494h11.15c1.138 0 1.138-.347 1.138-.494v-.268s-.076-.416-1.476-1.368c-1.367-.93-2.06-2.086-2.06-3.44V9.69c0-.525-.203-.704-.38-.802a.853.853 0 0 0-.41-.087m3.188 66.9h-11.15c-2.163 0-2.397-1.273-2.397-1.82v-.268c0-.717.57-1.47 1.849-2.438.89-.676 1.324-1.451 1.324-2.37V18.771c0-.858-.215-1.58-.639-2.144-.475-.632-.967-1.142-1.457-1.517-.725-.555-1.077-1.105-1.077-1.68v-.18c0-.736.527-1.39 1.609-1.998l7.11-3.404c1.158-.457 2.035-.49 2.711-.116.7.387 1.07 1.064 1.07 1.958v59.115c0 .905.484 1.673 1.477 2.35 1.424.967 2.058 1.726 2.058 2.458v.268c0 .547-.243 1.82-2.488 1.82M420.067 72.99c3.565 0 6.51-1.482 8.838-4.451 2.325-2.967 3.49-6.914 3.49-11.841 0-6.29-1.511-11.589-4.532-15.892-3.022-4.303-6.83-6.455-11.422-6.455-3.868 0-7.01 1.469-9.427 4.407-2.418 2.938-3.626 6.871-3.626 11.797 0 5.935 1.571 11.16 4.714 15.669 3.141 4.511 7.13 6.766 11.965 6.766m-1.088 2.938c-7.01 0-12.706-2.24-17.087-6.722-4.382-4.48-6.571-9.867-6.571-16.159 0-6.172 2.115-11.32 6.345-15.447 4.23-4.124 9.457-6.187 15.682-6.187 6.707 0 12.221 2.181 16.543 6.544 4.32 4.362 6.48 9.72 6.48 16.07 0 6.232-1.993 11.44-5.983 15.624-3.988 4.185-9.125 6.277-15.409 6.277" fill="#FFF"/>
        <path d="M416.441 34.73c-3.729 0-6.799 1.435-9.128 4.266-2.348 2.855-3.54 6.744-3.54 11.558 0 5.83 1.564 11.031 4.647 15.457 3.051 4.379 6.97 6.6 11.648 6.6 3.422 0 6.293-1.447 8.532-4.303 2.261-2.888 3.41-6.794 3.41-11.61 0-6.183-1.503-11.458-4.465-15.677-2.932-4.174-6.669-6.291-11.104-6.291m3.627 38.639c-4.948 0-9.081-2.332-12.285-6.932-3.172-4.553-4.78-9.898-4.78-15.883 0-4.991 1.248-9.04 3.71-12.034 2.482-3.018 5.755-4.548 9.728-4.548 4.705 0 8.654 2.227 11.739 6.618 3.052 4.35 4.6 9.77 4.6 16.108 0 4.987-1.2 9.049-3.569 12.071-2.393 3.052-5.469 4.6-9.143 4.6m-2.72-41.577c-6.09 0-11.275 2.044-15.41 6.077-4.135 4.033-6.231 9.14-6.231 15.178 0 6.164 2.174 11.511 6.464 15.897 4.284 4.383 9.939 6.606 16.808 6.606 6.145 0 11.235-2.073 15.128-6.158 3.9-4.091 5.879-9.262 5.879-15.365 0-6.219-2.144-11.537-6.372-15.806-4.225-4.265-9.698-6.43-16.266-6.43m1.631 44.517c-7.088 0-12.93-2.302-17.364-6.839-4.433-4.531-6.68-10.056-6.68-16.422 0-6.247 2.173-11.535 6.459-15.715 4.285-4.18 9.652-6.298 15.954-6.298 6.784 0 12.442 2.24 16.82 6.659 4.372 4.416 6.59 9.91 6.59 16.334 0 6.303-2.05 11.647-6.088 15.884-4.045 4.244-9.324 6.397-15.69 6.397" fill="#FFF"/>
        <path d="M416.441 34.635c-3.759 0-6.855 1.447-9.202 4.302-2.363 2.872-3.562 6.78-3.562 11.617 0 5.85 1.57 11.068 4.663 15.51 3.07 4.407 7.016 6.642 11.727 6.642 3.454 0 6.351-1.46 8.61-4.34 2.274-2.904 3.429-6.83 3.429-11.669 0-6.202-1.509-11.494-4.482-15.73-2.95-4.202-6.714-6.332-11.183-6.332m3.626 38.64c-4.914 0-9.02-2.319-12.204-6.89-3.161-4.538-4.765-9.864-4.765-15.831 0-4.969 1.242-8.998 3.69-11.974 2.463-2.995 5.71-4.514 9.653-4.514 4.671 0 8.594 2.213 11.659 6.578 3.042 4.333 4.584 9.734 4.584 16.053 0 4.966-1.195 9.009-3.55 12.014-2.373 3.028-5.424 4.563-9.067 4.563m-2.719-41.577c-6.118 0-11.325 2.054-15.478 6.104-4.153 4.052-6.26 9.182-6.26 15.246 0 6.19 2.184 11.559 6.491 15.963 4.303 4.402 9.981 6.634 16.878 6.634 6.173 0 11.286-2.082 15.199-6.187 3.918-4.11 5.905-9.301 5.905-15.43 0-6.244-2.154-11.584-6.4-15.872-4.245-4.285-9.74-6.458-16.335-6.458m1.631 44.516c-7.06 0-12.879-2.291-17.295-6.81-4.414-4.513-6.652-10.015-6.652-16.356 0-6.221 2.163-11.486 6.43-15.648 4.266-4.16 9.61-6.27 15.886-6.27 6.757 0 12.392 2.23 16.75 6.63 4.355 4.398 6.562 9.872 6.562 16.268 0 6.277-2.039 11.6-6.06 15.819-4.026 4.225-9.282 6.367-15.62 6.367" fill="#FFF"/>
        <path d="M416.441 35.014c-3.637 0-6.632 1.4-8.902 4.161-2.307 2.803-3.476 6.631-3.476 11.38 0 5.771 1.547 10.917 4.596 15.295 2.994 4.297 6.832 6.478 11.408 6.478 3.329 0 6.122-1.411 8.303-4.194 2.223-2.836 3.35-6.684 3.35-11.436 0-6.124-1.485-11.345-4.414-15.516-2.874-4.092-6.53-6.168-10.865-6.168m3.626 38.639c-5.049 0-9.262-2.373-12.523-7.054-3.206-4.602-4.831-10.001-4.831-16.045 0-5.058 1.27-9.167 3.776-12.213 2.538-3.088 5.887-4.653 9.952-4.653 4.805 0 8.835 2.267 11.977 6.74 3.086 4.398 4.651 9.872 4.651 16.27 0 5.053-1.22 9.172-3.629 12.245-2.45 3.126-5.604 4.71-9.373 4.71m-2.719-41.577c-6.012 0-11.128 2.017-15.206 5.994-4.078 3.978-6.146 9.017-6.146 14.977 0 6.088 2.147 11.37 6.383 15.7 4.227 4.326 9.812 6.519 16.6 6.519 6.061 0 11.08-2.042 14.917-6.068 3.849-4.037 5.8-9.142 5.8-15.171 0-6.142-2.116-11.393-6.289-15.607-4.17-4.21-9.572-6.344-16.059-6.344m1.631 44.516c-7.17 0-13.081-2.33-17.573-6.926-4.486-4.586-6.76-10.178-6.76-16.619 0-6.325 2.202-11.681 6.544-15.916 4.34-4.235 9.777-6.381 16.158-6.381 6.864 0 12.593 2.27 17.026 6.745 4.427 4.47 6.672 10.032 6.672 16.532 0 6.377-2.075 11.786-6.165 16.077-4.1 4.304-9.451 6.488-15.902 6.488M468.562 73.08c4.169 0 7.507-1.617 10.015-4.852 2.507-3.235 3.763-7.582 3.763-13.044 0-6.173-1.36-11.202-4.08-15.09-2.719-3.887-6.285-5.832-10.696-5.832-2.78 0-5.272.966-7.478 2.893-2.206 1.93-3.49 4.26-3.853 6.99v15.223c0 3.562 1.254 6.738 3.762 9.527 2.507 2.79 5.363 4.184 8.567 4.184m.997-41.666c5.74 0 10.65 2.003 14.73 6.01 4.078 4.006 6.118 9.214 6.118 15.624 0 6.53-2.01 11.975-6.028 16.338-4.02 4.362-8.929 6.543-14.73 6.543-5.56 0-10.031-2.048-13.416-6.143v19.142c0 .948.302 1.72.906 2.314a12.585 12.585 0 0 0 1.769 1.47c.573.384.86.785.86 1.201v.268c0 .77-.603 1.157-1.812 1.157h-11.15c-1.269 0-1.903-.387-1.903-1.157v-.268c0-.356.181-.698.544-1.023.362-.327.74-.61 1.133-.846.392-.239.77-.624 1.133-1.157.363-.535.543-1.19.543-1.96V41.74c0-1.126-.605-2.12-1.812-2.982-1.21-.86-1.813-1.527-1.813-2.003v-.267c0-.713.483-1.246 1.45-1.603l6.526-3.116c1.692-.77 2.539-.356 2.539 1.247l-.09 5.875c1.389-2.314 3.367-4.14 5.936-5.475 2.568-1.335 5.424-2.003 8.567-2.003" fill="#FFF"/>
        <path d="M467.564 34.64c-2.67 0-5.098.942-7.222 2.798-2.124 1.857-3.378 4.13-3.726 6.755l.004 15.175c0 3.45 1.232 6.571 3.664 9.277 2.418 2.691 5.203 4.055 8.278 4.055 4.024 0 7.29-1.582 9.709-4.702 2.443-3.153 3.683-7.464 3.683-12.814 0-6.065-1.35-11.07-4.012-14.876-2.63-3.76-6.123-5.667-10.378-5.667m.998 38.817c-3.306 0-6.285-1.45-8.856-4.312-2.56-2.847-3.858-6.137-3.858-9.778V44.144c.377-2.859 1.715-5.29 3.982-7.272 2.268-1.983 4.87-2.989 7.734-2.989 4.525 0 8.23 2.018 11.014 5.996 2.752 3.934 4.147 9.083 4.147 15.305 0 5.52-1.292 9.985-3.841 13.272-2.572 3.32-6.045 5.002-10.322 5.002M453.987 31.77c-.309 0-.72.114-1.218.342l-6.519 3.112c-1.233.458-1.233 1.064-1.233 1.262v.268c0 .121.118.606 1.653 1.696 1.308.934 1.972 2.04 1.972 3.29v47.185c0 .845-.204 1.574-.608 2.17-.392.576-.813 1.002-1.25 1.27-.369.22-.73.49-1.077.802-.278.249-.42.5-.42.744v.268c0 .213 0 .778 1.52.778h11.148c1.428 0 1.428-.565 1.428-.778v-.268c0-.281-.234-.58-.694-.89-.593-.398-1.206-.908-1.822-1.513-.676-.664-1.02-1.533-1.02-2.583V68.717l.686.829c3.292 3.983 7.704 6.003 13.116 6.003 5.66 0 10.52-2.159 14.444-6.42 3.934-4.269 5.928-9.68 5.928-16.081 0-6.277-2.02-11.444-6.005-15.357-3.986-3.914-8.85-5.9-14.458-5.9-3.064 0-5.885.66-8.385 1.96-2.492 1.296-4.439 3.09-5.786 5.333l-.74 1.232.113-7.307c0-.41-.065-.947-.374-1.141a.743.743 0 0 0-.4-.097m3.97 63.944h-11.15c-1.892 0-2.289-.834-2.289-1.535v-.268c0-.467.226-.906.67-1.304a7.678 7.678 0 0 1 1.192-.888c.342-.208.683-.56 1.013-1.045.317-.468.479-1.057.479-1.749V41.741c0-1.007-.542-1.882-1.654-2.676-1.345-.958-1.972-1.69-1.972-2.31v-.268c0-.882.572-1.54 1.7-1.956l6.493-3.102c1.048-.477 1.818-.542 2.363-.2.485.304.73.905.73 1.786l-.07 4.574c1.36-1.853 3.154-3.366 5.351-4.508 2.613-1.358 5.555-2.047 8.746-2.047 5.82 0 10.868 2.059 15.003 6.12 4.135 4.062 6.232 9.409 6.232 15.894 0 6.595-2.062 12.177-6.127 16.59-4.078 4.425-9.13 6.67-15.017 6.67-5.289 0-9.667-1.85-13.03-5.5v18.118c0 .854.26 1.523.793 2.047a12.32 12.32 0 0 0 1.713 1.425c.683.458 1.029.968 1.029 1.514v.268c0 .573-.285 1.535-2.199 1.535" fill="#FFF"/>
        <path d="M467.564 34.546c-2.693 0-5.144.95-7.286 2.821-2.141 1.874-3.406 4.166-3.757 6.814l.002 15.187c0 3.474 1.242 6.616 3.689 9.34 2.437 2.711 5.247 4.087 8.35 4.087 4.055 0 7.346-1.595 9.785-4.74 2.457-3.17 3.703-7.5 3.703-12.871 0-6.085-1.355-11.107-4.029-14.93-2.649-3.787-6.168-5.708-10.457-5.708m.998 38.817c-3.277 0-6.232-1.44-8.784-4.28-2.544-2.83-3.833-6.098-3.833-9.715V44.145c.372-2.825 1.7-5.236 3.949-7.202 2.25-1.967 4.83-2.965 7.67-2.965 4.492 0 8.17 2.004 10.934 5.955 2.74 3.918 4.13 9.049 4.13 15.25 0 5.498-1.285 9.946-3.82 13.216-2.554 3.294-6.002 4.964-10.246 4.964m-14.573-41.685c-.327 0-.751.117-1.26.348l-6.521 3.115c-.874.323-1.288.76-1.288 1.346v.268c0 .17.165.686 1.693 1.773 1.283.914 1.933 1.996 1.933 3.212v47.187c0 .825-.2 1.536-.592 2.117-.384.564-.795.982-1.221 1.24-.373.224-.74.498-1.09.814-.3.268-.452.542-.452.814v.268c0 .239 0 .873 1.616.873h11.148c1.524 0 1.524-.634 1.524-.873v-.268c0-.315-.247-.64-.736-.967a13.014 13.014 0 0 1-1.808-1.502c-.657-.646-.99-1.492-.99-2.516V68.984l.513.622c3.31 4.006 7.749 6.038 13.191 6.038 5.688 0 10.572-2.17 14.516-6.45 3.95-4.288 5.953-9.72 5.953-16.147 0-6.302-2.031-11.492-6.035-15.423-4.003-3.933-8.89-5.927-14.525-5.927-3.08 0-5.917.663-8.43 1.97-2.509 1.304-4.468 3.11-5.824 5.369l-.555.924.108-6.95c0-.636-.141-1.048-.42-1.222a.833.833 0 0 0-.448-.11m3.966 63.943h-11.148c-1.814 0-2.194-.784-2.194-1.44v-.27c0-.437.215-.853.639-1.232.377-.341.773-.636 1.178-.878.353-.216.705-.577 1.043-1.072.327-.486.494-1.09.494-1.802V41.74c0-1.038-.554-1.939-1.694-2.751-1.318-.938-1.931-1.649-1.931-2.234v-.268c0-.838.55-1.468 1.637-1.869l6.502-3.105c1.014-.46 1.754-.525 2.268-.205.455.286.686.86.686 1.708l-.075 4.878c1.37-1.956 3.216-3.543 5.497-4.729 2.599-1.352 5.526-2.036 8.701-2.036 5.794 0 10.819 2.05 14.935 6.093 4.116 4.041 6.203 9.367 6.203 15.825 0 6.572-2.053 12.132-6.102 16.528-4.058 4.405-9.087 6.638-14.945 6.638-5.348 0-9.76-1.901-13.126-5.652v18.366c0 .88.269 1.571.822 2.114.586.576 1.167 1.06 1.725 1.434.655.44.987.924.987 1.437v.268c0 .657-.364 1.44-2.102 1.44" fill="#FFF"/>
        <path d="M467.564 34.925c-2.595 0-4.96.917-7.03 2.725-2.07 1.812-3.293 4.025-3.63 6.58l.005 15.138c0 3.379 1.208 6.437 3.592 9.088 2.361 2.628 5.073 3.96 8.06 3.96 3.928 0 7.117-1.545 9.48-4.59 2.403-3.103 3.623-7.357 3.623-12.642 0-6.007-1.332-10.958-3.96-14.715-2.573-3.679-5.986-5.544-10.14-5.544zm.998 38.817c-3.392 0-6.445-1.484-9.073-4.408-2.608-2.9-3.93-6.253-3.93-9.966V44.144c.386-2.952 1.757-5.454 4.079-7.484 2.322-2.03 4.989-3.061 7.926-3.061 4.626 0 8.412 2.06 11.252 6.12 2.786 3.982 4.198 9.186 4.198 15.465 0 5.583-1.312 10.106-3.9 13.444-2.63 3.393-6.181 5.114-10.552 5.114zm-23.256-36.987s.078.43 1.533 1.466c1.389.99 2.092 2.175 2.092 3.52v47.186c0 .9-.22 1.683-.656 2.326-.415.61-.865 1.066-1.34 1.353-.355.214-.7.473-1.03.77-.15.135-.328.335-.328.536v.268c0 .135 0 .494 1.23.494h11.148c1.139 0 1.139-.346 1.139-.494v-.268c0-.174-.207-.413-.568-.654a13.42 13.42 0 0 1-1.864-1.548c-.732-.72-1.103-1.656-1.103-2.783V67.916l1.199 1.452c3.234 3.913 7.571 5.898 12.891 5.898 5.575 0 10.363-2.129 14.23-6.327 3.883-4.216 5.853-9.562 5.853-15.892 0-6.199-1.992-11.297-5.921-15.155-3.929-3.859-8.724-5.816-14.253-5.816-3.017 0-5.792.648-8.25 1.925-2.445 1.272-4.353 3.03-5.672 5.228l-1.294 2.156.13-8.38c0-.693-.185-.862-.241-.898-.146-.091-.447-.142-1.34.263l-6.515 3.11c-.963.359-1.07.747-1.07 1.007v.268zM457.956 96h-11.15c-2.243 0-2.578-1.14-2.578-1.82v-.268c0-.55.257-1.06.764-1.513.394-.355.81-.666 1.236-.922.306-.186.618-.51.924-.96.284-.42.429-.955.429-1.59V41.741c0-.91-.502-1.71-1.534-2.446-1.446-1.029-2.091-1.812-2.091-2.54v-.268c0-.696.327-1.647 1.888-2.222l6.468-3.092c1.145-.524 2.008-.582 2.645-.184.573.36.864 1.042.864 2.026l-.057 3.72c1.309-1.577 2.957-2.888 4.913-3.904 2.654-1.381 5.642-2.081 8.881-2.081 5.9 0 11.015 2.087 15.208 6.204 4.19 4.115 6.315 9.53 6.315 16.093 0 6.668-2.087 12.315-6.2 16.782-4.135 4.487-9.26 6.762-15.232 6.762-5.11 0-9.391-1.703-12.74-5.065v17.401c0 .773.232 1.378.708 1.846.57.56 1.133 1.028 1.671 1.39.766.515 1.155 1.103 1.155 1.749v.268c0 .548-.243 1.82-2.488 1.82zM514.88 34.262c-3.625 0-6.557 1.544-8.792 4.63-2.237 3.087-3.354 6.944-3.354 11.573 0 1.781.12 3.295.363 4.541l20.214-7.123c1.45-.592 2.175-1.631 2.175-3.116 0-2.254-1.042-4.57-3.127-6.944-2.085-2.373-4.578-3.561-7.478-3.561m16.77 28.223c.42-.652.996-.905 1.72-.757.726.149 1.028.638.907 1.469-.665 3.147-2.598 6.054-5.8 8.725-3.205 2.671-7.404 4.006-12.6 4.006-5.983 0-10.984-2.077-15.002-6.232-4.02-4.153-6.028-9.616-6.028-16.38 0-6.233 2.053-11.442 6.164-15.626 4.108-4.184 9.185-6.277 15.228-6.277 5.136 0 9.23 1.35 12.283 4.05 3.05 2.703 4.577 5.743 4.577 9.127 0 2.553-1.42 4.303-4.26 5.252l-25.11 8.103c1.028 3.858 2.856 6.87 5.485 9.035 2.628 2.168 5.786 3.25 9.473 3.25 6.224 0 10.544-2.581 12.962-7.745" fill="#FFF"/>
        <path d="M514.88 34.64c-3.477 0-6.329 1.505-8.478 4.472-2.177 3.005-3.282 6.825-3.282 11.353 0 1.547.094 2.9.278 4.033l19.782-6.971c1.286-.526 1.92-1.43 1.92-2.76 0-2.15-1.021-4.404-3.034-6.697-1.999-2.275-4.417-3.43-7.185-3.43zm-12.078 20.872-.084-.435c-.245-1.262-.37-2.814-.37-4.612 0-4.688 1.153-8.656 3.426-11.794 2.301-3.176 5.366-4.788 9.107-4.788 3.002 0 5.616 1.243 7.77 3.692 2.137 2.435 3.22 4.854 3.22 7.193 0 1.645-.81 2.812-2.412 3.465l-20.657 7.28zm13.438-23.72c-5.906 0-10.936 2.073-14.95 6.16-4.02 4.092-6.057 9.26-6.057 15.363 0 6.636 1.993 12.06 5.922 16.12 3.924 4.058 8.877 6.114 14.723 6.114 5.077 0 9.232-1.318 12.35-3.916 3.12-2.602 5.029-5.467 5.673-8.513.11-.762-.227-.943-.608-1.021-.56-.114-.972.066-1.304.568-2.477 5.27-6.951 7.943-13.301 7.943-3.763 0-7.033-1.123-9.72-3.34-2.68-2.208-4.568-5.313-5.61-9.23l-.092-.345 25.454-8.212c2.686-.899 3.995-2.5 3.995-4.894 0-3.252-1.498-6.229-4.45-8.844-2.966-2.623-7.012-3.953-12.025-3.953zm-.362 44.515c-6.066 0-11.206-2.136-15.281-6.35-4.072-4.206-6.135-9.806-6.135-16.642 0-6.306 2.11-11.651 6.272-15.887 4.166-4.243 9.382-6.394 15.506-6.394 5.21 0 9.43 1.396 12.542 4.149 3.122 2.765 4.704 5.93 4.704 9.406 0 2.72-1.521 4.61-4.522 5.612L504.2 58.192c1.017 3.6 2.788 6.458 5.264 8.498 2.545 2.097 5.649 3.162 9.225 3.162 6.03 0 10.274-2.532 12.611-7.526l.026-.046c.507-.785 1.24-1.107 2.126-.923.538.11 1.411.503 1.21 1.893-.685 3.239-2.68 6.246-5.934 8.96-3.261 2.72-7.584 4.097-12.849 4.097z" fill="#FFF"/>
        <path d="M514.88 34.546c-3.509 0-6.388 1.517-8.556 4.51-2.19 3.022-3.3 6.862-3.3 11.41 0 1.602.1 2.998.297 4.159l19.892-7.01c1.33-.543 1.984-1.475 1.984-2.847 0-2.175-1.029-4.45-3.058-6.759-2.018-2.298-4.46-3.463-7.258-3.463zm-12.004 20.84-.063-.326c-.244-1.257-.368-2.803-.368-4.595 0-4.668 1.147-8.618 3.407-11.739 2.283-3.15 5.321-4.748 9.029-4.748 2.973 0 5.563 1.23 7.697 3.66 2.121 2.416 3.197 4.815 3.197 7.13 0 1.603-.791 2.74-2.353 3.378l-20.546 7.24zm13.364-23.689c-5.933 0-10.987 2.083-15.02 6.19-4.037 4.108-6.084 9.3-6.084 15.428 0 6.661 2.002 12.106 5.95 16.185 3.943 4.077 8.919 6.144 14.792 6.144 5.1 0 9.277-1.325 12.413-3.939 3.136-2.617 5.055-5.499 5.704-8.566.124-.853-.3-1.055-.682-1.133-.605-.124-1.051.071-1.409.615-2.46 5.238-6.905 7.894-13.216 7.894-3.74 0-6.99-1.116-9.66-3.317-2.662-2.195-4.54-5.285-5.577-9.182l-.069-.259 25.368-8.184c2.732-.913 4.062-2.544 4.062-4.983 0-3.281-1.509-6.28-4.483-8.916-2.984-2.639-7.052-3.977-12.089-3.977zm-.362 44.516c-6.039 0-11.156-2.127-15.211-6.32-4.054-4.189-6.11-9.767-6.11-16.578 0-6.28 2.102-11.604 6.247-15.823 4.146-4.222 9.34-6.363 15.436-6.363 5.185 0 9.383 1.387 12.476 4.124 3.102 2.747 4.674 5.888 4.674 9.337 0 2.675-1.5 4.532-4.456 5.522L504.08 58.13c1.02 3.66 2.808 6.563 5.32 8.633 2.563 2.112 5.687 3.184 9.287 3.184 6.071 0 10.344-2.55 12.7-7.581l.018-.035c.484-.746 1.184-1.054 2.025-.88.872.177 1.275.812 1.133 1.786-.678 3.212-2.662 6.2-5.899 8.902-3.244 2.702-7.545 4.074-12.787 4.074z" fill="#FFF"/>
        <path d="M514.88 34.925c-3.377 0-6.15 1.465-8.242 4.351-2.143 2.956-3.229 6.721-3.229 11.19 0 1.377.075 2.6.222 3.647l19.451-6.854c1.174-.48 1.729-1.273 1.729-2.491 0-2.082-.997-4.273-2.963-6.512-1.943-2.21-4.287-3.331-6.967-3.331zM502.582 55.89l-.147-.76c-.249-1.28-.374-2.85-.374-4.666 0-4.748 1.17-8.771 3.478-11.959 2.359-3.256 5.502-4.907 9.343-4.907 3.09 0 5.778 1.276 7.989 3.79 2.183 2.488 3.29 4.97 3.29 7.379 0 1.746-.895 3.035-2.59 3.728L502.58 55.89zm13.66-23.815c-5.825 0-10.785 2.043-14.744 6.074-3.964 4.036-5.975 9.138-5.975 15.165 0 6.56 1.967 11.918 5.843 15.924 3.867 4 8.75 6.027 14.513 6.027 5.007 0 9.1-1.295 12.163-3.849 3.07-2.562 4.946-5.373 5.577-8.355.084-.59-.154-.638-.384-.685-.448-.09-.737.04-1.005.45-2.502 5.336-7.067 8.067-13.541 8.067-3.833 0-7.166-1.147-9.907-3.406-2.726-2.247-4.645-5.401-5.703-9.377l-.16-.602 25.711-8.296c2.59-.866 3.797-2.335 3.797-4.624 0-3.169-1.465-6.073-4.355-8.634-2.91-2.574-6.892-3.88-11.83-3.88zm-.363 44.515c-6.149 0-11.36-2.166-15.491-6.438-4.124-4.26-6.214-9.926-6.214-16.838 0-6.383 2.137-11.794 6.354-16.086 4.22-4.3 9.508-6.48 15.713-6.48 5.284 0 9.568 1.422 12.735 4.222 3.186 2.823 4.8 6.058 4.8 9.618 0 2.856-1.587 4.834-4.717 5.882l-24.505 7.906c1.012 3.42 2.726 6.143 5.096 8.095 2.492 2.055 5.532 3.096 9.039 3.096 5.908 0 10.063-2.477 12.349-7.361l.044-.079c.57-.88 1.433-1.254 2.43-1.05 1.068.22 1.605 1.047 1.436 2.212-.699 3.313-2.727 6.38-6.032 9.137-3.315 2.763-7.702 4.164-13.037 4.164zM560.747 31.413c2.597 0 4.637.654 6.118 1.959 1.48 1.306 2.22 2.938 2.22 4.896 0 2.791-1.209 4.184-3.624 4.184-1.03 0-1.845-.325-2.448-.978-.605-.653-1.013-1.365-1.224-2.138-.213-.77-.68-1.482-1.405-2.136-.725-.653-1.722-.98-2.992-.98-2.417 0-4.305 1.174-5.665 3.518-1.36 2.345-2.04 5.267-2.04 8.769v20.3c0 1.187.636 2.18 1.905 2.981 1.268.802 1.903 1.41 1.903 1.825v.357c0 .712-.604 1.068-1.813 1.068h-11.24c-1.21 0-1.813-.356-1.813-1.068v-.357c0-.414.559-1.023 1.677-1.825 1.117-.8 1.677-1.794 1.677-2.982V41.741c0-1.247-.604-2.316-1.813-3.205-1.21-.891-1.813-1.544-1.813-1.96v-.178c0-.593.453-1.126 1.36-1.602l6.89-3.027c1.57-.712 2.356-.296 2.356 1.246v7.123c2.054-5.817 5.982-8.725 11.784-8.725" fill="#FFF"/>
        <path d="M547.857 31.81c-.277 0-.645.101-1.09.303l-6.892 3.029c-.743.39-1.132.818-1.132 1.256v.18c0 .043.047.467 1.658 1.655 1.306.96 1.968 2.141 1.968 3.508v27.064c0 1.308-.618 2.416-1.836 3.29-1.445 1.034-1.518 1.446-1.518 1.518v.357c0 .189 0 .689 1.426.689h11.242c1.426 0 1.426-.5 1.426-.689v-.357c0-.016-.02-.428-1.727-1.505-1.38-.873-2.08-1.985-2.08-3.303V48.507c0-3.552.703-6.566 2.09-8.956 1.427-2.461 3.446-3.71 6-3.71 1.362 0 2.456.364 3.252 1.08.776.698 1.285 1.477 1.517 2.316.195.712.578 1.378 1.138 1.981.53.576 1.238.856 2.161.856 2.21 0 3.24-1.21 3.24-3.805 0-1.864-.684-3.373-2.093-4.616-1.403-1.235-3.374-1.861-5.86-1.861-5.671 0-9.407 2.77-11.42 8.47l-.75 2.126v-9.373c0-.407-.062-.932-.356-1.117a.675.675 0 0 0-.364-.089m3.826 43.608H540.44c-1.816 0-2.197-.787-2.197-1.447v-.357c0-.564.565-1.222 1.834-2.13 1.023-.734 1.52-1.61 1.52-2.678V41.741c0-1.132-.543-2.08-1.66-2.902-1.743-1.284-1.966-1.883-1.966-2.262v-.179c0-.74.525-1.392 1.563-1.936l6.913-3.039c.956-.434 1.674-.488 2.19-.163.471.296.71.888.71 1.755v5.173c2.259-4.75 6.085-7.154 11.4-7.154 2.68 0 4.825.692 6.375 2.055 1.559 1.376 2.349 3.119 2.349 5.18 0 3.77-2.182 4.562-4.012 4.562-1.137 0-2.056-.371-2.733-1.103-.642-.693-1.083-1.465-1.31-2.293-.193-.698-.629-1.357-1.294-1.956-.65-.583-1.567-.88-2.73-.88-2.29 0-4.033 1.088-5.33 3.326-1.32 2.275-1.99 5.163-1.99 8.582v20.298c0 1.06.565 1.93 1.727 2.665 1.439.908 2.08 1.569 2.08 2.143v.357c0 .66-.38 1.447-2.197 1.447" fill="#FFF"/>
        <path d="M547.859 31.716c-.295 0-.677.104-1.132.31l-6.892 3.03c-.783.41-1.188.865-1.188 1.343v.179c0 .113.122.57 1.696 1.73 1.28.942 1.93 2.097 1.93 3.433v27.065c0 1.276-.605 2.356-1.796 3.212-1.446 1.035-1.558 1.483-1.558 1.595v.357c0 .214 0 .783 1.522.783h11.242c1.522 0 1.522-.59 1.522-.783v-.357c0-.11-.126-.549-1.77-1.585-1.352-.855-2.037-1.939-2.037-3.222V48.507c0-3.535.7-6.533 2.077-8.91 1.409-2.428 3.4-3.66 5.918-3.66 1.337 0 2.409.354 3.186 1.054.762.685 1.263 1.45 1.49 2.27.198.727.588 1.406 1.158 2.02.55.597 1.281.887 2.234.887 2.244 0 3.336-1.275 3.336-3.9 0-1.864-.715-3.44-2.125-4.686-1.42-1.25-3.415-1.885-5.925-1.885-5.639 0-9.511 2.871-11.51 8.534l-.564 1.594v-8.81c0-.627-.134-1.03-.4-1.197a.768.768 0 0 0-.414-.102m3.824 43.605H540.44c-1.736 0-2.101-.735-2.101-1.351v-.357c0-.524.57-1.177 1.796-2.054 1.048-.752 1.558-1.653 1.558-2.753V41.74c0-1.163-.556-2.137-1.697-2.978-1.335-.983-1.929-1.657-1.929-2.185v-.18c0-.702.51-1.326 1.513-1.852l6.907-3.037c.926-.42 1.613-.474 2.097-.17.443.279.668.842.668 1.677v5.613c2.214-4.98 6.074-7.5 11.494-7.5 2.657 0 4.78.684 6.311 2.03 1.537 1.358 2.317 3.077 2.317 5.11 0 2.964-1.317 4.467-3.914 4.467-1.11 0-2.005-.36-2.662-1.072-.633-.682-1.066-1.44-1.29-2.253-.197-.716-.642-1.39-1.321-2.001-.667-.6-1.607-.906-2.795-.906-2.327 0-4.099 1.105-5.414 3.375-1.328 2.29-2.002 5.193-2.002 8.628v20.299c0 1.093.58 1.99 1.77 2.744 1.409.888 2.037 1.524 2.037 2.063v.357c0 .616-.364 1.351-2.101 1.351" fill="#FFF"/>
        <path d="M539.032 36.576c.006 0 .143.398 1.542 1.43 1.382 1.017 2.084 2.273 2.084 3.735v27.064c0 1.405-.657 2.589-1.954 3.519-1.296.927-1.398 1.3-1.402 1.316l.002.33c0 .1 0 .405 1.138.405h11.24c.52 0 1.138-.07 1.138-.405v-.357.002c-.01 0-.183-.38-1.593-1.268-1.469-.929-2.215-2.12-2.215-3.542V48.507c0-3.602.717-6.662 2.128-9.097 1.483-2.556 3.586-3.852 6.252-3.852 1.437 0 2.597.387 3.447 1.153.817.735 1.356 1.56 1.601 2.452.183.668.544 1.295 1.072 1.864.474.513 1.112.762 1.949.762 2.012 0 2.95-1.118 2.95-3.52 0-1.754-.672-3.234-1.997-4.404-1.348-1.187-3.255-1.79-5.667-1.79-5.456 0-9.207 2.786-11.146 8.28l-1.313 3.719V33.015c0-.684-.17-.844-.223-.878-.124-.078-.4-.118-1.176.234l-6.896 3.03c-.611.322-.96.68-.96.997v.18-.002zm12.65 39.125h-11.24c-2.164 0-2.488-1.084-2.488-1.73v-.358c0-.665.603-1.393 1.955-2.36.954-.685 1.4-1.463 1.4-2.448V41.741c0-1.035-.506-1.91-1.544-2.675-1.48-1.09-2.083-1.81-2.083-2.489v-.179c0-.853.579-1.588 1.718-2.187l6.93-3.047c1.052-.476 1.859-.524 2.463-.144.56.353.845 1.024.845 1.995v3.993c2.358-4.155 6.088-6.258 11.109-6.258 2.755 0 4.964.716 6.569 2.128 1.622 1.432 2.445 3.246 2.445 5.39 0 4.007-2.34 4.847-4.3 4.847-1.222 0-2.215-.402-2.947-1.197-.675-.726-1.138-1.538-1.377-2.41-.178-.645-.585-1.257-1.21-1.82-.594-.534-1.447-.804-2.535-.804-2.175 0-3.837 1.04-5.078 3.182-1.295 2.232-1.952 5.073-1.952 8.441v20.298c0 .968.507 1.738 1.594 2.426 1.573.992 2.214 1.682 2.214 2.382v.357c0 .647-.323 1.73-2.488 1.73zM572.53 75.928c-1.692 0-3.081-.46-4.168-1.38-1.089-.92-1.632-2.21-1.632-3.873 0-1.72.543-3.056 1.632-4.006 1.087-.948 2.476-1.424 4.169-1.424 1.631 0 2.991.476 4.079 1.424 1.088.95 1.631 2.286 1.631 4.006 0 1.663-.543 2.954-1.631 3.873-1.088.92-2.448 1.38-4.08 1.38" fill="#FFF"/>
        <path d="M572.53 65.623c-1.584 0-2.902.448-3.912 1.33-1.012.883-1.503 2.1-1.503 3.723 0 1.561.49 2.733 1.498 3.584 1.01.857 2.33 1.29 3.918 1.29 1.529 0 2.816-.433 3.827-1.29 1.008-.851 1.498-2.023 1.498-3.584 0-1.623-.491-2.84-1.502-3.723-1.01-.882-2.297-1.33-3.823-1.33m0 10.684c-1.78 0-3.266-.495-4.421-1.472-1.171-.99-1.766-2.39-1.766-4.159 0-1.826.593-3.269 1.761-4.29 1.156-1.01 2.645-1.52 4.426-1.52 1.72 0 3.179.51 4.335 1.52 1.169 1.021 1.761 2.464 1.761 4.29 0 1.77-.594 3.17-1.766 4.16-1.155.976-2.61 1.471-4.33 1.471" fill="#FFF"/>
        <path d="M572.53 65.529c-1.61 0-2.947.455-3.977 1.353-1.018.89-1.534 2.166-1.534 3.794 0 1.568.515 2.799 1.53 3.657 1.03.87 2.37 1.311 3.982 1.311 1.553 0 2.862-.442 3.89-1.311 1.016-.858 1.531-2.089 1.531-3.657 0-1.628-.516-2.905-1.534-3.794-1.03-.898-2.337-1.353-3.887-1.353m0 10.684c-1.755 0-3.222-.488-4.359-1.45-1.148-.97-1.732-2.347-1.732-4.087 0-1.797.582-3.217 1.73-4.219 1.138-.993 2.605-1.496 4.36-1.496 1.698 0 3.134.503 4.272 1.496 1.148 1.002 1.729 2.422 1.729 4.219 0 1.74-.583 3.116-1.733 4.088-1.135.96-2.571 1.449-4.267 1.449" fill="#FFF"/>
        <path d="M572.53 65.907c-1.512 0-2.764.424-3.72 1.258-.933.814-1.405 1.996-1.405 3.511 0 1.452.47 2.586 1.396 3.37.958.809 2.212 1.22 3.73 1.22 1.457 0 2.682-.411 3.639-1.22.927-.784 1.397-1.918 1.397-3.37 0-1.515-.473-2.697-1.405-3.51-.956-.835-2.178-1.259-3.631-1.259m0 10.684c-1.851 0-3.402-.518-4.61-1.541-1.239-1.046-1.866-2.517-1.866-4.374 0-1.91.625-3.425 1.858-4.502 1.211-1.057 2.765-1.593 4.618-1.593 1.793 0 3.316.536 4.527 1.593 1.233 1.077 1.858 2.592 1.858 4.502 0 1.857-.628 3.328-1.866 4.374-1.207 1.023-2.729 1.541-4.52 1.541M627.371 68.628c.06.95.363 1.722.906 2.314a11.698 11.698 0 0 0 1.587 1.47c.513.386.77.787.77 1.2v.358c0 .772-.634 1.157-1.903 1.157h-10.787c-1.269 0-1.904-.385-1.904-1.157v-.357c0-.414.559-1.037 1.678-1.87 1.117-.83 1.645-1.838 1.586-3.026l-.907-17.806c-.242-5.282-1.345-9.274-3.308-11.975-1.965-2.7-4.578-4.051-7.841-4.051-3.324 0-6.044 1.157-8.158 3.472-2.116 2.315-3.173 5.253-3.173 8.814v21.635c0 .712.196 1.322.59 1.825.392.505.8.876 1.223 1.113.422.237.83.52 1.224.846.392.326.589.667.589 1.023v.357c0 .772-.634 1.157-1.903 1.157h-11.33c-1.211 0-1.814-.385-1.814-1.157v-.357c0-.474.589-1.097 1.767-1.87 1.18-.77 1.768-1.75 1.768-2.937V41.83c0-1.127-.317-2.003-.952-2.627-.635-.623-1.269-1.112-1.903-1.468-.635-.357-.952-.743-.952-1.158v-.267c0-.535.483-.98 1.45-1.336l6.798-3.205c.846-.415 1.48-.475 1.904-.178.422.298.635.801.635 1.513v6.5c1.328-2.493 3.247-4.48 5.756-5.965 2.507-1.483 5.303-2.226 8.384-2.226 4.714 0 8.657 1.633 11.83 4.897 3.173 3.265 4.97 8.19 5.393 14.779l.997 17.539z" fill="#FFF"/>
        <path d="M607.248 34.506c3.378 0 6.122 1.416 8.155 4.21 1.998 2.751 3.136 6.848 3.38 12.178l.905 17.804c.067 1.315-.519 2.442-1.738 3.348-1.45 1.08-1.524 1.495-1.524 1.567v.357c0 .213 0 .778 1.517.778h10.787c1.519 0 1.519-.565 1.519-.778v-.357c0-.287-.208-.59-.62-.9a12.06 12.06 0 0 1-1.638-1.517c-.601-.655-.94-1.51-1.006-2.544v-.002l-.996-17.54c-.416-6.464-2.194-11.356-5.287-14.54-3.083-3.171-6.97-4.778-11.551-4.778-2.994 0-5.748.73-8.185 2.172-2.437 1.441-4.325 3.398-5.614 5.815l-.728 1.365v-8.04c0-.587-.155-.98-.473-1.205-.367-.258-1.022-.028-1.507.209l-6.803 3.207c-.58.215-1.232.55-1.232.994v.268c0 .333.412.634.758.829.66.37 1.328.884 1.984 1.53.707.693 1.065 1.666 1.065 2.894v26.975c0 1.318-.652 2.412-1.939 3.254-1.48.97-1.595 1.435-1.595 1.554v.357c0 .234 0 .778 1.427.778h11.33c1.518 0 1.518-.565 1.518-.778v-.357c0-.237-.152-.484-.452-.735a7.914 7.914 0 0 0-1.167-.805c-.465-.26-.915-.668-1.338-1.212-.444-.567-.668-1.258-.668-2.056V47.171c0-3.641 1.1-6.692 3.27-9.066 2.181-2.388 5.023-3.599 8.446-3.599m21.482 41h-10.787c-1.892 0-2.289-.835-2.289-1.536v-.357c0-.56.564-1.23 1.83-2.171 1.019-.757 1.487-1.642 1.435-2.707l-.906-17.806c-.238-5.183-1.327-9.143-3.238-11.774-1.906-2.617-4.368-3.89-7.527-3.89-3.195 0-5.844 1.125-7.872 3.346-2.039 2.231-3.073 5.11-3.073 8.56v21.634c0 .635.166 1.157.509 1.595.36.464.733.804 1.108 1.014.443.25.874.548 1.282.886.483.402.727.844.727 1.313v.357c0 .7-.397 1.536-2.29 1.536h-11.33c-1.817 0-2.198-.835-2.198-1.536v-.357c0-.623.616-1.318 1.939-2.185 1.073-.702 1.595-1.56 1.595-2.623V41.83c0-1.02-.282-1.813-.84-2.359-.607-.598-1.22-1.07-1.82-1.407-.762-.429-1.147-.929-1.147-1.487v-.268c0-.706.572-1.274 1.7-1.69l6.767-3.192c.977-.478 1.75-.526 2.295-.144.528.373.796.985.796 1.821v5.097c1.303-1.983 3.038-3.624 5.172-4.887 2.558-1.513 5.446-2.28 8.583-2.28 4.8 0 8.874 1.687 12.109 5.014 3.221 3.316 5.072 8.368 5.5 15.018l.996 17.54c.055.858.327 1.558.808 2.083a11.343 11.343 0 0 0 1.534 1.421c.612.463.923.968.923 1.503v.357c0 .7-.398 1.536-2.29 1.536" fill="#FFF"/>
        <path d="M607.248 34.6c3.345 0 6.063 1.404 8.076 4.17 1.988 2.737 3.119 6.817 3.362 12.127l.907 17.806c.064 1.282-.509 2.381-1.7 3.268-1.411 1.048-1.563 1.498-1.563 1.642v.357c0 .24 0 .873 1.613.873h10.787c1.616 0 1.616-.634 1.616-.873v-.357c0-.319-.222-.647-.658-.975-.524-.393-1.07-.9-1.626-1.506-.586-.639-.916-1.475-.98-2.486v-.002l-.996-17.539c-.418-6.486-2.205-11.4-5.314-14.6-3.103-3.19-7.013-4.808-11.621-4.808-3.012 0-5.783.735-8.235 2.186-2.452 1.45-4.352 3.42-5.65 5.853l-.545 1.024v-7.656c0-.62-.168-1.039-.514-1.282-.326-.229-.866-.162-1.606.202L585.8 35.23c-.862.318-1.286.677-1.286 1.08v.268c0 .303.27.609.807.91.652.366 1.314.875 1.964 1.514.687.675 1.036 1.626 1.036 2.827v26.976c0 1.284-.638 2.352-1.896 3.175-1.479.97-1.64 1.465-1.64 1.633v.357c0 .24 0 .873 1.525.873h11.33c1.615 0 1.615-.634 1.615-.873v-.357c0-.266-.164-.538-.487-.807a8.212 8.212 0 0 0-1.181-.816c-.455-.254-.895-.653-1.31-1.187-.43-.55-.648-1.222-.648-1.998V47.172c0-3.618 1.092-6.647 3.246-9.004 2.162-2.367 4.98-3.567 8.374-3.567m21.482 40.81h-10.787c-1.812 0-2.192-.783-2.192-1.441v-.357c0-.52.57-1.187 1.792-2.095 1.045-.778 1.526-1.69 1.47-2.787l-.905-17.807c-.238-5.2-1.332-9.178-3.255-11.823-1.898-2.609-4.458-3.931-7.605-3.931-3.224 0-5.897 1.136-7.943 3.377-2.056 2.25-3.098 5.15-3.098 8.625v21.633c0 .657.173 1.198.53 1.653.367.473.748.822 1.136 1.038.439.249.865.543 1.267.876.459.384.692.8.692 1.241v.357c0 .658-.38 1.442-2.193 1.442h-11.33c-1.738 0-2.103-.784-2.103-1.442v-.357c0-.589.603-1.257 1.897-2.105 1.103-.723 1.639-1.606 1.639-2.703V41.83c0-1.044-.292-1.86-.868-2.424-.613-.604-1.233-1.083-1.841-1.425-.73-.409-1.099-.88-1.099-1.402v-.269c0-.662.552-1.201 1.638-1.602l6.775-3.194c.944-.463 1.682-.513 2.197-.153.502.353.755.94.755 1.744v5.426c1.314-2.097 3.099-3.821 5.32-5.134 2.542-1.504 5.414-2.267 8.532-2.267 4.772 0 8.823 1.677 12.04 4.984 3.205 3.3 5.046 8.332 5.472 14.959l.996 17.539c.056.88.337 1.6.833 2.141a11.5 11.5 0 0 0 1.548 1.434c.586.442.884.923.884 1.427v.357c0 .658-.38 1.442-2.194 1.442" fill="#FFF"/>
        <path d="M607.248 34.222c3.478 0 6.3 1.456 8.39 4.329 2.032 2.796 3.187 6.945 3.433 12.33l.906 17.803c.072 1.415-.551 2.623-1.851 3.588-1.316.978-1.41 1.346-1.412 1.362v.336c0 .135 0 .494 1.23.494h10.786c1.23 0 1.23-.359 1.23-.494v-.357c0-.19-.18-.428-.507-.675a12.543 12.543 0 0 1-1.678-1.553c-.646-.704-1.009-1.617-1.078-2.716l-.997-17.543c-.41-6.394-2.163-11.225-5.207-14.36-3.027-3.113-6.844-4.69-11.342-4.69-2.94 0-5.645.717-8.036 2.131-2.39 1.414-4.243 3.334-5.507 5.705l-1.273 2.389v-9.197c0-.488-.115-.807-.352-.974-.091-.062-.39-.17-1.21.232l-6.807 3.21c-.993.367-1.068.657-1.068.738v.267c0 .115.162.328.613.582.684.385 1.373.915 2.046 1.575.762.75 1.149 1.79 1.149 3.096v26.975c0 1.418-.696 2.592-2.068 3.49-1.394.914-1.468 1.322-1.468 1.326v.35c0 .147 0 .493 1.139.493h11.33c1.229 0 1.229-.359 1.229-.494v-.357c0-.187-.19-.385-.35-.519a7.798 7.798 0 0 0-1.124-.775c-.5-.28-.979-.712-1.424-1.286-.483-.617-.728-1.366-.728-2.228V47.171c0-3.712 1.126-6.828 3.345-9.257 2.238-2.45 5.153-3.692 8.66-3.692M628.73 75.79h-10.787c-2.243 0-2.578-1.14-2.578-1.82v-.357c0-.667.581-1.384 1.945-2.398.949-.705 1.368-1.488 1.32-2.465l-.907-17.807c-.235-5.128-1.306-9.038-3.184-11.623-1.822-2.503-4.275-3.772-7.291-3.772-3.11 0-5.686 1.095-7.656 3.252-1.99 2.178-3 4.995-3 8.371v21.634c0 .57.147 1.036.45 1.422.337.434.68.75 1.021.94.46.259.904.566 1.326.914.55.46.829.975.829 1.532v.357c0 .68-.335 1.82-2.579 1.82h-11.33c-2.246 0-2.489-1.273-2.489-1.82v-.357c0-.737.64-1.483 2.07-2.42 1-.656 1.466-1.414 1.466-2.388V41.83c0-.942-.254-1.668-.754-2.158-.59-.579-1.181-1.036-1.76-1.363-.859-.481-1.294-1.064-1.294-1.732v-.267c0-.838.636-1.495 1.888-1.957l6.744-3.182c1.075-.525 1.947-.57 2.588-.12.609.429.917 1.12.917 2.053v4.184c1.256-1.684 2.843-3.099 4.734-4.217 2.604-1.54 5.542-2.321 8.732-2.321 4.881 0 9.026 1.717 12.318 5.101 3.27 3.366 5.147 8.48 5.579 15.197l.996 17.542c.05.788.298 1.432.735 1.909a11.115 11.115 0 0 0 1.495 1.386c.688.519 1.036 1.1 1.036 1.728v.357c0 .68-.335 1.82-2.58 1.82M654.111 34.262c-3.626 0-6.558 1.544-8.793 4.63-2.236 3.087-3.353 6.944-3.353 11.573 0 1.781.12 3.295.362 4.541l20.214-7.123c1.45-.592 2.175-1.631 2.175-3.116 0-2.254-1.041-4.57-3.127-6.944-2.085-2.373-4.578-3.561-7.478-3.561m16.77 28.223c.421-.652.997-.905 1.721-.757.726.149 1.027.638.907 1.469-.666 3.147-2.599 6.054-5.801 8.725-3.204 2.671-7.403 4.006-12.6 4.006-5.983 0-10.983-2.077-15.002-6.232-4.02-4.153-6.028-9.616-6.028-16.38 0-6.233 2.054-11.442 6.164-15.626 4.109-4.184 9.185-6.277 15.229-6.277 5.135 0 9.23 1.35 12.283 4.05 3.05 2.703 4.577 5.743 4.577 9.127 0 2.553-1.42 4.303-4.26 5.252l-25.11 8.103c1.027 3.858 2.856 6.87 5.485 9.035 2.628 2.168 5.785 3.25 9.472 3.25 6.223 0 10.544-2.581 12.963-7.745" fill="#FFF"/>
        <path d="M654.11 34.64c-3.477 0-6.329 1.505-8.478 4.472-2.177 3.005-3.282 6.825-3.282 11.353 0 1.547.094 2.9.278 4.033l19.782-6.971c1.287-.526 1.92-1.43 1.92-2.76 0-2.15-1.02-4.403-3.033-6.697-2-2.275-4.417-3.43-7.186-3.43zm-12.078 20.872-.084-.435c-.245-1.262-.37-2.814-.37-4.612 0-4.688 1.154-8.656 3.426-11.794 2.302-3.176 5.366-4.788 9.107-4.788 3.003 0 5.617 1.243 7.77 3.692 2.138 2.436 3.221 4.855 3.221 7.193 0 1.645-.812 2.811-2.413 3.465l-20.657 7.28zm13.438-23.72c-5.906 0-10.936 2.073-14.95 6.16-4.018 4.091-6.056 9.26-6.056 15.363 0 6.636 1.992 12.059 5.921 16.12 3.924 4.058 8.878 6.114 14.723 6.114 5.078 0 9.233-1.318 12.35-3.916 3.12-2.601 5.029-5.467 5.673-8.513.11-.762-.226-.943-.607-1.021-.556-.114-.972.066-1.305.568-2.477 5.27-6.953 7.943-13.301 7.943-3.763 0-7.033-1.123-9.72-3.34-2.68-2.207-4.566-5.312-5.61-9.23l-.092-.345 25.454-8.212c2.687-.898 3.995-2.5 3.995-4.894 0-3.253-1.498-6.23-4.45-8.844-2.966-2.623-7.01-3.953-12.025-3.953zm-.362 44.515c-6.065 0-11.206-2.136-15.281-6.35-4.07-4.206-6.135-9.806-6.135-16.642 0-6.307 2.11-11.652 6.273-15.888 4.165-4.242 9.38-6.393 15.505-6.393 5.21 0 9.43 1.396 12.542 4.149 3.122 2.764 4.704 5.93 4.704 9.406 0 2.72-1.521 4.61-4.521 5.612l-24.766 7.991c1.018 3.601 2.788 6.458 5.265 8.498 2.545 2.097 5.648 3.162 9.224 3.162 6.115 0 10.24-2.462 12.612-7.526l.025-.046c.507-.785 1.24-1.107 2.126-.923.539.11 1.412.503 1.21 1.893-.685 3.24-2.68 6.247-5.934 8.96-3.26 2.72-7.583 4.097-12.849 4.097z" fill="#FFF"/>
        <path d="M654.11 34.546c-3.509 0-6.388 1.517-8.556 4.51-2.19 3.022-3.3 6.862-3.3 11.41 0 1.602.1 2.998.298 4.159l19.89-7.01c1.332-.543 1.985-1.475 1.985-2.847 0-2.174-1.028-4.449-3.057-6.759-2.019-2.298-4.461-3.463-7.26-3.463zm-12.004 20.84-.063-.326c-.244-1.257-.368-2.803-.368-4.595 0-4.668 1.147-8.618 3.407-11.739 2.283-3.15 5.321-4.748 9.029-4.748 2.974 0 5.564 1.23 7.698 3.66 2.12 2.417 3.197 4.816 3.197 7.13 0 1.603-.792 2.74-2.354 3.378l-20.546 7.24zm13.364-23.689c-5.933 0-10.987 2.083-15.02 6.19-4.036 4.108-6.082 9.299-6.082 15.428 0 6.661 2 12.106 5.947 16.185 3.944 4.077 8.92 6.144 14.793 6.144 5.101 0 9.278-1.325 12.413-3.939 3.136-2.615 5.055-5.498 5.705-8.566.123-.852-.3-1.055-.683-1.133-.604-.124-1.051.071-1.408.615-2.46 5.238-6.906 7.894-13.217 7.894-3.74 0-6.99-1.116-9.659-3.317-2.663-2.194-4.54-5.283-5.578-9.182l-.068-.259 25.367-8.184c2.732-.913 4.062-2.544 4.062-4.983 0-3.282-1.509-6.282-4.483-8.916-2.983-2.639-7.05-3.977-12.089-3.977zm-.362 44.516c-6.038 0-11.156-2.127-15.211-6.32-4.053-4.19-6.108-9.767-6.108-16.578 0-6.28 2.1-11.604 6.245-15.823 4.146-4.222 9.34-6.363 15.436-6.363 5.186 0 9.384 1.387 12.476 4.124 3.102 2.746 4.674 5.888 4.674 9.337 0 2.675-1.5 4.533-4.456 5.522l-24.852 8.018c1.02 3.661 2.809 6.564 5.32 8.633 2.562 2.112 5.686 3.184 9.286 3.184 6.071 0 10.344-2.55 12.7-7.581l.019-.035c.482-.746 1.185-1.054 2.024-.88.873.177 1.276.813 1.135 1.786-.68 3.212-2.664 6.202-5.901 8.902-3.243 2.702-7.545 4.074-12.787 4.074z" fill="#FFF"/>
        <path d="M654.11 34.925c-3.377 0-6.15 1.465-8.242 4.351-2.143 2.956-3.229 6.721-3.229 11.19 0 1.377.075 2.6.222 3.647l19.451-6.854c1.174-.48 1.73-1.273 1.73-2.491 0-2.082-.998-4.273-2.964-6.512-1.942-2.21-4.286-3.331-6.967-3.331zM641.812 55.89l-.147-.76c-.249-1.28-.374-2.85-.374-4.666 0-4.748 1.17-8.771 3.479-11.959 2.358-3.256 5.501-4.907 9.342-4.907 3.09 0 5.779 1.276 7.99 3.79 2.183 2.489 3.29 4.971 3.29 7.379 0 1.746-.896 3.035-2.591 3.728L641.81 55.89zm13.66-23.815c-5.825 0-10.785 2.043-14.742 6.074-3.965 4.036-5.976 9.138-5.976 15.165 0 6.56 1.966 11.918 5.842 15.924 3.868 4 8.75 6.027 14.513 6.027 5.008 0 9.1-1.295 12.163-3.849 3.07-2.56 4.945-5.371 5.577-8.355.085-.59-.153-.638-.384-.685-.446-.09-.736.04-1.005.449-2.502 5.337-7.067 8.068-13.541 8.068-3.833 0-7.166-1.147-9.906-3.406-2.725-2.244-4.644-5.4-5.704-9.376l-.16-.603 25.711-8.296c2.59-.866 3.797-2.335 3.797-4.624 0-3.17-1.465-6.074-4.355-8.634-2.91-2.574-6.89-3.88-11.83-3.88zm-.363 44.515c-6.147 0-11.36-2.166-15.491-6.438-4.124-4.261-6.214-9.927-6.214-16.838 0-6.383 2.138-11.794 6.355-16.086 4.22-4.3 9.507-6.48 15.712-6.48 5.285 0 9.569 1.422 12.735 4.222 3.186 2.822 4.8 6.057 4.8 9.618 0 2.856-1.587 4.834-4.717 5.882l-24.505 7.905c1.013 3.422 2.727 6.144 5.097 8.096 2.49 2.055 5.53 3.096 9.038 3.096 5.907 0 10.063-2.477 12.35-7.361l.043-.078c.568-.883 1.43-1.259 2.43-1.05 1.069.22 1.606 1.046 1.436 2.211-.7 3.315-2.729 6.381-6.032 9.137-3.315 2.763-7.701 4.164-13.037 4.164zM693.722 75.928c-3.626 0-6.48-1.141-8.566-3.428-2.085-2.283-3.127-5.622-3.127-10.016v-26.62h-5.982c-.907 0-1.36-.445-1.36-1.335v-.89c0-.89.453-1.336 1.36-1.336h3.263c4.109 0 6.404-2.818 6.888-8.457.12-1.188.635-1.78 1.542-1.78h.907c.965 0 1.45.592 1.45 1.78l.09 8.457h12.51c.362 0 .68.133.95.4.273.269.41.58.41.936v.89c0 .89-.454 1.336-1.36 1.336h-12.51v26.709c0 2.374.513 4.215 1.54 5.52 1.028 1.306 2.417 1.958 4.171 1.958 1.933 0 3.49-.49 4.668-1.469 1.18-.98 1.858-2.27 2.04-3.873.301-.712.83-1.024 1.586-.935.755.09 1.133.52 1.133 1.291 0 2.91-1.074 5.447-3.218 7.613-2.146 2.167-4.94 3.25-8.385 3.25" fill="#FFF"/>
        <path d="M676.046 32.682c-.691 0-.973.278-.973.957v.89c0 .68.282.957.973.957h6.37v26.998c0 4.277 1.018 7.563 3.028 9.764 1.999 2.191 4.784 3.302 8.278 3.302 3.321 0 6.049-1.056 8.109-3.135 2.063-2.084 3.11-4.556 3.11-7.348 0-.576-.239-.849-.795-.915-.565-.07-.927.136-1.163.657-.202 1.668-.931 3.035-2.167 4.064-1.245 1.034-2.899 1.558-4.918 1.558-1.871 0-3.376-.709-4.475-2.106-1.076-1.365-1.621-3.3-1.621-5.752V35.486h12.894c.692 0 .975-.278.975-.957v-.89a.902.902 0 0 0-.296-.667.932.932 0 0 0-.679-.29h-12.891l-.094-8.833c0-1.24-.538-1.406-1.064-1.406h-.907c-.47 0-1.028.163-1.158 1.44-.5 5.837-2.947 8.8-7.272 8.8h-3.264zm17.676 43.626c-3.722 0-6.7-1.196-8.853-3.554-2.14-2.345-3.225-5.8-3.225-10.27v-26.24h-5.598c-1.125 0-1.744-.609-1.744-1.715v-.89c0-1.106.62-1.714 1.744-1.714h3.264c3.908 0 6.036-2.653 6.504-8.112.179-1.76 1.146-2.127 1.926-2.127h.907c.685 0 1.835.28 1.835 2.159l.087 8.08h12.127c.468 0 .88.172 1.225.511.345.34.52.744.52 1.203v.89c0 1.106-.62 1.714-1.745 1.714h-12.123v26.33c0 2.28.49 4.059 1.46 5.289.959 1.219 2.222 1.812 3.865 1.812 1.831 0 3.318-.464 4.419-1.38 1.11-.923 1.734-2.11 1.906-3.625l.027-.105c.37-.871 1.056-1.273 1.988-1.164.95.112 1.473.704 1.473 1.667 0 2.995-1.119 5.646-3.327 7.876-2.21 2.233-5.125 3.365-8.662 3.365z" fill="#FFF"/>
        <path d="M676.046 32.587c-.75 0-1.07.315-1.07 1.052v.89c0 .737.32 1.051 1.07 1.051h6.273v26.904c0 4.302 1.028 7.608 3.053 9.827 2.018 2.212 4.827 3.333 8.35 3.333 3.348 0 6.099-1.064 8.178-3.163 2.08-2.102 3.136-4.597 3.136-7.414 0-.627-.27-.937-.88-1.01-.603-.065-1.015.159-1.268.727-.195 1.65-.914 3.001-2.135 4.016-1.226 1.019-2.86 1.536-4.855 1.536-1.84 0-3.319-.696-4.399-2.069-1.062-1.348-1.601-3.264-1.601-5.694V35.58h12.798c.75 0 1.07-.314 1.07-1.05v-.891a.99.99 0 0 0-.323-.734 1.018 1.018 0 0 0-.747-.318h-12.795l-.093-8.738c0-1.33-.621-1.5-1.161-1.5h-.907c-.471 0-1.115.157-1.254 1.525-.495 5.78-2.91 8.713-7.176 8.713h-3.264zm17.676 43.626c-3.694 0-6.649-1.186-8.781-3.523-2.123-2.326-3.2-5.76-3.2-10.206V36.149h-5.695c-1.063 0-1.648-.575-1.648-1.62v-.89c0-1.044.585-1.62 1.648-1.62h3.264c3.969 0 6.127-2.68 6.6-8.197.172-1.688 1.09-2.042 1.83-2.042h.907c.793 0 1.74.359 1.74 2.065l.086 8.174h12.223a1.6 1.6 0 0 1 1.157.484c.326.322.492.703.492 1.136v.89c0 1.045-.585 1.62-1.649 1.62h-12.22v26.424c0 2.302.498 4.1 1.482 5.346.977 1.245 2.266 1.85 3.94 1.85 1.855 0 3.362-.473 4.481-1.403 1.115-.926 1.767-2.167 1.94-3.686l.02-.078c.35-.83 1.01-1.207 1.888-1.108.894.105 1.387.663 1.387 1.573 0 2.97-1.11 5.598-3.3 7.81-2.191 2.213-5.082 3.336-8.592 3.336z" fill="#FFF"/>
        <path d="M676.046 32.967c-.537 0-.684.144-.684.672v.89c0 .528.147.672.684.672h6.658v27.283c0 4.205.995 7.426 2.955 9.574 1.942 2.129 4.655 3.208 8.063 3.208 3.24 0 5.898-1.027 7.902-3.05 2.008-2.028 3.026-4.434 3.026-7.15 0-.435-.125-.583-.538-.633-.428-.047-.669.082-.847.454-.218 1.721-.98 3.135-2.263 4.202-1.298 1.08-3.015 1.627-5.104 1.627-1.965 0-3.547-.746-4.704-2.218-1.116-1.415-1.682-3.408-1.682-5.925V35.201h13.184c.538 0 .685-.144.685-.672v-.89a.615.615 0 0 0-.21-.466.637.637 0 0 0-.475-.206H689.52l-.097-9.115c0-1.124-.448-1.124-.775-1.124h-.907c-.262 0-.75 0-.87 1.183-.515 6.007-3.059 9.056-7.56 9.056h-3.264zm17.676 43.625c-3.809 0-6.86-1.228-9.068-3.649-2.189-2.398-3.3-5.917-3.3-10.459V36.527h-5.308c-1.273 0-2.034-.747-2.034-1.998v-.89c0-1.251.76-1.998 2.034-1.998h3.264c3.73 0 5.762-2.568 6.216-7.851.212-2.08 1.477-2.389 2.214-2.389h.907c.639 0 2.125.239 2.125 2.444l.083 7.796h11.841c.548 0 1.029.2 1.43.595.402.394.605.867.605 1.403v.89c0 1.251-.76 1.998-2.035 1.998h-11.834v26.046c0 2.216.471 3.936 1.4 5.114.901 1.146 2.09 1.702 3.636 1.702 1.76 0 3.184-.442 4.232-1.312 1.037-.862 1.644-2.019 1.805-3.439l.03-.131c.433-1.035 1.247-1.51 2.306-1.39 1.083.127 1.73.856 1.73 1.95 0 3.072-1.148 5.789-3.41 8.074-2.266 2.29-5.25 3.45-8.869 3.45z" fill="#FFF"/>
    </g>
</svg>
